<svg width="141" height="24" viewBox="0 0 141 24" fill="none" xmlns="http://www.w3.org/2000/svg">
<path d="M2.40755 20.7559L0.225708 11.6021H2.63326L4.27591 19.1884L3.88719 18.9H4.90288L4.464 19.1884L5.7054 11.9282H7.59884L5.88095 20.7559H2.40755ZM7.84962 20.7559L6.00634 11.9282H8.0001L9.45466 19.1884L9.01578 18.9H9.96877L9.64275 19.1884L11.0597 11.6021H13.3168L11.3983 20.7559H7.84962ZM17.2881 21.0066C16.7029 21.0066 16.1847 20.9063 15.7332 20.7057C15.2818 20.5051 14.9015 20.2334 14.5922 19.8906C14.2829 19.5479 14.0446 19.1634 13.8774 18.737C13.7186 18.3107 13.6392 17.8718 13.6392 17.4204V17.1696C13.6392 16.7015 13.7186 16.2542 13.8774 15.8279C14.0446 15.3932 14.2787 15.0087 14.5796 14.6743C14.8889 14.3399 15.2651 14.0766 15.7082 13.8843C16.1512 13.6837 16.6528 13.5834 17.2129 13.5834C17.9569 13.5834 18.588 13.7506 19.1063 14.0849C19.6246 14.4193 20.0217 14.8624 20.2976 15.4141C20.5734 15.9575 20.7114 16.551 20.7114 17.1947V17.922H14.5922V16.6931H19.3947L18.6047 17.2448C18.6047 16.8519 18.5504 16.5217 18.4417 16.2542C18.3414 15.9784 18.1868 15.7694 17.9778 15.6273C17.7772 15.4852 17.5222 15.4141 17.2129 15.4141C16.9119 15.4141 16.6486 15.4852 16.4229 15.6273C16.2056 15.761 16.0384 15.97 15.9213 16.2542C15.8043 16.5301 15.7458 16.8812 15.7458 17.3075C15.7458 17.6921 15.8001 18.0265 15.9088 18.3107C16.0175 18.5866 16.1847 18.7997 16.4104 18.9502C16.6361 19.1007 16.9287 19.1759 17.2881 19.1759C17.6058 19.1759 17.8649 19.1216 18.0656 19.0129C18.2745 18.9042 18.4208 18.7579 18.5044 18.574H20.586C20.4856 19.0422 20.285 19.4601 19.9841 19.8279C19.6915 20.1958 19.3153 20.4842 18.8555 20.6932C18.4041 20.9022 17.8816 21.0066 17.2881 21.0066ZM28.6617 20.7559V18.7245H28.2855V16.5552C28.2855 16.2375 28.2103 16.0035 28.0598 15.853C27.9177 15.6941 27.6794 15.6147 27.3451 15.6147C27.1862 15.6147 26.9522 15.6189 26.6429 15.6273C26.3335 15.6356 26.0075 15.6482 25.6648 15.6649C25.322 15.6816 25.0086 15.6983 24.7243 15.715V13.8091C24.925 13.7923 25.1632 13.7756 25.4391 13.7589C25.7149 13.7422 25.9992 13.7297 26.2918 13.7213C26.5927 13.7129 26.8686 13.7088 27.1193 13.7088C27.8299 13.7088 28.4318 13.8132 28.925 14.0222C29.4266 14.2312 29.8069 14.5447 30.0661 14.9627C30.3336 15.3807 30.4674 15.9115 30.4674 16.5552V20.7559H28.6617ZM26.4673 20.9314C25.9824 20.9314 25.5519 20.8436 25.1758 20.6681C24.7996 20.4925 24.5028 20.2417 24.2855 19.9157C24.0765 19.5813 23.972 19.1843 23.972 18.7245C23.972 18.2062 24.1099 17.7882 24.3858 17.4706C24.6616 17.1445 25.042 16.9063 25.5269 16.7558C26.0117 16.6053 26.5676 16.5301 27.1946 16.5301H28.5363V17.7088H27.1946C26.8853 17.7088 26.647 17.7882 26.4798 17.947C26.3127 18.0975 26.2291 18.3023 26.2291 18.5615C26.2291 18.8123 26.3127 19.0171 26.4798 19.1759C26.647 19.3264 26.8853 19.4016 27.1946 19.4016C27.3952 19.4016 27.5708 19.3682 27.7212 19.3013C27.8801 19.2261 28.0096 19.1007 28.11 18.9251C28.2103 18.7496 28.2688 18.5071 28.2855 18.1978L28.8122 18.6994C28.7704 19.1759 28.6533 19.5813 28.4611 19.9157C28.2771 20.2417 28.018 20.4925 27.6836 20.6681C27.3576 20.8436 26.9522 20.9314 26.4673 20.9314ZM31.9922 20.7559V13.8341H33.7979V16.8436H33.7728C33.7728 15.8739 33.9735 15.1132 34.3747 14.5614C34.7843 14.0097 35.3695 13.7338 36.1302 13.7338H36.4061V15.69H35.8794C35.3695 15.69 34.9724 15.8279 34.6882 16.1038C34.4123 16.3796 34.2744 16.7767 34.2744 17.295V20.7559H31.9922ZM40.53 21.0066C39.9448 21.0066 39.4265 20.9063 38.9751 20.7057C38.5237 20.5051 38.1433 20.2334 37.834 19.8906C37.5247 19.5479 37.2865 19.1634 37.1193 18.737C36.9604 18.3107 36.881 17.8718 36.881 17.4204V17.1696C36.881 16.7015 36.9604 16.2542 37.1193 15.8279C37.2865 15.3932 37.5205 15.0087 37.8215 14.6743C38.1308 14.3399 38.507 14.0766 38.95 13.8843C39.3931 13.6837 39.8946 13.5834 40.4547 13.5834C41.1987 13.5834 41.8299 13.7506 42.3482 14.0849C42.8665 14.4193 43.2635 14.8624 43.5394 15.4141C43.8153 15.9575 43.9532 16.551 43.9532 17.1947V17.922H37.834V16.6931H42.6366L41.8466 17.2448C41.8466 16.8519 41.7923 16.5217 41.6836 16.2542C41.5833 15.9784 41.4286 15.7694 41.2196 15.6273C41.019 15.4852 40.764 15.4141 40.4547 15.4141C40.1538 15.4141 39.8905 15.4852 39.6648 15.6273C39.4474 15.761 39.2802 15.97 39.1632 16.2542C39.0461 16.5301 38.9876 16.8812 38.9876 17.3075C38.9876 17.6921 39.042 18.0265 39.1506 18.3107C39.2593 18.5866 39.4265 18.7997 39.6522 18.9502C39.8779 19.1007 40.1705 19.1759 40.53 19.1759C40.8476 19.1759 41.1068 19.1216 41.3074 19.0129C41.5164 18.9042 41.6627 18.7579 41.7463 18.574H43.8278C43.7275 19.0422 43.5269 19.4601 43.2259 19.8279C42.9333 20.1958 42.5572 20.4842 42.0974 20.6932C41.646 20.9022 41.1235 21.0066 40.53 21.0066ZM47.8157 20.7559V11.6021H50.0728V20.7559H47.8157ZM49.822 20.7559V18.8499H53.6841V20.7559H49.822ZM49.822 17.0568V15.1508H53.4208V17.0568H49.822ZM49.822 13.5081V11.6021H53.6089V13.5081H49.822ZM58.1246 21.0066C57.5227 21.0066 57.0003 20.9105 56.5572 20.7182C56.1141 20.5176 55.7421 20.2501 55.4412 19.9157C55.1486 19.5813 54.9271 19.201 54.7766 18.7746C54.6345 18.3483 54.5634 17.9053 54.5634 17.4455V17.1947C54.5634 16.7098 54.6387 16.2501 54.7892 15.8154C54.948 15.3807 55.1779 14.9961 55.4788 14.6617C55.7798 14.3274 56.1518 14.064 56.5948 13.8718C57.0379 13.6795 57.5478 13.5834 58.1246 13.5834C58.7599 13.5834 59.32 13.7088 59.8049 13.9595C60.2897 14.2103 60.6743 14.5572 60.9585 15.0003C61.2511 15.435 61.4141 15.9366 61.4475 16.505H59.2155C59.1905 16.2292 59.086 15.9951 58.9021 15.8028C58.7265 15.6106 58.4674 15.5144 58.1246 15.5144C57.832 15.5144 57.5896 15.5897 57.3973 15.7401C57.2134 15.8906 57.0755 16.0996 56.9835 16.3671C56.8916 16.6346 56.8456 16.9523 56.8456 17.3201C56.8456 17.6628 56.8832 17.9679 56.9585 18.2355C57.0421 18.503 57.1758 18.7119 57.3597 18.8624C57.552 19.0045 57.807 19.0756 58.1246 19.0756C58.3587 19.0756 58.5551 19.0338 58.714 18.9502C58.8728 18.8666 58.9982 18.7496 59.0901 18.5991C59.1821 18.4403 59.2406 18.2564 59.2657 18.0474H61.4977C61.4643 18.6325 61.2971 19.1466 60.9961 19.5897C60.7035 20.0328 60.3106 20.3797 59.8174 20.6305C59.3242 20.8813 58.7599 21.0066 58.1246 21.0066ZM66.1032 21.0066C65.4929 21.0066 64.9495 20.9147 64.473 20.7308C63.9965 20.5469 63.5911 20.2919 63.2567 19.9659C62.9307 19.6399 62.6799 19.2637 62.5044 18.8373C62.3372 18.411 62.2536 17.9554 62.2536 17.4706V17.1696C62.2536 16.668 62.3414 16.1999 62.5169 15.7652C62.7008 15.3305 62.96 14.9501 63.2943 14.6241C63.6287 14.2981 64.0342 14.0431 64.5107 13.8592C64.9872 13.6753 65.518 13.5834 66.1032 13.5834C66.6967 13.5834 67.2275 13.6753 67.6957 13.8592C68.1721 14.0431 68.5776 14.2981 68.912 14.6241C69.2464 14.9501 69.5013 15.3305 69.6769 15.7652C69.8608 16.1999 69.9527 16.668 69.9527 17.1696V17.4706C69.9527 17.9554 69.865 18.411 69.6894 18.8373C69.5222 19.2637 69.2714 19.6399 68.937 19.9659C68.611 20.2919 68.2098 20.5469 67.7333 20.7308C67.2568 20.9147 66.7134 21.0066 66.1032 21.0066ZM66.1032 19.1007C66.4543 19.1007 66.7427 19.0254 66.9684 18.875C67.2024 18.7245 67.378 18.5155 67.495 18.248C67.6121 17.9721 67.6706 17.6628 67.6706 17.3201C67.6706 16.9606 67.6079 16.6471 67.4825 16.3796C67.3654 16.1038 67.1899 15.8864 66.9558 15.7276C66.7218 15.5688 66.4375 15.4893 66.1032 15.4893C65.7688 15.4893 65.4845 15.5688 65.2505 15.7276C65.0164 15.8864 64.8367 16.1038 64.7113 16.3796C64.5943 16.6471 64.5357 16.9606 64.5357 17.3201C64.5357 17.6628 64.5943 17.9721 64.7113 18.248C64.8283 18.5155 65.0039 18.7245 65.2379 18.875C65.472 19.0254 65.7604 19.1007 66.1032 19.1007ZM70.826 18.2104V16.179H76.3182V18.2104H70.826ZM77.7448 20.7559V13.8592C77.7448 13.0483 77.9788 12.4465 78.447 12.0536C78.9151 11.6523 79.6089 11.4517 80.5285 11.4517H81.4188V13.1319H80.4783C80.2777 13.1319 80.123 13.1863 80.0144 13.295C79.9057 13.4036 79.8514 13.5583 79.8514 13.7589V20.7559H77.7448ZM76.9673 15.6398V13.9846H81.5191V15.6398H76.9673ZM82.37 20.7559V13.8341H84.1757V16.8436H84.1506C84.1506 15.8739 84.3512 15.1132 84.7525 14.5614C85.1621 14.0097 85.7473 13.7338 86.508 13.7338H86.7839V15.69H86.2572C85.7473 15.69 85.3502 15.8279 85.066 16.1038C84.7901 16.3796 84.6522 16.7767 84.6522 17.295V20.7559H82.37ZM88.0106 20.7559V13.8341H90.2927V20.7559H88.0106ZM87.1328 15.4893V13.8341H90.2927V15.4893H87.1328ZM88.951 13.2824C88.533 13.2824 88.2237 13.1779 88.0231 12.9689C87.8308 12.7516 87.7347 12.4757 87.7347 12.1413C87.7347 11.807 87.8308 11.5353 88.0231 11.3263C88.2237 11.1089 88.5288 11.0003 88.9385 11.0003C89.3564 11.0003 89.6616 11.1089 89.8538 11.3263C90.0461 11.5353 90.1422 11.807 90.1422 12.1413C90.1422 12.4757 90.0461 12.7516 89.8538 12.9689C89.6616 13.1779 89.3606 13.2824 88.951 13.2824ZM95.2181 21.0066C94.633 21.0066 94.1147 20.9063 93.6632 20.7057C93.2118 20.5051 92.8315 20.2334 92.5222 19.8906C92.2129 19.5479 91.9746 19.1634 91.8074 18.737C91.6486 18.3107 91.5692 17.8718 91.5692 17.4204V17.1696C91.5692 16.7015 91.6486 16.2542 91.8074 15.8279C91.9746 15.3932 92.2087 15.0087 92.5096 14.6743C92.8189 14.3399 93.1951 14.0766 93.6382 13.8843C94.0812 13.6837 94.5828 13.5834 95.1429 13.5834C95.8869 13.5834 96.518 13.7506 97.0363 14.0849C97.5546 14.4193 97.9517 14.8624 98.2276 15.4141C98.5034 15.9575 98.6414 16.551 98.6414 17.1947V17.922H92.5222V16.6931H97.3247L96.5348 17.2448C96.5348 16.8519 96.4804 16.5217 96.3717 16.2542C96.2714 15.9784 96.1168 15.7694 95.9078 15.6273C95.7072 15.4852 95.4522 15.4141 95.1429 15.4141C94.8419 15.4141 94.5786 15.4852 94.3529 15.6273C94.1356 15.761 93.9684 15.97 93.8513 16.2542C93.7343 16.5301 93.6758 16.8812 93.6758 17.3075C93.6758 17.6921 93.7301 18.0265 93.8388 18.3107C93.9475 18.5866 94.1147 18.7997 94.3404 18.9502C94.5661 19.1007 94.8587 19.1759 95.2181 19.1759C95.5358 19.1759 95.7949 19.1216 95.9956 19.0129C96.2045 18.9042 96.3508 18.7579 96.4344 18.574H98.516C98.4157 19.0422 98.215 19.4601 97.9141 19.8279C97.6215 20.1958 97.2453 20.4842 96.7855 20.6932C96.3341 20.9022 95.8116 21.0066 95.2181 21.0066ZM99.8443 20.7559V13.8341H101.65V16.806H101.55C101.55 16.087 101.642 15.4935 101.825 15.0254C102.009 14.5489 102.281 14.1936 102.641 13.9595C103.008 13.7255 103.451 13.6084 103.97 13.6084H104.07C104.856 13.6084 105.462 13.8718 105.888 14.3984C106.323 14.9167 106.54 15.715 106.54 16.7934V20.7559H104.258V16.7307C104.258 16.4131 104.162 16.1539 103.97 15.9533C103.786 15.7443 103.531 15.6398 103.205 15.6398C102.879 15.6398 102.615 15.7443 102.415 15.9533C102.223 16.1539 102.126 16.4214 102.126 16.7558V20.7559H99.8443ZM110.92 20.9816C110.435 20.9816 109.992 20.8938 109.59 20.7182C109.198 20.5427 108.855 20.3003 108.562 19.991C108.278 19.6733 108.056 19.3013 107.898 18.875C107.747 18.4486 107.672 17.9847 107.672 17.4831V17.1821C107.672 16.6806 107.743 16.2166 107.885 15.7903C108.036 15.3556 108.249 14.9794 108.525 14.6617C108.8 14.3357 109.135 14.0849 109.528 13.9094C109.921 13.7255 110.36 13.6335 110.844 13.6335C111.404 13.6335 111.881 13.7589 112.274 14.0097C112.675 14.2521 112.98 14.6074 113.189 15.0755C113.407 15.5437 113.524 16.1121 113.54 16.7809L113.014 16.3922V11.6021H115.296V20.7559H113.49V17.947H113.741C113.724 18.5657 113.599 19.1048 113.365 19.5646C113.131 20.016 112.805 20.3671 112.387 20.6179C111.977 20.8604 111.488 20.9816 110.92 20.9816ZM111.534 19.1007C111.81 19.1007 112.061 19.038 112.286 18.9126C112.52 18.7872 112.709 18.6033 112.851 18.3608C112.993 18.1184 113.064 17.8258 113.064 17.4831V17.0568C113.064 16.7224 112.989 16.4423 112.838 16.2166C112.696 15.9909 112.508 15.8195 112.274 15.7025C112.048 15.5771 111.802 15.5144 111.534 15.5144C111.233 15.5144 110.961 15.5938 110.719 15.7527C110.485 15.9031 110.297 16.1163 110.155 16.3922C110.021 16.6597 109.954 16.9732 109.954 17.3326C109.954 17.6921 110.021 18.0056 110.155 18.2731C110.297 18.5322 110.485 18.737 110.719 18.8875C110.961 19.0296 111.233 19.1007 111.534 19.1007ZM117.051 20.7559V11.6021H119.334V20.7559H117.051ZM116.274 13.2573V11.6021H119.334V13.2573H116.274ZM121.067 23.5145V21.6085H122.659C122.852 21.6085 123.015 21.5835 123.148 21.5333C123.282 21.4831 123.391 21.3995 123.474 21.2825C123.558 21.1738 123.621 21.0192 123.662 20.8186L125.217 13.8341H127.374L125.556 21.2574C125.422 21.8259 125.234 22.2731 124.992 22.5991C124.758 22.9335 124.432 23.1676 124.014 23.3013C123.604 23.4435 123.069 23.5145 122.408 23.5145H121.067ZM123.261 20.6054V18.8499H124.716V20.6054H123.261ZM122.208 20.6054L120.189 13.8341H122.471L124.365 20.6054H122.208Z" fill="#2FB88E"/>
<g clip-path="url(#clip0_693_2396)">
<path d="M119.881 0.378906C119.881 0.378906 117.657 11.9547 126.736 11.9547C126.736 11.9547 126.429 8.09679 123.796 6.40581C123.796 6.40581 126.419 6.57953 127.511 11.6093C127.511 11.6093 129.516 1.37602 120.097 0.378906" fill="#2FB88E"/>
<path d="M128.613 14.8762C128.613 14.8762 129.874 9.03739 135.093 7.07091C135.093 7.07091 129.931 8.05364 128.096 12.1583C128.096 12.1583 126.089 2.50371 140.999 4.52673C140.999 4.52673 135.78 16.0892 128.612 14.8751L128.613 14.8762Z" fill="#2FB88E"/>
</g>
<defs>
<clipPath id="clip0_693_2396">
<rect width="21.3591" height="14.5867" fill="white" transform="matrix(-1 0 0 1 141 0.378906)"/>
</clipPath>
</defs>
</svg>
