<svg width="76" height="25" viewBox="0 0 76 25" fill="none" xmlns="http://www.w3.org/2000/svg">
<path d="M2.0028 10L0.187762 2.38519H2.19056L3.55705 8.69609L3.23369 8.45618H4.07862L3.71352 8.69609L4.74622 2.6564H6.32133L4.89225 10H2.0028ZM6.52996 10L4.99657 2.6564H6.65513L7.86516 8.69609L7.50007 8.45618H8.29284L8.02163 8.69609L9.20036 2.38519H11.078L9.482 10H6.52996ZM14.3817 10.2086C13.8949 10.2086 13.4637 10.1252 13.0882 9.95828C12.7127 9.79138 12.3963 9.56536 12.139 9.28024C11.8817 8.99512 11.6835 8.67523 11.5444 8.32057C11.4122 7.96591 11.3462 7.60081 11.3462 7.22529V7.01666C11.3462 6.62723 11.4122 6.25518 11.5444 5.90052C11.6835 5.5389 11.8782 5.21901 12.1285 4.94085C12.3858 4.66268 12.6988 4.44362 13.0673 4.28368C13.4359 4.11678 13.8532 4.03333 14.3191 4.03333C14.938 4.03333 15.463 4.17241 15.8942 4.45058C16.3254 4.72874 16.6557 5.09731 16.8852 5.55629C17.1147 6.00831 17.2294 6.50206 17.2294 7.03753V7.64254H12.139V6.62028H16.1341L15.477 7.07925C15.477 6.75241 15.4318 6.47772 15.3413 6.25518C15.2579 6.0257 15.1292 5.85184 14.9554 5.73362C14.7885 5.6154 14.5764 5.55629 14.3191 5.55629C14.0687 5.55629 13.8497 5.6154 13.6619 5.73362C13.4811 5.84489 13.342 6.01874 13.2447 6.25518C13.1473 6.48467 13.0986 6.77675 13.0986 7.13141C13.0986 7.4513 13.1438 7.72947 13.2342 7.96591C13.3246 8.19539 13.4637 8.37273 13.6515 8.4979C13.8392 8.62308 14.0826 8.68566 14.3817 8.68566C14.6459 8.68566 14.8615 8.64046 15.0284 8.55006C15.2023 8.45965 15.324 8.33795 15.3935 8.18496H17.1251C17.0416 8.5744 16.8747 8.9221 16.6244 9.22809C16.381 9.53407 16.0681 9.77399 15.6856 9.94784C15.3101 10.1217 14.8754 10.2086 14.3817 10.2086ZM23.8431 10V8.31014H23.5302V6.50553C23.5302 6.24127 23.4676 6.04656 23.3424 5.92138C23.2242 5.78925 23.026 5.72319 22.7479 5.72319C22.6157 5.72319 22.421 5.72667 22.1637 5.73362C21.9064 5.74057 21.6352 5.75101 21.3501 5.76491C21.0649 5.77882 20.8042 5.79273 20.5677 5.80664V4.22109C20.7346 4.20718 20.9328 4.19327 21.1623 4.17937C21.3918 4.16546 21.6282 4.15503 21.8716 4.14807C22.122 4.14112 22.3515 4.13764 22.5601 4.13764C23.1512 4.13764 23.6519 4.22457 24.0622 4.39842C24.4794 4.57228 24.7959 4.83306 25.0114 5.18076C25.234 5.52847 25.3452 5.97006 25.3452 6.50553V10H23.8431ZM22.0177 10.146C21.6143 10.146 21.2562 10.073 20.9433 9.92698C20.6303 9.78094 20.3834 9.57232 20.2026 9.30111C20.0288 9.02294 19.9419 8.69262 19.9419 8.31014C19.9419 7.87898 20.0566 7.53127 20.2861 7.26701C20.5156 6.9958 20.832 6.79761 21.2353 6.67243C21.6387 6.54726 22.1011 6.48467 22.6227 6.48467H23.7388V7.46521H22.6227C22.3654 7.46521 22.1672 7.53127 22.0281 7.6634C21.889 7.78858 21.8195 7.95895 21.8195 8.17453C21.8195 8.38316 21.889 8.55353 22.0281 8.68566C22.1672 8.81084 22.3654 8.87343 22.6227 8.87343C22.7896 8.87343 22.9356 8.84561 23.0608 8.78998C23.1929 8.72739 23.3007 8.62308 23.3842 8.47704C23.4676 8.331 23.5163 8.12933 23.5302 7.87203L23.9683 8.28928C23.9335 8.68566 23.8362 9.02294 23.6762 9.30111C23.5232 9.57232 23.3077 9.78094 23.0295 9.92698C22.7583 10.073 22.421 10.146 22.0177 10.146ZM26.6138 10V4.24195H28.1159V6.74545H28.095C28.095 5.93877 28.2619 5.30594 28.5957 4.84696C28.9365 4.38799 29.4233 4.1585 30.0561 4.1585H30.2856V5.78578H29.8475C29.4233 5.78578 29.0929 5.90052 28.8565 6.13001C28.627 6.3595 28.5123 6.68982 28.5123 7.12098V10H26.6138ZM33.7161 10.2086C33.2294 10.2086 32.7982 10.1252 32.4227 9.95828C32.0471 9.79138 31.7307 9.56536 31.4734 9.28024C31.2161 8.99512 31.0179 8.67523 30.8788 8.32057C30.7467 7.96591 30.6807 7.60081 30.6807 7.22529V7.01666C30.6807 6.62723 30.7467 6.25518 30.8788 5.90052C31.0179 5.5389 31.2126 5.21901 31.463 4.94085C31.7203 4.66268 32.0332 4.44362 32.4018 4.28368C32.7704 4.11678 33.1876 4.03333 33.6536 4.03333C34.2725 4.03333 34.7975 4.17241 35.2287 4.45058C35.6598 4.72874 35.9902 5.09731 36.2196 5.55629C36.4491 6.00831 36.5639 6.50206 36.5639 7.03753V7.64254H31.4734V6.62028H35.4686L34.8114 7.07925C34.8114 6.75241 34.7662 6.47772 34.6758 6.25518C34.5924 6.0257 34.4637 5.85184 34.2899 5.73362C34.123 5.6154 33.9109 5.55629 33.6536 5.55629C33.4032 5.55629 33.1842 5.6154 32.9964 5.73362C32.8156 5.84489 32.6765 6.01874 32.5791 6.25518C32.4818 6.48467 32.4331 6.77675 32.4331 7.13141C32.4331 7.4513 32.4783 7.72947 32.5687 7.96591C32.6591 8.19539 32.7982 8.37273 32.986 8.4979C33.1737 8.62308 33.4171 8.68566 33.7161 8.68566C33.9804 8.68566 34.196 8.64046 34.3629 8.55006C34.5367 8.45965 34.6584 8.33795 34.728 8.18496H36.4596C36.3761 8.5744 36.2092 8.9221 35.9589 9.22809C35.7155 9.53407 35.4025 9.77399 35.0201 9.94784C34.6445 10.1217 34.2099 10.2086 33.7161 10.2086ZM0.771912 22V14.3852H2.64954V22H0.771912ZM2.44091 22V20.4145H5.65374V22H2.44091ZM2.44091 18.9228V17.3372H5.43468V18.9228H2.44091ZM2.44091 15.9707V14.3852H5.59115V15.9707H2.44091ZM9.3477 22.2086C8.847 22.2086 8.41236 22.1287 8.04379 21.9687C7.67522 21.8018 7.36576 21.5793 7.11541 21.3011C6.87202 21.0229 6.68773 20.7065 6.56256 20.3519C6.44434 19.9972 6.38523 19.6286 6.38523 19.2462V19.0375C6.38523 18.6342 6.44781 18.2517 6.57299 17.8901C6.70512 17.5285 6.89636 17.2086 7.14671 16.9304C7.39706 16.6522 7.70652 16.4332 8.07509 16.2732C8.44366 16.1133 8.86786 16.0333 9.3477 16.0333C9.87622 16.0333 10.3421 16.1376 10.7455 16.3463C11.1488 16.5549 11.4687 16.8435 11.7052 17.2121C11.9486 17.5737 12.0842 17.9909 12.112 18.4638H10.2552C10.2344 18.2343 10.1474 18.0396 9.99444 17.8797C9.8484 17.7197 9.63282 17.6397 9.3477 17.6397C9.1043 17.6397 8.90263 17.7023 8.74269 17.8275C8.5897 17.9527 8.47495 18.1265 8.39846 18.3491C8.32196 18.5716 8.28371 18.8359 8.28371 19.1418C8.28371 19.427 8.31501 19.6808 8.37759 19.9033C8.44714 20.1259 8.5584 20.2997 8.71139 20.4249C8.87134 20.5431 9.08344 20.6022 9.3477 20.6022C9.54242 20.6022 9.70584 20.5674 9.83797 20.4979C9.9701 20.4284 10.0744 20.331 10.1509 20.2058C10.2274 20.0737 10.2761 19.9207 10.2969 19.7469H12.1537C12.1259 20.2336 11.9868 20.6613 11.7365 21.0299C11.4931 21.3985 11.1662 21.6871 10.7559 21.8957C10.3456 22.1043 9.87622 22.2086 9.3477 22.2086ZM15.9849 22.2086C15.4773 22.2086 15.0252 22.1321 14.6288 21.9791C14.2325 21.8261 13.8952 21.614 13.617 21.3428C13.3458 21.0716 13.1372 20.7587 12.9911 20.404C12.8521 20.0494 12.7825 19.6704 12.7825 19.267V19.0167C12.7825 18.5994 12.8555 18.21 13.0016 17.8484C13.1546 17.4867 13.3701 17.1703 13.6483 16.8991C13.9265 16.6279 14.2637 16.4158 14.6601 16.2628C15.0565 16.1098 15.4981 16.0333 15.9849 16.0333C16.4787 16.0333 16.9202 16.1098 17.3097 16.2628C17.7061 16.4158 18.0433 16.6279 18.3215 16.8991C18.5997 17.1703 18.8118 17.4867 18.9578 17.8484C19.1108 18.21 19.1873 18.5994 19.1873 19.0167V19.267C19.1873 19.6704 19.1143 20.0494 18.9682 20.404C18.8292 20.7587 18.6205 21.0716 18.3424 21.3428C18.0712 21.614 17.7374 21.8261 17.341 21.9791C16.9446 22.1321 16.4926 22.2086 15.9849 22.2086ZM15.9849 20.6231C16.277 20.6231 16.5169 20.5605 16.7047 20.4353C16.8994 20.3101 17.0454 20.1363 17.1428 19.9138C17.2401 19.6843 17.2888 19.427 17.2888 19.1418C17.2888 18.8428 17.2367 18.582 17.1323 18.3595C17.035 18.13 16.8889 17.9492 16.6942 17.8171C16.4995 17.6849 16.2631 17.6189 15.9849 17.6189C15.7067 17.6189 15.4703 17.6849 15.2756 17.8171C15.0809 17.9492 14.9313 18.13 14.827 18.3595C14.7297 18.582 14.681 18.8428 14.681 19.1418C14.681 19.427 14.7297 19.6843 14.827 19.9138C14.9244 20.1363 15.0704 20.3101 15.2651 20.4353C15.4599 20.5605 15.6998 20.6231 15.9849 20.6231ZM19.9137 19.8825V18.1926H24.4826V19.8825H19.9137ZM25.6693 22V16.2628C25.6693 15.5883 25.8641 15.0876 26.2535 14.7607C26.6429 14.4269 27.2201 14.26 27.9851 14.26H28.7257V15.6578H27.9433C27.7765 15.6578 27.6478 15.703 27.5574 15.7934C27.467 15.8838 27.4218 16.0125 27.4218 16.1794V22H25.6693ZM25.0226 17.7441V16.3671H28.8091V17.7441H25.0226ZM29.517 22V16.242H31.0191V18.7455H30.9982C30.9982 17.9388 31.1651 17.3059 31.4989 16.847C31.8397 16.388 32.3265 16.1585 32.9593 16.1585H33.1888V17.7858H32.7507C32.3265 17.7858 31.9962 17.9005 31.7597 18.13C31.5302 18.3595 31.4155 18.6898 31.4155 19.121V22H29.517ZM34.2093 22V16.242H36.1078V22H34.2093ZM33.4791 17.6189V16.242H36.1078V17.6189H33.4791ZM34.9916 15.783C34.6439 15.783 34.3866 15.6961 34.2197 15.5222C34.0598 15.3414 33.9798 15.1119 33.9798 14.8337C33.9798 14.5556 34.0598 14.3296 34.2197 14.1557C34.3866 13.9749 34.6404 13.8845 34.9812 13.8845C35.3289 13.8845 35.5827 13.9749 35.7427 14.1557C35.9026 14.3296 35.9826 14.5556 35.9826 14.8337C35.9826 15.1119 35.9026 15.3414 35.7427 15.5222C35.5827 15.6961 35.3324 15.783 34.9916 15.783ZM40.2051 22.2086C39.7183 22.2086 39.2872 22.1252 38.9116 21.9583C38.5361 21.7914 38.2197 21.5654 37.9624 21.2802C37.7051 20.9951 37.5069 20.6752 37.3678 20.3206C37.2357 19.9659 37.1696 19.6008 37.1696 19.2253V19.0167C37.1696 18.6272 37.2357 18.2552 37.3678 17.9005C37.5069 17.5389 37.7016 17.219 37.952 16.9408C38.2093 16.6627 38.5222 16.4436 38.8908 16.2837C39.2593 16.1168 39.6766 16.0333 40.1425 16.0333C40.7614 16.0333 41.2865 16.1724 41.7176 16.4506C42.1488 16.7287 42.4791 17.0973 42.7086 17.5563C42.9381 18.0083 43.0528 18.5021 43.0528 19.0375V19.6425H37.9624V18.6203H41.9576L41.3004 19.0793C41.3004 18.7524 41.2552 18.4777 41.1648 18.2552C41.0813 18.0257 40.9527 17.8518 40.7788 17.7336C40.6119 17.6154 40.3998 17.5563 40.1425 17.5563C39.8922 17.5563 39.6731 17.6154 39.4854 17.7336C39.3046 17.8449 39.1655 18.0187 39.0681 18.2552C38.9708 18.4847 38.9221 18.7767 38.9221 19.1314C38.9221 19.4513 38.9673 19.7295 39.0577 19.9659C39.1481 20.1954 39.2872 20.3727 39.4749 20.4979C39.6627 20.6231 39.9061 20.6857 40.2051 20.6857C40.4694 20.6857 40.685 20.6405 40.8519 20.5501C41.0257 20.4597 41.1474 20.338 41.2169 20.185H42.9485C42.8651 20.5744 42.6982 20.9221 42.4478 21.2281C42.2044 21.5341 41.8915 21.774 41.509 21.9478C41.1335 22.1217 40.6989 22.2086 40.2051 22.2086ZM44.0535 22V16.242H45.5556V18.7142H45.4722C45.4722 18.1161 45.5487 17.6224 45.7016 17.2329C45.8546 16.8365 46.0806 16.541 46.3797 16.3463C46.6857 16.1515 47.0542 16.0542 47.4854 16.0542H47.5688C48.2225 16.0542 48.7267 16.2732 49.0814 16.7114C49.443 17.1425 49.6238 17.8066 49.6238 18.7037V22H47.7253V18.6516C47.7253 18.3873 47.6453 18.1717 47.4854 18.0048C47.3324 17.831 47.1203 17.7441 46.8491 17.7441C46.5779 17.7441 46.3588 17.831 46.1919 18.0048C46.032 18.1717 45.952 18.3943 45.952 18.6724V22H44.0535ZM53.2669 22.1878C52.8636 22.1878 52.495 22.1147 52.1612 21.9687C51.8343 21.8227 51.5492 21.621 51.3058 21.3637C51.0694 21.0994 50.8851 20.79 50.753 20.4353C50.6278 20.0807 50.5652 19.6947 50.5652 19.2774V19.0271C50.5652 18.6098 50.6243 18.2239 50.7425 17.8692C50.8677 17.5076 51.0451 17.1947 51.2745 16.9304C51.504 16.6592 51.7822 16.4506 52.109 16.3045C52.4359 16.1515 52.801 16.0751 53.2043 16.0751C53.6702 16.0751 54.0666 16.1794 54.3935 16.388C54.7273 16.5897 54.9811 16.8852 55.155 17.2746C55.3358 17.6641 55.4331 18.137 55.447 18.6933L55.0089 18.3699V14.3852H56.9074V22H55.4053V19.6634H55.6139C55.6 20.178 55.4957 20.6266 55.301 21.009C55.1063 21.3846 54.8351 21.6766 54.4874 21.8853C54.1466 22.0869 53.7398 22.1878 53.2669 22.1878ZM53.778 20.6231C54.0075 20.6231 54.2162 20.5709 54.4039 20.4666C54.5986 20.3623 54.7551 20.2093 54.8733 20.0076C54.9915 19.806 55.0506 19.5626 55.0506 19.2774V18.9228C55.0506 18.6446 54.9881 18.4117 54.8629 18.2239C54.7447 18.0361 54.5882 17.8936 54.3935 17.7962C54.2057 17.6919 54.0006 17.6397 53.778 17.6397C53.5277 17.6397 53.3017 17.7058 53.1 17.8379C52.9053 17.9631 52.7488 18.1404 52.6306 18.3699C52.5193 18.5925 52.4637 18.8532 52.4637 19.1523C52.4637 19.4513 52.5193 19.7121 52.6306 19.9346C52.7488 20.1502 52.9053 20.3206 53.1 20.4457C53.3017 20.564 53.5277 20.6231 53.778 20.6231ZM58.3679 22V14.3852H60.2664V22H58.3679ZM57.7211 15.7621V14.3852H60.2664V15.7621H57.7211ZM61.7081 24.2949V22.7093H63.0329C63.1929 22.7093 63.3285 22.6885 63.4397 22.6467C63.551 22.605 63.6414 22.5355 63.7109 22.4381C63.7805 22.3477 63.8326 22.2191 63.8674 22.0522L65.1609 16.242H66.9551L65.4425 22.4172C65.3313 22.8901 65.1748 23.2622 64.9731 23.5334C64.7784 23.8116 64.5072 24.0063 64.1595 24.1175C63.8187 24.2358 63.3737 24.2949 62.8243 24.2949H61.7081ZM63.5336 21.8748V20.4145H64.7436V21.8748H63.5336ZM62.6574 21.8748L60.978 16.242H62.8764L64.4516 21.8748H62.6574Z" fill="#2FB88E"/>
<g clip-path="url(#clip0_917_951)">
<path d="M58.4316 0.518066C58.4316 0.518066 56.5816 10.1478 64.1335 10.1478C64.1335 10.1478 63.8782 6.93844 61.688 5.53173C61.688 5.53173 63.8705 5.67625 64.7782 9.86044C64.7782 9.86044 66.4467 1.34755 58.6106 0.518066" fill="#2FB88E"/>
<path d="M65.6956 12.5782C65.6956 12.5782 66.7449 7.72099 71.0862 6.08511C71.0862 6.08511 66.7924 6.90262 65.2656 10.3172C65.2656 10.3172 63.5962 2.28574 75.9993 3.96864C75.9993 3.96864 71.6579 13.5872 65.6948 12.5773L65.6956 12.5782Z" fill="#2FB88E"/>
</g>
<defs>
<clipPath id="clip0_917_951">
<rect width="17.7682" height="12.1344" fill="white" transform="matrix(-1 0 0 1 76 0.518066)"/>
</clipPath>
</defs>
</svg>
