<svg width="198" height="65" viewBox="0 0 198 65" fill="none" xmlns="http://www.w3.org/2000/svg">
<g clip-path="url(#clip0_57_339)">
<path d="M140.878 30.2995H137.311C136.897 30.2995 136.562 29.9639 136.562 29.5499V20.7124C136.562 20.2984 136.226 19.9629 135.812 19.9629H130.798C130.384 19.9629 130.049 20.2984 130.049 20.7124V29.5472C130.049 29.9612 129.713 30.2968 129.299 30.2968H128.019C127.605 30.2968 127.27 30.6323 127.27 31.0463V35.6247C127.27 36.0387 127.605 36.3742 128.019 36.3742H129.299C129.713 36.3742 130.049 36.7098 130.049 37.1238V57.7427C130.049 58.1567 130.384 58.4923 130.798 58.4923H135.812C136.226 58.4923 136.562 58.1567 136.562 57.7427V37.1292C136.562 36.7152 136.897 36.3796 137.311 36.3796H140.878C141.292 36.3796 141.627 36.0441 141.627 35.6301V31.0517C141.627 30.6377 141.292 30.3022 140.878 30.3022V30.2995Z" fill="white"/>
<path d="M163.88 30.8461C162.229 29.9612 160.641 29.5175 159.115 29.5175C157.821 29.5175 156.701 29.7583 155.757 30.2399C155.167 30.5349 154.525 30.9895 153.827 31.6037C153.337 32.0339 152.572 31.6984 152.572 31.049C152.572 30.635 152.236 30.2995 151.822 30.2995H146.808C146.394 30.2995 146.059 30.635 146.059 31.049V57.7482C146.059 58.1622 146.394 58.4977 146.808 58.4977H151.822C152.236 58.4977 152.572 58.1622 152.572 57.7482V43.8777C152.572 38.5119 154.347 35.8303 157.9 35.8303C158.86 35.8303 159.842 36.1253 160.841 36.7179C161.214 36.9398 161.699 36.8018 161.894 36.4121L164.183 31.8337C164.361 31.4765 164.234 31.0355 163.882 30.8461H163.88Z" fill="white"/>
<path d="M197.544 53.987L195.163 50.8238V31.049C195.163 30.635 194.827 30.2995 194.413 30.2995H189.37C188.956 30.2995 188.62 30.635 188.62 31.049V31.8418C188.62 32.475 187.879 32.8295 187.397 32.4209C185.102 30.4835 182.567 29.5148 179.791 29.5148C175.989 29.5148 172.823 30.9245 170.296 33.7414C167.766 36.5582 166.502 40.0813 166.502 44.3079C166.502 48.5346 167.766 52.2011 170.296 55.0774C172.845 57.8943 176.067 59.3041 179.967 59.3041C182.599 59.3041 185.086 58.3922 187.424 56.5684C187.911 56.1896 188.623 56.5495 188.623 57.1691V57.7455C188.623 58.1595 188.958 58.495 189.372 58.495H194.416C194.505 58.495 194.592 58.4761 194.673 58.4463H195.247C195.528 58.4463 195.785 58.2894 195.912 58.0404L197.625 54.7933C197.761 54.5308 197.731 54.2143 197.547 53.9843L197.544 53.987ZM186.794 50.9996C185.308 52.6611 183.357 53.4891 180.946 53.4891C178.687 53.4891 176.814 52.6313 175.329 50.9131C173.881 49.2137 173.158 47.0138 173.158 44.3106C173.158 41.7833 173.903 39.6592 175.388 37.9409C176.893 36.2416 178.765 35.392 181.006 35.392C183.379 35.392 185.311 36.2308 186.796 37.9112C188.282 39.6294 189.026 41.8104 189.026 44.4541C189.026 47.0977 188.282 49.2787 186.796 50.9969L186.794 50.9996Z" fill="white"/>
<path d="M100.122 30.2995H94.464C94.1799 30.2995 93.9174 30.4618 93.793 30.7162L86.6007 45.2063C86.3301 45.7529 85.5535 45.7637 85.2667 45.2252L77.5359 30.6972C77.406 30.4537 77.1516 30.2995 76.8729 30.2995H71.039C70.4681 30.2995 70.1055 30.9137 70.3815 31.4116L82.4336 53.232C82.4444 53.2483 82.4525 53.2672 82.4633 53.2834L84.896 56.9635L81.5217 63.2763C81.2538 63.7769 81.6164 64.3803 82.1846 64.3803H87.9157C88.1972 64.3803 88.4542 64.2234 88.5814 63.9745L91.4821 58.3543C91.6174 58.0918 91.5877 57.7752 91.4037 57.5452L88.9196 54.3983L100.788 31.3927C101.045 30.8921 100.682 30.2995 100.122 30.2995Z" fill="white"/>
<path d="M56.7686 29.5175C53.6027 29.5175 51.0294 30.6594 49.0514 32.9431C48.7456 33.2976 48.1936 33.2895 47.9041 32.9215C46.1128 30.6512 43.7803 29.5175 40.9012 29.5175C39.4725 29.5175 38.2846 29.7583 37.3402 30.2399C36.7666 30.5403 36.1144 31.0165 35.3866 31.6741C34.9022 32.1097 34.1283 31.7769 34.1283 31.1248V31.049C34.1283 30.635 33.7928 30.2995 33.3788 30.2995H32.2937C32.2558 30.2941 32.2206 30.2832 32.1828 30.2832H26.4517C25.8861 30.2832 25.5235 30.8866 25.7887 31.3872L27.6125 37.2185V57.7482C27.6125 58.1622 27.948 58.4977 28.362 58.4977H33.3761C33.7901 58.4977 34.1256 58.1622 34.1256 57.7482V43.9345C34.1256 40.9824 34.545 38.8204 35.3839 37.4485C36.2227 36.0793 37.5594 35.392 39.394 35.392C42.2893 35.392 43.737 37.9004 43.737 42.9198V57.7455C43.737 58.1595 44.0725 58.495 44.4865 58.495H49.5303C49.9443 58.495 50.2799 58.1595 50.2799 57.7455V43.9318C50.2799 40.9391 50.6912 38.769 51.511 37.4187C52.3309 36.0685 53.6379 35.392 55.4346 35.392C56.9797 35.392 58.0891 35.9602 58.7629 37.0994C59.4177 38.2197 59.7478 40.13 59.7478 42.8332V57.7455C59.7478 58.1595 60.0834 58.495 60.4974 58.495H65.5412C65.9552 58.495 66.2907 58.1595 66.2907 57.7455V41.0663C66.2907 33.3653 63.1167 29.5148 56.7659 29.5148L56.7686 29.5175Z" fill="white"/>
<path d="M122.2 44.8031C121.004 43.5476 118.677 42.1784 115.221 40.6929C112.713 39.6321 111.457 38.5606 111.457 37.4782C111.457 36.8613 111.668 36.3553 112.093 35.9575C112.518 35.5625 113.029 35.3649 113.627 35.3649C114.718 35.3649 115.657 36.0225 116.442 37.3375C116.647 37.6812 117.086 37.8111 117.437 37.6216L121.518 35.4488C121.889 35.2513 122.021 34.7886 121.821 34.4179C120.065 31.1491 117.497 29.5148 114.117 29.5148C111.666 29.5148 109.582 30.3157 107.864 31.9176C106.183 33.5195 105.345 35.5462 105.345 37.9978C105.345 39.8513 105.837 41.3666 106.822 42.5437C107.593 43.4691 108.925 44.3972 110.819 45.3227C111.495 45.6501 112.161 45.9694 112.816 46.2778C113.46 46.5809 114.106 46.8948 114.75 47.2168C114.772 47.2276 114.794 47.2411 114.815 47.252C116.493 48.2504 117.332 49.3247 117.332 50.4747C117.332 52.4825 116.23 53.4864 114.031 53.4864C112.929 53.4864 111.985 53.1211 111.192 52.3851C110.848 52.0739 110.375 51.4109 109.769 50.3935C109.571 50.0634 109.157 49.9335 108.808 50.0932L104.544 52.0685C104.157 52.2471 104.005 52.7071 104.189 53.0913C106.192 57.2313 109.433 59.3014 113.914 59.3014C116.674 59.3014 119.028 58.4328 120.979 56.6956C122.987 54.861 123.991 52.5853 123.991 49.8632C123.991 47.739 123.393 46.0505 122.197 44.7977L122.2 44.8031Z" fill="white"/>
</g>
<path d="M19.0483 19.504C19.0686 19.2612 19.2612 19.0686 19.504 19.0483L29.4326 18.2186C30.0431 18.1676 30.0424 17.274 29.4319 17.2239L19.5047 16.4081C19.2616 16.3881 19.0686 16.1953 19.0483 15.9522L18.2186 6.00992C18.1676 5.39941 17.274 5.40002 17.2238 6.01061L16.4081 15.9515C16.3881 16.1949 16.1949 16.3881 15.9515 16.4081L6.01061 17.2238C5.40002 17.274 5.39941 18.1676 6.00992 18.2186L15.9522 19.0483C16.1953 19.0686 16.3881 19.2616 16.4081 19.5047L17.2239 29.4319C17.274 30.0424 18.1676 30.0431 18.2186 29.4326L19.0483 19.504Z" fill="url(#paint0_linear_57_339)"/>
<defs>
<linearGradient id="paint0_linear_57_339" x1="16.5" y1="15.5" x2="21.5" y2="24.5" gradientUnits="userSpaceOnUse">
<stop stop-color="#04D7B1"/>
<stop offset="0.729167" stop-color="#AA95FF"/>
</linearGradient>
<clipPath id="clip0_57_339">
<rect width="172.004" height="44.4174" fill="white" transform="translate(25.7012 19.9629)"/>
</clipPath>
</defs>
</svg>
