<svg width="193" height="77" viewBox="0 0 193 77" fill="none" xmlns="http://www.w3.org/2000/svg">
<g clip-path="url(#clip0_693_838)">
<path d="M19.7731 40.487C16.7042 40.5691 13.657 39.9516 10.8621 38.6813C8.49107 37.5595 6.39586 35.9297 4.72526 33.9075C3.15215 32.0014 1.94218 29.8229 1.15534 27.4802C0.411077 25.32 0.0209649 23.0538 0 20.7691V19.6137C0.000696875 17.1963 0.400401 14.7956 1.18305 12.5084C1.96849 10.1862 3.19735 8.03859 4.80144 6.18482C6.4865 4.25588 8.57113 2.71663 10.9106 1.67391C13.6239 0.50553 16.5568 -0.0654716 19.5103 -0.000368596C22.7255 -0.0520236 25.9101 0.629399 28.8226 1.99218C31.473 3.22969 33.7439 5.15391 35.3997 7.56515C37.0554 9.9764 38.0357 12.7868 38.2389 15.7048H32.704C31.6383 15.705 30.5888 15.4425 29.6488 14.9404C28.7087 14.4384 27.907 13.7124 27.3144 12.8266C27.1816 12.6256 27.0383 12.4317 26.8854 12.2455C26.0526 11.2474 24.9919 10.4643 23.7928 9.96237C22.4285 9.40228 20.9641 9.12679 19.4895 9.15287C18.0957 9.13136 16.7126 9.39996 15.4282 9.94159C14.2553 10.4395 13.2135 11.2019 12.3841 12.1694C11.5326 13.1867 10.8907 14.3623 10.4954 15.6287C9.62811 18.644 9.62811 21.8427 10.4954 24.858C10.8954 26.1505 11.5572 27.3469 12.4395 28.3726C13.2916 29.3485 14.3602 30.1114 15.5598 30.6004C16.8938 31.127 18.3184 31.3856 19.7523 31.3615C21.9635 31.4327 24.1414 30.8083 25.979 29.5765C26.7516 29.0451 27.4181 28.374 27.944 27.5978C28.5384 26.7365 29.3348 26.0339 30.2634 25.5515C31.1921 25.069 32.2248 24.8214 33.2712 24.8303H38.8061C38.505 27.6969 37.4872 30.4416 35.8464 32.8115C34.2057 35.1813 31.9949 37.1 29.4177 38.3907C26.4197 39.8589 23.1101 40.5783 19.7731 40.487Z" fill="white"/>
<path d="M66.9511 15.2069C65.8119 13.4283 64.1416 12.0534 62.1772 11.2771C59.7645 10.3397 57.189 9.89284 54.6015 9.96265C53.5498 9.96265 52.4014 9.96262 51.1422 10.018C49.883 10.0733 48.7069 10.101 47.5515 10.1771C46.3961 10.2532 45.3998 10.3155 44.5626 10.3847V18.3549L48.4923 18.1473C49.9245 18.0781 51.2944 18.0227 52.5882 17.9882C53.882 17.9536 54.8575 17.9328 55.5217 17.9328C56.9054 17.9328 57.9223 18.258 58.5381 18.9083C59.1929 19.711 59.5192 20.732 59.4514 21.7657H54.892C52.5333 21.7279 50.1825 22.0451 47.9182 22.7066C46.0761 23.2197 44.4194 24.2497 43.1443 25.6747C41.9419 27.1583 41.3264 29.032 41.4146 30.9397C41.3656 32.6882 41.8297 34.4127 42.7499 35.9003C43.6542 37.2897 44.9392 38.3897 46.4514 39.069C48.1467 39.8309 49.9895 40.2089 51.8479 40.176C53.6193 40.2313 55.3772 39.8512 56.9675 39.069C58.3513 38.3356 61.0288 39.4357 61.0288 39.4357H68.6046V21.8695C68.6957 19.5368 68.1223 17.2263 66.9511 15.2069ZM58.7387 31.8114C58.386 32.4843 57.8254 33.0255 57.1405 33.3543C56.4394 33.6644 55.6792 33.8178 54.9128 33.804C53.8281 33.8751 52.7577 33.5258 51.9239 32.8285C51.5765 32.5057 51.3027 32.1117 51.1212 31.6736C50.9398 31.2354 50.855 30.7633 50.8724 30.2894C50.8506 29.8067 50.9331 29.325 51.1146 28.8772C51.2961 28.4294 51.5721 28.0262 51.9239 27.6949C52.7577 26.9976 53.8281 26.6482 54.9128 26.7194H59.4791V28.7949C59.4576 29.8339 59.2047 30.8549 58.7387 31.7838V31.8114Z" fill="white"/>
<path d="M86.4822 40.3835C82.2896 40.3835 78.9871 39.5186 76.5748 37.789C75.3974 36.9605 74.4322 35.8657 73.7577 34.5938C73.0833 33.3218 72.7186 31.9086 72.6934 30.4692H81.058C81.1517 30.9396 81.3452 31.3845 81.6257 31.7736C81.9062 32.1627 82.2672 32.4871 82.6839 32.7246C83.8909 33.4238 85.2765 33.7533 86.669 33.6725C87.7513 33.6963 88.8276 33.5083 89.8376 33.119C90.2277 33.0034 90.5696 32.764 90.8117 32.437C91.0538 32.1101 91.183 31.7132 91.1798 31.3063C91.1763 30.9399 91.0777 30.5808 90.8933 30.2641C90.7089 29.9475 90.4453 29.6844 90.1283 29.5006C89.4272 29.0394 88.1519 28.7165 86.3023 28.532L84.3097 28.3175C80.6198 27.9393 77.8917 26.9269 76.1252 25.2802C75.272 24.4946 74.5966 23.5357 74.1444 22.4678C73.6921 21.3998 73.4735 20.2476 73.503 19.0882C73.4273 17.2043 73.9824 15.3489 75.0805 13.8162C76.2029 12.3815 77.713 11.2986 79.4321 10.696C81.4663 9.96687 83.616 9.6129 85.7765 9.65125C89.6555 9.65125 92.7849 10.4976 95.1649 12.1903C96.332 13.0214 97.2838 14.1192 97.9409 15.3924C98.598 16.6656 98.9414 18.0774 98.9425 19.5102H90.5503C90.3907 18.6093 89.8807 17.8082 89.1319 17.2824C88.1106 16.6053 86.8954 16.282 85.6726 16.3623C84.7549 16.3257 83.8432 16.5232 83.0229 16.9365C82.715 17.0816 82.4549 17.3118 82.2735 17.5999C82.0921 17.888 81.9969 18.2219 81.999 18.5624C81.9841 18.8983 82.0679 19.2313 82.24 19.5202C82.4122 19.8091 82.665 20.0413 82.9675 20.1882C83.9535 20.6315 85.0096 20.8985 86.0878 20.9769L88.0803 21.1845C91.7702 21.5719 94.6299 22.5959 96.6594 24.2563C97.6328 25.0377 98.4119 26.0341 98.9353 27.1673C99.4587 28.3006 99.7121 29.5397 99.6758 30.7874C99.722 32.6299 99.1605 34.4364 98.0777 35.9279C96.8989 37.4382 95.3153 38.5827 93.5114 39.2281C91.2594 40.0424 88.8764 40.4341 86.4822 40.3835Z" fill="white"/>
<path d="M135.444 18.4101C134.876 16.703 133.976 15.1252 132.795 13.7678C131.648 12.4637 130.232 11.4249 128.643 10.7236C126.938 9.98996 125.097 9.62454 123.24 9.65127C120.936 9.65127 116.979 10.1632 115.201 11.1941C113.423 12.225 104.463 10.5022 104.463 10.5022V49.938H114.011V39.9338C114.011 39.6402 114.09 39.352 114.239 39.0993C114.389 38.8467 114.603 38.6388 114.861 38.4974C115.118 38.356 115.409 38.2863 115.702 38.2956C115.996 38.3048 116.281 38.3928 116.529 38.5501C116.799 38.7308 117.079 38.8971 117.366 39.0482C119.206 39.9652 121.24 40.4233 123.295 40.3835C125.214 40.4192 127.117 40.0442 128.879 39.2835C130.472 38.572 131.88 37.5045 132.995 36.1632C134.14 34.7705 134.995 33.1642 135.514 31.4378C136.089 29.5266 136.371 27.5391 136.351 25.5432V24.284C136.375 22.2894 136.069 20.3046 135.444 18.4101ZM126.028 28.8433C125.54 29.9353 124.759 30.8714 123.773 31.5485C122.787 32.2007 121.627 32.5385 120.445 32.5171C119.369 32.5099 118.309 32.2492 117.352 31.7561C116.336 31.2515 115.468 30.4909 114.834 29.549C114.154 28.5259 113.806 27.3179 113.838 26.0898V24.3117C113.799 23.0229 114.125 21.7494 114.779 20.6379C115.37 19.6623 116.214 18.864 117.221 18.3271C118.216 17.8071 119.322 17.5386 120.445 17.5453C121.629 17.5146 122.796 17.8322 123.8 18.4586C124.766 19.0954 125.536 19.9859 126.028 21.0323C126.6 22.2542 126.88 23.5925 126.845 24.9413C126.865 26.2864 126.586 27.6193 126.028 28.8433Z" fill="white"/>
<path d="M155.19 40.4873C152.958 40.5284 150.742 40.0994 148.687 39.2281C146.871 38.4441 145.243 37.2812 143.913 35.8172C141.353 32.9854 139.933 29.3053 139.928 25.4878V24.4362C139.921 22.5121 140.268 20.603 140.952 18.8045C141.613 17.0309 142.609 15.4009 143.886 14.003C145.201 12.5767 146.801 11.4428 148.583 10.6752C150.569 9.82348 152.712 9.40145 154.872 9.43678C157.658 9.34324 160.411 10.0646 162.794 11.5123C164.925 12.8718 166.647 14.7849 167.775 17.0472C168.936 19.3679 169.529 21.9313 169.505 24.5261V27.5911H143.906V22.4506H163.97L160.67 24.7614C160.692 23.3472 160.458 21.9408 159.978 20.6102C159.611 19.567 158.932 18.6615 158.034 18.0158C157.077 17.3928 155.951 17.0811 154.81 17.1233C153.657 17.0959 152.52 17.3957 151.531 17.9881C150.567 18.6198 149.824 19.5364 149.407 20.6102C148.878 22.0271 148.628 23.5333 148.673 25.045C148.645 26.4596 148.88 27.8671 149.365 29.1962C149.757 30.2927 150.483 31.2388 151.441 31.9013C152.544 32.573 153.823 32.9006 155.114 32.8423C156.245 32.8802 157.368 32.6428 158.387 32.1504C159.182 31.7596 159.821 31.1109 160.199 30.31H168.903C168.507 32.233 167.652 34.032 166.412 35.5543C165.145 37.1155 163.529 38.3573 161.694 39.1796C159.644 40.0748 157.427 40.5207 155.19 40.4873Z" fill="white"/>
<path d="M174.541 39.436V10.4888L182.069 12.3706C182.069 12.3706 188.641 10.0391 191.824 10.0391H192.979V18.2514H190.779C188.641 18.2514 186.995 18.8256 185.819 19.981C184.642 21.1364 184.061 22.7969 184.061 24.9624V39.436H174.541Z" fill="white"/>
<path d="M18.4725 51.7369C16.9475 51.1455 15.3201 50.8633 13.6849 50.9067C12.9931 50.9067 12.3011 50.9067 11.5124 50.9067C10.7237 50.9067 9.96957 50.962 9.24312 51.0104C8.51667 51.0589 7.85942 51.0935 7.35437 51.1419V56.1786C8.10849 56.1302 8.93186 56.0887 9.83819 56.0472C10.7445 56.0057 11.6093 55.971 12.4257 55.9434C13.2421 55.9157 13.8578 55.9434 14.2798 55.9434C14.6228 55.91 14.9689 55.9468 15.2972 56.0514C15.6255 56.1561 15.9291 56.3265 16.1894 56.5522C16.598 57.0621 16.8027 57.7057 16.7637 58.3579H13.8854C12.395 58.3357 10.9096 58.5363 9.47841 58.953C8.31429 59.2766 7.26733 59.9273 6.46185 60.8279C5.70045 61.7676 5.31147 62.9545 5.36883 64.1626C5.33665 65.2653 5.63022 66.3531 6.21287 67.2898C6.78196 68.168 7.5911 68.8644 8.54434 69.2962C9.61912 69.7745 10.7859 70.0107 11.9621 69.9881C13.0795 70.0257 14.1891 69.7881 15.1931 69.2962C16.0649 68.8327 17.7599 69.5314 17.7599 69.5314H22.5336V58.4617C22.5932 56.9865 22.2308 55.5249 21.4889 54.2484C20.771 53.1162 19.716 52.2378 18.4725 51.7369ZM16.3 64.6954C16.0765 65.1203 15.7224 65.4623 15.2899 65.6709C14.8551 65.8659 14.3827 65.9627 13.9062 65.9545C13.2217 66.0025 12.5451 65.7844 12.0175 65.3457C11.7914 65.1438 11.6124 64.8948 11.4928 64.6164C11.3733 64.3379 11.3162 64.0366 11.3256 63.7337C11.3155 63.4266 11.372 63.1209 11.4915 62.8379C11.6109 62.5548 11.7904 62.301 12.0175 62.094C12.5451 61.6553 13.2217 61.4372 13.9062 61.4851H16.7844V62.772C16.7763 63.4422 16.6102 64.1012 16.3 64.6954Z" fill="white"/>
<path d="M31.3484 52.0618L26.5746 51.2385V69.5381H32.6284V60.3848C32.566 59.8127 32.6327 59.2337 32.8238 58.6908C33.0149 58.1479 33.3254 57.6548 33.7324 57.2478C34.1394 56.8408 34.6324 56.5303 35.1754 56.3392C35.7183 56.1482 36.2972 56.0814 36.8694 56.1438H38.2531V50.9756H37.5268C35.4996 50.9756 31.3484 52.0618 31.3484 52.0618Z" fill="white"/>
<path d="M66.4319 51.5916C65.4 50.9359 64.1947 50.6056 62.9726 50.6438H62.7096C61.5005 50.605 60.3083 50.9356 59.2919 51.5916C58.324 52.2916 57.5985 53.2759 57.2163 54.4075C57.2122 54.4234 57.2122 54.44 57.2163 54.4559V54.4075C56.8354 53.2752 56.1096 52.2906 55.1408 51.5916C54.1141 50.924 52.905 50.5927 51.6815 50.6438H51.4116C50.2046 50.605 49.0147 50.9357 48.0008 51.5916C47.0737 52.2212 45.4479 51.2388 45.4479 51.2388H40.674V69.5384H46.7071V59.0291C46.6673 58.2451 46.9131 57.4733 47.3989 56.8566C47.6424 56.576 47.9462 56.3542 48.2877 56.208C48.6293 56.0618 48.9995 55.995 49.3706 56.0126C49.737 55.9919 50.1032 56.0575 50.4397 56.2041C50.7761 56.3507 51.0735 56.5742 51.3078 56.8566C51.7718 57.4475 52.0163 58.1811 51.9997 58.9322V69.5107H58.0257V59.0291C57.9897 58.2456 58.2351 57.475 58.7176 56.8566C58.961 56.576 59.265 56.3542 59.6066 56.208C59.9481 56.0618 60.3183 55.995 60.6895 56.0126C61.0569 55.9919 61.424 56.0575 61.7615 56.204C62.0991 56.3506 62.3978 56.5741 62.6336 56.8566C63.095 57.4489 63.3392 58.1816 63.3255 58.9322V69.5107H69.3584V59.1329C69.407 57.5271 69.1535 55.9266 68.6112 54.4144C68.1932 53.2713 67.432 52.2853 66.4319 51.5916Z" fill="white"/>
<path d="M84.3443 51.2388L81.3901 64.4947H80.7883L77.0868 51.2388H71.0538L76.388 69.1371H80.3662L80.2417 69.7044C80.1655 70.1479 79.9957 70.57 79.7436 70.9428C79.5232 71.2376 79.2231 71.4632 78.8788 71.5931C78.4623 71.7336 78.0242 71.7992 77.5849 71.7869H73.3784V76.8236H76.9069C78.3451 76.8664 79.781 76.682 81.1617 76.277C82.2016 75.954 83.1092 75.3037 83.7493 74.4229C84.4672 73.3421 84.9678 72.1319 85.223 70.8598L90.0314 51.2388H84.3443Z" fill="white"/>
<path d="M102.823 61.5269H93.9607V70.3895H102.823V61.5269Z" fill="#FF0202"/>
</g>
<defs>
<clipPath id="clip0_693_838">
<rect width="193" height="76.8236" fill="white"/>
</clipPath>
</defs>
</svg>
