<svg width="149" height="49" viewBox="0 0 149 49" fill="none" xmlns="http://www.w3.org/2000/svg">
<g clip-path="url(#clip0_1039_50542)">
<path d="M105.491 22.6884H102.821C102.511 22.6884 102.26 22.4372 102.26 22.1271V15.5095C102.26 15.1995 102.008 14.9482 101.698 14.9482H97.9437C97.6337 14.9482 97.3824 15.1995 97.3824 15.5095V22.1251C97.3824 22.4351 97.1312 22.6864 96.8212 22.6864H95.8628C95.5528 22.6864 95.3015 22.9376 95.3015 23.2477V26.676C95.3015 26.986 95.5528 27.2373 95.8628 27.2373H96.8212C97.1312 27.2373 97.3824 27.4885 97.3824 27.7985V43.2384C97.3824 43.5484 97.6337 43.7996 97.9437 43.7996H101.698C102.008 43.7996 102.26 43.5484 102.26 43.2384V27.8026C102.26 27.4926 102.511 27.2413 102.821 27.2413H105.491C105.801 27.2413 106.053 26.9901 106.053 26.6801V23.2517C106.053 22.9417 105.801 22.6904 105.491 22.6904V22.6884Z" fill="white"/>
<path d="M122.716 23.0974C121.48 22.4348 120.29 22.1025 119.148 22.1025C118.179 22.1025 117.34 22.2829 116.633 22.6435C116.191 22.8644 115.711 23.2048 115.188 23.6648C114.822 23.9869 114.248 23.7357 114.248 23.2494C114.248 22.9394 113.997 22.6881 113.687 22.6881H109.932C109.622 22.6881 109.371 22.9394 109.371 23.2494V43.2421C109.371 43.5521 109.622 43.8034 109.932 43.8034H113.687C113.997 43.8034 114.248 43.5521 114.248 43.2421V32.8557C114.248 28.8377 115.577 26.8297 118.238 26.8297C118.957 26.8297 119.693 27.0506 120.44 27.4943C120.72 27.6605 121.083 27.5571 121.229 27.2654L122.943 23.837C123.076 23.5695 122.981 23.2393 122.718 23.0974H122.716Z" fill="white"/>
<path d="M147.924 40.4257L146.141 38.0571V23.2495C146.141 22.9394 145.89 22.6882 145.58 22.6882H141.803C141.493 22.6882 141.242 22.9394 141.242 23.2495V23.8431C141.242 24.3173 140.687 24.5827 140.326 24.2767C138.608 22.826 136.709 22.1006 134.63 22.1006C131.783 22.1006 129.413 23.1562 127.52 25.2655C125.626 27.3748 124.679 30.013 124.679 33.1779C124.679 36.3429 125.626 39.0884 127.52 41.2423C129.429 43.3516 131.842 44.4073 134.762 44.4073C136.733 44.4073 138.596 43.7244 140.346 42.3588C140.711 42.0751 141.244 42.3446 141.244 42.8086V43.2402C141.244 43.5502 141.495 43.8014 141.805 43.8014H145.582C145.649 43.8014 145.714 43.7872 145.774 43.765H146.204C146.415 43.765 146.607 43.6474 146.702 43.461L147.985 41.0296C148.086 40.833 148.064 40.5959 147.926 40.4237L147.924 40.4257ZM139.874 38.1888C138.762 39.4329 137.301 40.0529 135.495 40.0529C133.804 40.0529 132.401 39.4106 131.289 38.124C130.205 36.8515 129.664 35.2042 129.664 33.18C129.664 31.2875 130.221 29.6969 131.334 28.4102C132.46 27.1378 133.862 26.5015 135.54 26.5015C137.317 26.5015 138.764 27.1297 139.876 28.388C140.989 29.6746 141.546 31.3077 141.546 33.2874C141.546 35.267 140.989 36.9001 139.876 38.1868L139.874 38.1888Z" fill="white"/>
<path d="M74.9732 22.6885H70.7364C70.5236 22.6885 70.3271 22.8101 70.2339 23.0005L64.8482 33.8509C64.6455 34.2602 64.064 34.2683 63.8492 33.8651L58.0603 22.9863C57.9631 22.804 57.7726 22.6885 57.5639 22.6885H53.1954C52.7678 22.6885 52.4963 23.1484 52.703 23.5213L61.7278 39.8607C61.7359 39.8729 61.742 39.8871 61.7501 39.8992L63.5716 42.6549L61.0449 47.3821C60.8443 47.7569 61.1159 48.2088 61.5414 48.2088H65.8329C66.0436 48.2088 66.2361 48.0912 66.3314 47.9048L68.5035 43.6964C68.6048 43.4998 68.5825 43.2627 68.4447 43.0905L66.5846 40.734L75.4717 23.5071C75.6641 23.1322 75.3926 22.6885 74.9732 22.6885Z" fill="white"/>
<path d="M42.5096 22.1026C40.1389 22.1026 38.212 22.9577 36.7308 24.6678C36.5019 24.9332 36.0885 24.9272 35.8717 24.6516C34.5304 22.9516 32.7838 22.1026 30.6279 22.1026C29.558 22.1026 28.6685 22.2829 27.9613 22.6436C27.5318 22.8685 27.0435 23.2251 26.4984 23.7175C26.1357 24.0437 25.5562 23.7945 25.5562 23.3062V23.2495C25.5562 22.9394 25.305 22.6882 24.995 22.6882H24.1824C24.1541 22.6841 24.1277 22.676 24.0994 22.676H19.8078C19.3843 22.676 19.1128 23.1279 19.3114 23.5027L20.6771 27.8692V43.2422C20.6771 43.5522 20.9283 43.8035 21.2383 43.8035H24.9929C25.3029 43.8035 25.5542 43.5522 25.5542 43.2422V32.8983C25.5542 30.6877 25.8683 29.0688 26.4964 28.0415C27.1245 27.0162 28.1255 26.5015 29.4992 26.5015C31.6673 26.5015 32.7513 28.3798 32.7513 32.1385V43.2402C32.7513 43.5502 33.0026 43.8014 33.3126 43.8014H37.0895C37.3995 43.8014 37.6507 43.5502 37.6507 43.2402V32.8963C37.6507 30.6553 37.9587 29.0303 38.5727 28.0192C39.1866 27.0081 40.1653 26.5015 41.5107 26.5015C42.6677 26.5015 43.4984 26.927 44.003 27.7801C44.4933 28.6189 44.7405 30.0495 44.7405 32.0737V43.2402C44.7405 43.5502 44.9918 43.8014 45.3018 43.8014H49.0786C49.3887 43.8014 49.6399 43.5502 49.6399 43.2402V30.7505C49.6399 24.9839 47.2631 22.1006 42.5076 22.1006L42.5096 22.1026Z" fill="white"/>
<path d="M91.5058 33.5487C90.6102 32.6086 88.8676 31.5833 86.2802 30.4709C84.4019 29.6766 83.4617 28.8742 83.4617 28.0638C83.4617 27.6018 83.6197 27.2229 83.9378 26.925C84.256 26.6292 84.6389 26.4813 85.0867 26.4813C85.9033 26.4813 86.6064 26.9737 87.194 27.9584C87.348 28.2157 87.6762 28.313 87.9396 28.1711L90.9952 26.5441C91.2728 26.3962 91.3721 26.0497 91.2221 25.7721C89.9071 23.3244 87.9842 22.1006 85.4535 22.1006C83.6177 22.1006 82.0575 22.7003 80.7709 23.8999C79.5126 25.0994 78.8845 26.617 78.8845 28.4528C78.8845 29.8408 79.2532 30.9754 79.9908 31.8568C80.5682 32.5498 81.5651 33.2448 82.9835 33.9378C83.4901 34.183 83.9885 34.422 84.4789 34.653C84.9611 34.88 85.4454 35.115 85.9276 35.3561C85.9438 35.3642 85.96 35.3744 85.9762 35.3825C87.2325 36.1302 87.8606 36.9346 87.8606 37.7957C87.8606 39.2992 87.0359 40.0509 85.3886 40.0509C84.564 40.0509 83.8568 39.7774 83.2631 39.2262C83.0058 38.9932 82.6512 38.4968 82.1973 37.7349C82.0494 37.4877 81.7394 37.3905 81.478 37.51L78.2847 38.9892C77.9949 39.1229 77.8815 39.4673 78.0193 39.7551C79.5187 42.8552 81.9461 44.4052 85.3015 44.4052C87.3682 44.4052 89.1311 43.7548 90.592 42.454C92.0954 41.0802 92.8472 39.3762 92.8472 37.3378C92.8472 35.7472 92.3994 34.4828 91.5038 33.5447L91.5058 33.5487Z" fill="white"/>
</g>
<path d="M14.2636 14.6049C14.2788 14.4231 14.4231 14.2788 14.6049 14.2636L22.0396 13.6424C22.4967 13.6042 22.4962 12.935 22.0391 12.8975L14.6054 12.2866C14.4234 12.2717 14.2788 12.1273 14.2636 11.9453L13.6424 4.50033C13.6042 4.04316 12.935 4.04362 12.8975 4.50083L12.2866 11.9447C12.2717 12.127 12.127 12.2717 11.9447 12.2866L4.50084 12.8975C4.04362 12.935 4.04316 13.6042 4.50032 13.6424L11.9453 14.2636C12.1273 14.2788 12.2717 14.4234 12.2866 14.6054L12.8975 22.0391C12.935 22.4962 13.6042 22.4967 13.6424 22.0396L14.2636 14.6049Z" fill="url(#paint0_linear_1039_50542)"/>
<defs>
<linearGradient id="paint0_linear_1039_50542" x1="12.3554" y1="11.6066" x2="16.0995" y2="18.346" gradientUnits="userSpaceOnUse">
<stop stop-color="#00EEE0"/>
<stop offset="0.729167" stop-color="#964BF6"/>
</linearGradient>
<clipPath id="clip0_1039_50542">
<rect width="128.799" height="33.2604" fill="white" transform="translate(19.2456 14.9482)"/>
</clipPath>
</defs>
</svg>
