<svg width="34" height="37" viewBox="0 0 34 37" fill="none" xmlns="http://www.w3.org/2000/svg">
<g clip-path="url(#clip0_1514_4412)">
<path d="M29.5358 28.3191C28.6845 28.3191 27.9621 28.9125 27.7815 29.738L21.0094 29.4155C21.0352 29.2866 21.0481 29.1576 21.0481 29.0286C21.0481 28.7964 21.0094 28.5642 20.9449 28.332L23.4087 26.9131C24.015 27.6613 25.1114 27.816 25.8982 27.2485C26.6851 26.6809 26.8915 25.5974 26.3626 24.7847C25.8337 23.9721 24.7631 23.7141 23.9247 24.1914C23.0862 24.6686 22.7637 25.7264 23.2023 26.5906L20.816 27.9708C20.2484 26.7712 18.8424 26.2294 17.617 26.7325C16.3915 27.2356 15.7724 28.6158 16.2109 29.867L11.7736 30.9376C11.7478 30.3314 11.4898 29.7638 11.0642 29.3252L11.8639 28.2159C12.7669 28.5255 13.7601 28.074 14.1213 27.184C14.4825 26.2939 14.0826 25.2749 13.2183 24.875C12.3541 24.4623 11.3093 24.8105 10.8578 25.649C10.4063 26.4874 10.6901 27.5452 11.5027 28.0482L10.7675 29.0673C10.2515 28.6803 9.59367 28.5126 8.94871 28.59L8.18766 24.243C9.1422 24.0366 9.87745 23.2884 10.0838 22.3468C10.2902 21.3923 9.92905 20.4119 9.1551 19.8314C8.38114 19.2381 7.33631 19.1607 6.48496 19.6122L4.56299 15.8585C4.97576 15.6521 5.31114 15.3296 5.55622 14.9427L7.15572 15.3683C7.14282 15.4586 7.12992 15.536 7.12992 15.6263C7.12992 16.5551 7.83938 17.3419 8.76812 17.4322C9.69686 17.5225 10.5482 16.8904 10.7159 15.9617C10.8836 15.033 10.3289 14.1429 9.42598 13.8978C8.52304 13.6398 7.5814 14.1171 7.24602 14.9943L5.73681 14.5944C5.9432 14.1042 5.9819 13.5624 5.8529 13.0465L10.3031 10.9955C11.1287 12.0274 12.625 12.2467 13.7085 11.4728C14.792 10.6988 15.0758 9.21542 14.3535 8.10609L17.1913 5.33277C17.5396 5.55206 17.9394 5.69395 18.3393 5.71974V6.94517C17.3977 7.04836 16.6882 7.87391 16.7398 8.82845C16.7914 9.78299 17.5783 10.5311 18.5328 10.5311C19.4873 10.5311 20.2742 9.78299 20.3258 8.82845C20.3774 7.87391 19.6808 7.04836 18.7263 6.94517V5.71974C19.0875 5.69395 19.4228 5.59075 19.7324 5.42306L22.8411 8.97034C22.1188 9.92488 22.1704 11.2535 22.9572 12.1435C23.757 13.0336 25.0727 13.24 26.1046 12.6208C27.1366 12.0016 27.5751 10.7504 27.1753 9.6282L28.1427 9.08643C28.7619 9.80879 29.8325 9.93778 30.5935 9.35731C31.3546 8.78975 31.5352 7.71912 31.0063 6.93227C30.4774 6.14542 29.4197 5.90033 28.6071 6.3905C27.7944 6.88067 27.4977 7.91261 27.9363 8.76395L27.0205 9.27992C26.6464 8.59626 25.9756 8.13189 25.2146 8.0158C24.4535 7.89971 23.6667 8.14479 23.112 8.68656L20.0678 5.21668C20.3645 4.98449 20.6096 4.67491 20.7773 4.33953L23.4474 4.7781C23.6538 5.70685 24.5567 6.31311 25.4855 6.14542C26.4271 5.99063 27.0721 5.12638 26.9689 4.18474C26.8657 3.2431 26.0401 2.53365 25.0985 2.58524C24.1439 2.63684 23.4087 3.41079 23.3958 4.36533L20.9192 3.95256C21.2674 2.76583 20.6999 1.50171 19.5776 0.972845C18.4554 0.443979 17.1268 0.830954 16.4431 1.86289C15.7595 2.89482 15.9401 4.27504 16.8688 5.10058L14.1084 7.79651C13.6827 7.30634 13.0764 6.99676 12.4315 6.94517V5.06189C13.3731 4.95869 14.0826 4.13314 14.031 3.17861C13.9794 2.22407 13.2054 1.48881 12.2509 1.48881C11.2964 1.48881 10.5095 2.23697 10.4579 3.1915C10.4063 4.14604 11.1029 4.97159 12.0574 5.07479V6.94517C11.2061 7.00966 10.445 7.51273 10.0451 8.26088C9.64526 9.02194 9.65816 9.92488 10.0838 10.673L5.74971 12.6595C5.59492 12.2854 5.34984 11.9629 5.04026 11.705L6.73005 8.66076C6.88484 8.69946 7.02673 8.72525 7.18152 8.72525C8.09736 8.72525 8.85841 8.0416 8.97451 7.13865C9.0906 6.23571 8.49724 5.39726 7.62009 5.17798C6.73005 4.95869 5.82711 5.43596 5.50463 6.28731C5.18215 7.13866 5.55622 8.09319 6.35597 8.51887L4.71778 11.4857C3.72454 10.8923 2.47332 11.06 1.66067 11.8856C0.860921 12.7111 0.71903 13.9623 1.32529 14.9427C1.93155 15.923 3.11828 16.3616 4.21471 16.0133L6.16249 19.8186C5.67232 20.1797 5.32404 20.7215 5.20795 21.3149L3.78904 20.9021C3.82773 20.7602 3.84063 20.6054 3.84063 20.4635C3.84063 19.5477 3.15698 18.7866 2.25403 18.6834C1.35109 18.5802 0.512643 19.1607 0.293357 20.0507C0.0740705 20.9408 0.56424 21.8437 1.42848 22.1533C2.27983 22.4629 3.23437 22.0888 3.64714 21.2762L5.15635 21.7147C5.15635 21.7534 5.15635 21.7921 5.15635 21.8308C5.15635 22.6822 5.58202 23.469 6.30438 23.9205L5.33694 25.1846C4.62748 24.5525 3.54395 24.5912 2.87319 25.2749C2.20244 25.9586 2.17664 27.0292 2.8216 27.7386C3.46656 28.4481 4.53719 28.5255 5.28534 27.9192C6.03349 27.313 6.16248 26.2423 5.60782 25.4684L6.65265 24.1011C6.96223 24.243 7.31051 24.3075 7.65879 24.3075C7.71039 24.3075 7.76198 24.3075 7.81358 24.2946L8.58753 28.6674C7.5556 28.977 6.83324 29.9186 6.79454 30.9892C6.76875 32.0728 7.4395 33.0402 8.45854 33.4014C9.47758 33.7626 10.6127 33.4272 11.2706 32.5629L14.8823 34.1753C14.8565 34.3043 14.8307 34.4462 14.8307 34.5752C14.8307 35.4911 15.5144 36.265 16.4302 36.3682C17.3461 36.4714 18.1845 35.878 18.3909 34.988C18.5973 34.0979 18.0942 33.195 17.23 32.8854C16.3657 32.5758 15.4112 32.9757 15.0113 33.8013L11.4898 32.2276C11.6446 31.9438 11.7478 31.6342 11.7736 31.3117L16.3657 30.1895C16.714 30.8345 17.3332 31.2859 18.0555 31.4407C18.7779 31.5826 19.526 31.402 20.0936 30.9505L21.8092 32.434C21.4093 33.3111 21.7576 34.343 22.6089 34.7816C23.4603 35.2331 24.5051 34.9364 24.9953 34.1108C25.4855 33.2853 25.2533 32.2276 24.4664 31.6858C23.6667 31.144 22.596 31.3246 22.0156 32.0857L20.3774 30.6797C20.6225 30.4217 20.8031 30.0992 20.9192 29.7638L27.7428 30.0992C27.7557 31.0924 28.5555 31.8793 29.5487 31.8793C30.5419 31.8793 31.3417 31.0666 31.3288 30.0863C31.3288 29.1189 30.529 28.3191 29.5358 28.3191Z" fill="#FF473E"/>
</g>
<defs>
<clipPath id="clip0_1514_4412">
<rect width="33.6276" height="35.6352" fill="white" transform="translate(0.241211 0.625)"/>
</clipPath>
</defs>
</svg>
