<svg width="14" height="14" viewBox="0 0 14 14" fill="none" xmlns="http://www.w3.org/2000/svg">
<path d="M9.71352 4.75293C10.7709 4.75293 11.785 5.17298 12.5327 5.92068C13.2804 6.66838 13.7005 7.68248 13.7005 8.73988V13.3913H11.0425V8.73988C11.0425 8.38742 10.9025 8.04938 10.6533 7.80015C10.404 7.55092 10.066 7.4109 9.71352 7.4109C9.36105 7.4109 9.02302 7.55092 8.77378 7.80015C8.52455 8.04938 8.38453 8.38742 8.38453 8.73988V13.3913H5.72656V8.73988C5.72656 7.68248 6.14662 6.66838 6.89431 5.92068C7.64201 5.17298 8.65611 4.75293 9.71352 4.75293Z" fill="#9363FF"/>
<path d="M3.06715 5.41797H0.40918V13.3919H3.06715V5.41797Z" fill="#9363FF"/>
<path d="M1.73816 3.42506C2.47214 3.42506 3.06715 2.83005 3.06715 2.09607C3.06715 1.3621 2.47214 0.76709 1.73816 0.76709C1.00419 0.76709 0.40918 1.3621 0.40918 2.09607C0.40918 2.83005 1.00419 3.42506 1.73816 3.42506Z" fill="#9363FF"/>
</svg>
