<svg width="17" height="18" viewBox="0 0 17 18" fill="none" xmlns="http://www.w3.org/2000/svg">
<path d="M13.8 8.19922H2.6C1.71634 8.19922 1 8.91556 1 9.79922V15.3992C1 16.2829 1.71634 16.9992 2.6 16.9992H13.8C14.6837 16.9992 15.4 16.2829 15.4 15.3992V9.79922C15.4 8.91556 14.6837 8.19922 13.8 8.19922Z" stroke="white" stroke-width="1.66667" stroke-linecap="round" stroke-linejoin="round"/>
<path d="M4.19922 8.2V5C4.19922 3.93913 4.62065 2.92172 5.37079 2.17157C6.12094 1.42143 7.13835 1 8.19922 1C9.26008 1 10.2775 1.42143 11.0276 2.17157C11.7778 2.92172 12.1992 3.93913 12.1992 5V8.2" stroke="white" stroke-width="1.66667" stroke-linecap="round" stroke-linejoin="round"/>
</svg>
