<svg width="30" height="39" viewBox="0 0 30 39" fill="none" xmlns="http://www.w3.org/2000/svg">
<path d="M27.3989 28.3843L25.6892 34.7369L22.333 33.7282L27.3989 28.3843Z" fill="#E4761B" stroke="#E4761B" stroke-width="0.312451"/>
<path d="M22.333 33.7282L25.5701 28.854L27.3989 28.3843L22.333 33.7282Z" fill="#E4761B" stroke="#E4761B" stroke-width="0.312451"/>
<path d="M24.8838 23.5938L27.3992 28.3834L25.5705 28.8531L24.8838 23.5938ZM24.8838 23.5938L26.5024 22.3618L27.3992 28.3834L24.8838 23.5938Z" fill="#F6851B" stroke="#F6851B" stroke-width="0.312451"/>
<path d="M22.8262 19.9763L27.4786 17.8818L27.2474 19.0292L22.8262 19.9763ZM27.1003 20.4075L22.8262 19.9763L27.2474 19.0292L27.1003 20.4075Z" fill="#763D16" stroke="#763D16" stroke-width="0.312451"/>
<path d="M27.1003 20.4075L26.5047 22.3634L22.8262 19.9763L27.1003 20.4075ZM28.0322 18.3669L27.2474 19.0292L27.4786 17.8818L28.0322 18.3669ZM27.1003 20.4075L27.2474 19.0292L27.871 19.599L27.1003 20.4075Z" fill="#763D16" stroke="#763D16" stroke-width="0.312451"/>
<path d="M18.7246 32.1807L19.8877 32.5888L22.3331 33.7284L18.7246 32.1807Z" fill="#E2761B" stroke="#E2761B" stroke-width="0.312451"/>
<path d="M26.5024 22.3626L27.098 20.4068L27.6095 20.838L26.5024 22.3626ZM26.5024 22.3626L21.6748 20.6147L22.8239 19.9756L26.5024 22.3626Z" fill="#763D16" stroke="#763D16" stroke-width="0.312451"/>
<path d="M23.973 13.9785L22.8239 19.977L21.6748 20.6161L23.973 13.9785Z" fill="#763D16" stroke="#763D16" stroke-width="0.312451"/>
<path d="M27.4786 17.8825L22.8262 19.977L23.9753 13.9785L27.4786 17.8825Z" fill="#763D16" stroke="#763D16" stroke-width="0.312451"/>
<path d="M23.9727 13.9778L28.8283 13.3618L27.476 17.8818L23.9727 13.9778Z" fill="#763D16" stroke="#763D16" stroke-width="0.312451"/>
<path d="M26.5024 22.3627L24.8839 23.5947L21.6748 20.6147L26.5024 22.3627Z" fill="#F6851B" stroke="#F6851B" stroke-width="0.312451"/>
<path d="M27.5757 10.1338L27.847 15.7082L21.5811 16.5032L27.5757 10.1338Z" fill="#763D16" stroke="#763D16" stroke-width="0.403198"/>
<path d="M28.6185 9.0415L18.9142 16.7956L18.7881 11.5364L28.6185 9.0415Z" fill="#E2761B" stroke="#E2761B" stroke-width="0.312451"/>
<path d="M11.5703 10.9062L18.7872 11.5377L18.9134 16.7969L11.5703 10.9062Z" fill="#F6851B" stroke="#F6851B" stroke-width="0.312451"/>
<path d="M21.6747 20.6161L18.9141 16.7968L23.9729 13.9785L21.6747 20.6161Z" fill="#763D16" stroke="#763D16" stroke-width="0.312451"/>
<path d="M21.6742 20.6147L24.8833 23.5947L20.3779 24.1414L21.6742 20.6147Z" fill="#E4761B" stroke="#E4761B" stroke-width="0.312451"/>
<path d="M20.3785 24.1419L18.9141 16.7959L21.6747 20.6152L20.3785 24.1419Z" fill="#E4761B" stroke="#E4761B" stroke-width="0.312451"/>
<path d="M23.9729 13.9773L18.9141 16.7956L28.6184 9.0415L23.9729 13.9773Z" fill="#763D16" stroke="#763D16" stroke-width="0.312451"/>
<path d="M11.6344 33.6051L13.9256 36.2309L10.8076 33.1123L11.6344 33.6051Z" fill="#C0AD9E" stroke="#C0AD9E" stroke-width="0.312451"/>
<path d="M22.333 33.7282L23.4191 29.1928L25.5701 28.854L22.333 33.7282Z" fill="#CD6116" stroke="#CD6116" stroke-width="0.312451"/>
<path d="M25.5698 28.8554L23.4187 29.1942L24.8831 23.5962L25.5698 28.8554ZM18.9134 16.7969L15.0527 16.6583L11.5703 10.9062L18.9134 16.7969Z" fill="#F6851B" stroke="#F6851B" stroke-width="0.312451"/>
<path d="M24.8833 23.5947L23.4189 29.1928L23.2998 26.4592L24.8833 23.5947Z" fill="#E4751F" stroke="#E4751F" stroke-width="0.312451"/>
<path d="M20.3779 24.1414L24.8833 23.5947L23.2997 26.4592L20.3779 24.1414Z" fill="#CD6116" stroke="#CD6116" stroke-width="0.312451"/>
<path d="M15.0547 16.6587L18.9154 16.7973L20.3798 24.1433L15.0547 16.6587Z" fill="#F6851B" stroke="#F6851B" stroke-width="0.312451"/>
<path d="M15.0539 16.6575L4.63488 6.06201L11.5715 10.9054L15.0539 16.6575ZM11.5645 35.2149L2.51184 38.295L0.704102 30.7103L11.5645 35.2149Z" fill="#E4761B" stroke="#E4761B" stroke-width="0.312451"/>
<path d="M4.55566 22.9483L8.96803 19.1426L12.6661 20.0866L4.55566 22.9483Z" fill="#763D16" stroke="#763D16" stroke-width="0.403198"/>
<path d="M3.48145 19.7984L8.96977 19.1426L4.55741 22.9483L3.48145 19.7984Z" fill="#763D16" stroke="#763D16" stroke-width="0.403198"/>
<path d="M23.2997 26.4594L21.534 25.4814L20.3779 24.1416L23.2997 26.4594Z" fill="#CD6116" stroke="#CD6116" stroke-width="0.312451"/>
<path d="M3.47766 19.8L3.08887 17.5444L8.96599 19.1442L3.47766 19.8Z" fill="#763D16" stroke="#763D16" stroke-width="0.403198"/>
<path d="M2.53125 15.8896L3.26228 14.062L8.37953 11.5034L15.3244 16.6207L10.5726 19.9103L5.45539 19.5448L3.26228 17.7172L2.53125 15.8896Z" fill="#763D16"/>
<path d="M21.1689 27.6837L21.5333 25.4814L23.299 26.4594L21.1689 27.6837Z" fill="#233447" stroke="#233447" stroke-width="0.312451"/>
<path d="M23.4181 29.1945L21.1689 27.6853L23.299 26.4609L23.4181 29.1945Z" fill="#F6851B" stroke="#F6851B" stroke-width="0.312451"/>
<path d="M9.97168 20.6474L15.0516 16.6587L17.3147 24.2588L9.97168 20.6474ZM17.3147 24.2588L10.294 24.0971L9.97168 20.6474L17.3147 24.2588Z" fill="#E4761B" stroke="#E4761B" stroke-width="0.312451"/>
<path d="M3.68848 22.865L9.97351 20.6474L10.2958 24.0971L3.68848 22.865ZM20.3785 24.1433L17.3166 24.2588L15.0534 16.6587L20.3785 24.1433Z" fill="#F6851B" stroke="#F6851B" stroke-width="0.312451"/>
<path d="M21.534 25.4814L21.1697 27.6837L20.3779 24.1416L21.534 25.4814Z" fill="#CD6116" stroke="#CD6116" stroke-width="0.312451"/>
<path d="M4.63477 6.06201L15.0538 16.6575L8.64261 12.9537L4.63477 6.06201Z" fill="#763D16" stroke="#763D16" stroke-width="0.312451"/>
<path d="M0.704102 30.7114L9.49054 30.311L11.5645 35.2161L0.704102 30.7114Z" fill="#E4761B" stroke="#E4761B" stroke-width="0.312451"/>
<path d="M11.5652 35.2146L9.49121 30.3096L13.8074 30.0786L11.5652 35.2146Z" fill="#CD6116" stroke="#CD6116" stroke-width="0.312451"/>
<path d="M21.1707 27.6836L23.4199 29.1928L24.6601 32.4038L21.1707 27.6836ZM10.2963 24.0953L0.704102 30.7098L3.68897 22.8633L10.2963 24.0953ZM9.49053 30.3094L0.704102 30.7098L10.2963 24.0953L9.49053 30.3094ZM20.379 24.1415L20.9535 26.4362L18.1789 26.6133L20.379 24.1415ZM18.1789 26.6133L17.317 24.257L20.379 24.1415L18.1789 26.6133Z" fill="#F6851B" stroke="#F6851B" stroke-width="0.312451"/>
<path d="M13.9257 36.2308L11.5645 35.2144L19.7763 36.7313L13.9257 36.2308Z" fill="#C0AD9E" stroke="#C0AD9E" stroke-width="0.312451"/>
<path d="M4.55632 22.9487L2.82031 20.5043L3.48036 19.7988L4.55632 22.9487Z" fill="#763D16" stroke="#763D16" stroke-width="0.403198"/>
<path d="M20.7082 35.6071L19.7763 36.7313L11.5645 35.2144L20.7082 35.6071Z" fill="#D7C1B3" stroke="#D7C1B3" stroke-width="0.312451"/>
<path d="M21.1496 32.8507L11.5645 35.2146L13.8066 30.0786L21.1496 32.8507Z" fill="#E4761B" stroke="#E4761B" stroke-width="0.312451"/>
<path d="M11.5645 35.215L21.1496 32.8511L20.7082 35.6077L11.5645 35.215Z" fill="#D7C1B3" stroke="#D7C1B3" stroke-width="0.312451"/>
<path d="M2.60903 15.6461L2.20215 8.00488L10.9455 10.1611L2.60903 15.6461ZM3.47703 19.7996L2.27448 18.4582L3.08824 17.544L3.47703 19.7996Z" fill="#763D16" stroke="#763D16" stroke-width="0.403198"/>
<path d="M15.748 25.7829L17.3175 24.2583L17.0933 27.9852L15.748 25.7829Z" fill="#CD6116" stroke="#CD6116" stroke-width="0.312451"/>
<path d="M17.3166 24.2583L15.7471 25.7829L13.4629 27.0843L17.3166 24.2583Z" fill="#CD6116" stroke="#CD6116" stroke-width="0.312451"/>
<path d="M24.6583 32.4043L24.2309 32.0578L21.1689 27.6841L24.6583 32.4043Z" fill="#F6851B" stroke="#F6851B" stroke-width="0.312451"/>
<path d="M13.4629 27.0844L10.2959 24.0967L17.3166 24.2584L13.4629 27.0844Z" fill="#CD6116" stroke="#CD6116" stroke-width="0.312451"/>
<path d="M17.0918 27.9852L17.316 24.2583L18.1778 26.6146L17.0918 27.9852Z" fill="#E4751F" stroke="#E4751F" stroke-width="0.312451"/>
<path d="M1.87891 16.4017L2.61129 15.6465L3.0905 17.5444L1.87891 16.4017Z" fill="#763D16" stroke="#763D16" stroke-width="0.403198"/>
<path d="M17.0924 27.984L13.4629 27.0831L15.7471 25.7817L17.0924 27.984Z" fill="#233447" stroke="#233447" stroke-width="0.312451"/>
<path d="M10.9455 10.1623L2.20215 8.00606L5.77362 1.26904L10.9455 10.1623Z" fill="#763D16" stroke="#763D16" stroke-width="0.403198"/>
<path d="M19.7764 36.732L20.1618 37.887L13.9258 36.2314L19.7764 36.732Z" fill="#C0AD9E" stroke="#C0AD9E" stroke-width="0.312451"/>
<path d="M13.8062 30.0789L13.4629 27.0835L17.0924 27.9844L13.8062 30.0789Z" fill="#F6851B" stroke="#F6851B" stroke-width="0.312451"/>
<path d="M10.2959 24.0967L13.4629 27.0844L13.8063 30.0797L10.2959 24.0967Z" fill="#E4751F" stroke="#E4751F" stroke-width="0.312451"/>
<path d="M18.1796 26.6146L20.9542 26.4375L24.2334 32.0587L18.1796 26.6146ZM10.297 24.0967L13.8074 30.0797L9.49121 30.3107L10.297 24.0967Z" fill="#F6851B" stroke="#F6851B" stroke-width="0.312451"/>
<path d="M18.1778 26.6147L21.6252 32.3822L17.0918 27.9854L18.1778 26.6147Z" fill="#E4751F" stroke="#E4751F" stroke-width="0.312451"/>
<path d="M17.0918 27.9849L21.6252 32.3817L21.1487 32.8514L17.0918 27.9849Z" fill="#F6851B" stroke="#F6851B" stroke-width="0.312451"/>
<path d="M21.1497 32.8519L13.8066 30.0798L17.0928 27.9854L21.1497 32.8519ZM24.2327 32.0588L21.6261 32.3822L18.1788 26.6147L24.2327 32.0588Z" fill="#F6851B" stroke="#F6851B" stroke-width="0.312451"/>
<path d="M24.9193 34.7676L23.7982 37.2393L20.1617 37.8861L24.9193 34.7676ZM20.1617 37.8861L19.7764 36.7311L20.7083 35.6069L20.1617 37.8861Z" fill="#C0AD9E" stroke="#C0AD9E" stroke-width="0.312451"/>
<path d="M20.7067 35.6069L21.3933 35.3066L20.1602 37.8861L20.7067 35.6069ZM20.1602 37.8861L21.3933 35.3066L24.9177 34.7676L20.1602 37.8861Z" fill="#C0AD9E" stroke="#C0AD9E" stroke-width="0.312451"/>
<path d="M24.2323 32.0581L25.0942 32.6356L22.4736 32.9821L24.2323 32.0581Z" fill="#161616" stroke="#161616" stroke-width="0.312451"/>
<path d="M22.4738 32.9821L21.626 32.3815L24.2325 32.0581L22.4738 32.9821ZM22.1725 33.4364L25.3606 33.0129L24.9191 34.7686L22.1725 33.4364Z" fill="#161616" stroke="#161616" stroke-width="0.312451"/>
<path d="M24.919 34.7684L21.3947 35.3074L22.1724 33.4363L24.919 34.7684ZM21.3947 35.3074L20.708 35.6077L21.1494 32.8511L21.3947 35.3074ZM21.1494 32.8511L21.6259 32.3813L22.4737 32.982L21.1494 32.8511ZM25.0942 32.6355L25.3605 33.0128L22.1724 33.4363L25.0942 32.6355Z" fill="#161616" stroke="#161616" stroke-width="0.312451"/>
<path d="M22.1714 33.437L22.4727 32.9827L25.0932 32.6362L22.1714 33.437ZM21.1484 32.8518L22.1714 33.437L21.3937 35.3082L21.1484 32.8518Z" fill="#161616" stroke="#161616" stroke-width="0.312451"/>
<path d="M22.4727 32.982L22.1714 33.4363L21.1484 32.8511L22.4727 32.982Z" fill="#161616" stroke="#161616" stroke-width="0.312451"/>
</svg>
