<svg width="176" height="176" viewBox="0 0 176 176" fill="none" xmlns="http://www.w3.org/2000/svg">
<ellipse cx="144.322" cy="107.729" rx="2.03292" ry="2.03293" transform="rotate(47.6757 144.322 107.729)" fill="#FF0202"/>
<ellipse cx="94.4832" cy="147.311" rx="2.03292" ry="2.03293" transform="rotate(47.6757 94.4832 147.311)" fill="#FF0202"/>
<ellipse cx="36.7415" cy="118.255" rx="2.03292" ry="2.03293" transform="rotate(47.6757 36.7415 118.255)" fill="#FF0202"/>
<ellipse cx="32.4056" cy="68.5164" rx="2.03292" ry="2.03293" transform="rotate(47.6757 32.4056 68.5164)" fill="#FF0202"/>
<ellipse cx="84.2227" cy="27.907" rx="2.03292" ry="2.03293" transform="rotate(47.6757 84.2227 27.907)" fill="#FF0202"/>
<g filter="url(#filter0_b_917_1064)">
<circle cx="88.4655" cy="88.1646" r="46.2008" transform="rotate(47.6757 88.4655 88.1646)" fill="white" fill-opacity="0.01"/>
<circle cx="88.4655" cy="88.1646" r="45.8363" transform="rotate(47.6757 88.4655 88.1646)" stroke="url(#paint0_linear_917_1064)" stroke-width="0.729182" stroke-dasharray="5.1 5.1"/>
</g>
<path d="M108.231 35.2503L101.058 32.947L100.394 33.9457L98.0073 33.1767L102.219 26.9125L110.818 29.676L110.586 37.2191L108.191 36.4456L108.231 35.2503ZM108.299 33.1542L108.382 30.9913L103.412 29.3982L102.215 31.1991L108.299 33.1542Z" fill="#FF0202"/>
<path d="M122.385 40.9019L124.554 42.2934C123.281 43.8042 121.149 43.953 119.181 42.6843L115.375 40.2414C113.296 38.9004 112.54 36.6366 113.754 34.7479C114.963 32.8675 117.304 32.5764 119.432 33.9449L123.233 36.396C125.202 37.6647 125.952 39.6669 125.102 41.4454L122.933 40.0539C123.079 39.403 122.801 38.6444 122.087 38.1824L118.286 35.7313C117.38 35.151 116.379 35.359 115.89 36.1211C115.347 36.9608 115.577 37.9617 116.483 38.5419L120.285 40.993C121.006 41.4596 121.856 41.3291 122.393 40.9065L122.385 40.9019Z" fill="#FF0202"/>
<path d="M133.716 52.0626L135.423 53.9939C133.793 55.101 131.69 54.6735 130.144 52.9181L127.151 49.538C125.508 47.6854 125.403 45.2991 127.088 43.8026C128.765 42.3225 131.094 42.6715 132.769 44.5635L135.762 47.9436C137.313 49.6908 137.488 51.8358 136.187 53.3201L134.479 51.3888C134.805 50.8048 134.739 49.9926 134.169 49.3515L131.176 45.9715C130.469 45.1684 129.444 45.0928 128.763 45.6945C128.013 46.3647 127.963 47.3826 128.67 48.1857L131.663 51.5658C132.233 52.2068 133.081 52.3123 133.716 52.0626Z" fill="#FF0202"/>
<path d="M140.062 57.8267L139.414 58.1559L142.864 65.034L141.178 65.873L137.728 58.9949L137.099 59.3122L140.898 66.8804L139.134 67.7623L134.218 57.9773L140.709 54.7281L145.624 64.513L143.86 65.3949L140.062 57.8267Z" fill="#FF0202"/>
<path d="M144.902 81.2445C143.442 81.5624 142.238 80.6443 141.627 78.0625L140.63 73.4991C139.957 70.4086 141.424 69.5556 142.37 69.3494L142.899 71.7884C142.559 71.9334 142.474 72.4354 142.642 73.2185L143.607 77.6245C143.8 78.4973 144.039 78.8241 144.312 78.7605C144.52 78.7151 144.644 78.493 144.525 77.9313L143.294 72.2994C142.872 70.3836 143.472 69.2303 144.724 68.9577C145.963 68.6888 147.361 69.2954 147.984 72.0126L148.966 76.5037C149.655 79.6243 147.963 80.3956 147.273 80.5501L146.744 78.111C147.032 78.0017 147.216 77.6517 147.044 76.8558L146.076 72.4369C145.876 71.5175 145.596 71.3616 145.387 71.407C145.179 71.4524 145.055 71.6745 145.163 72.1768L146.437 78.0045C146.841 79.8352 146.162 80.9765 144.91 81.249L144.902 81.2445Z" fill="#FF0202"/>
<path d="M144.63 96.1243C143.135 96.0572 142.201 94.8687 142.276 92.2165L142.478 87.5552C142.617 84.4001 144.248 83.9507 145.224 83.9987L145.118 86.4935C144.753 86.5488 144.539 87.0113 144.503 87.8106L144.313 92.3164C144.269 93.2081 144.425 93.586 144.699 93.5983C144.909 93.6078 145.086 93.426 145.116 92.8499L145.366 87.0948C145.452 85.1386 146.321 84.1787 147.605 84.2363C148.868 84.293 150.07 85.2322 149.972 88.0224L149.778 92.6124C149.641 95.8014 147.814 96.1198 147.111 96.084L147.217 93.5892C147.518 93.5521 147.788 93.2607 147.828 92.4532L148.028 87.9309C148.065 86.9926 147.843 86.7719 147.624 86.7578C147.406 86.7438 147.237 86.9301 147.21 87.4432L146.956 93.4004C146.873 95.2724 145.934 96.2039 144.65 96.1463L144.63 96.1243Z" fill="#FF0202"/>
<path d="M130.347 128.083C128.568 126.726 128.595 124.392 130.091 122.423L134.935 116.069L140.712 120.472L135.864 126.834C134.368 128.803 132.13 129.453 130.343 128.091L130.347 128.083ZM131.878 126.069C132.621 126.634 133.65 126.453 134.285 125.621L137.638 121.228L135.035 119.239L131.682 123.633C131.059 124.482 131.152 125.514 131.887 126.074L131.878 126.069Z" fill="white"/>
<path d="M119.064 134.127L125.012 129.509L124.563 128.397L126.541 126.859L129.34 133.859L122.2 139.398L116.1 134.955L118.091 133.413L119.055 134.122L119.064 134.127ZM120.755 135.37L122.499 136.654L126.621 133.455L125.807 131.45L120.759 135.362L120.755 135.37Z" fill="white"/>
<path d="M105.272 141.908L104.48 140.077L114.325 135.84L117.198 142.494L114.915 143.475L112.834 138.652L105.272 141.908Z" fill="white"/>
<path d="M70.2787 143.81C70.7047 141.612 72.8155 140.611 75.2409 141.078L83.0982 142.598L81.7127 149.714L73.8554 148.194C71.4218 147.722 69.8481 146.016 70.2787 143.81ZM72.7627 144.288C72.5874 145.203 73.1999 146.04 74.241 146.243L79.6647 147.292L80.2872 144.082L74.8635 143.034C73.8297 142.856 72.9418 143.386 72.771 144.293L72.7627 144.288Z" fill="white"/>
<path d="M59.879 136.4L66.6636 139.672L67.4621 138.781L69.7252 139.869L64.6943 145.493L56.5595 141.566L57.8326 134.129L60.1039 135.222L59.9 136.401L59.879 136.4ZM59.5134 138.47L59.1369 140.599L63.8359 142.871L65.2653 141.253L59.5089 138.478L59.5134 138.47Z" fill="white"/>
<path d="M44.3273 127.545C45.7943 125.841 48.1414 125.887 50.0591 127.537L53.4885 130.482C55.3614 132.096 55.7973 134.451 54.3303 136.155C52.8678 137.851 50.5162 137.813 48.5985 136.163L45.1691 133.219C43.2513 131.569 42.8649 129.242 44.3273 127.545ZM46.2451 129.195C45.6535 129.89 45.7434 130.909 46.5518 131.607L49.9813 134.552C50.7979 135.255 51.8173 135.187 52.4171 134.497C53.0215 133.799 52.9188 132.783 52.1103 132.085L48.6809 129.14C47.8643 128.438 46.8494 128.497 46.2451 129.195Z" fill="white"/>
<path d="M25.593 95.8834L33.641 98.2428L34.7917 102.935L34.7533 102.946L28.7414 108.725L28.0971 106.125L32.4892 101.976L32.043 100.144L26.2281 98.5001L25.5884 95.8917L25.593 95.8834Z" fill="white"/>
<path d="M29.6038 82.0948L29.6668 79.5221C31.6193 79.8121 32.8662 81.5626 32.8052 83.8993L32.6988 88.4089C32.6405 90.8764 31.0919 92.7079 28.8465 92.6534C26.6093 92.6035 25.1345 90.7585 25.1957 88.2279L25.3021 83.7183C25.3548 81.377 26.6773 79.6998 28.6475 79.4932L28.5845 82.0658C27.9511 82.2734 27.4465 82.9083 27.4212 83.7671L27.3149 88.2767C27.2885 89.3504 27.9853 90.0941 28.8994 90.1183C29.9023 90.138 30.6338 89.4248 30.6602 88.3511L30.7665 83.8415C30.7918 82.9827 30.2304 82.3252 29.5955 82.0902L29.6038 82.0948Z" fill="white"/>
<path d="M41.5556 45.184L47.3604 49.5376L45.8951 51.4908L37.7134 54.8327L41.3425 57.5543L39.8772 59.5075L34.0723 55.1539L35.5377 53.2007L43.7276 49.8634L40.0903 47.1372L41.5556 45.184Z" fill="white"/>
<path d="M47.7805 42.1752L48.404 42.9535L54.4436 38.1708L55.666 39.7136L49.6264 44.4964L51.0728 46.3148L49.1236 47.8586L44.6218 42.1725L53.2175 35.3759L54.4399 36.9187L47.8015 42.1762L47.7805 42.1752Z" fill="white"/>
<path d="M68.8674 29.9754L64.3944 31.9454L66.5141 36.7573L64.2432 37.7555L62.1235 32.9435L57.6505 34.9135L56.8455 33.0859L68.0671 28.1396L68.872 29.9672L68.8674 29.9754Z" fill="white"/>
<path d="M55.4844 82.6001L58.1 82.6001L59.0066 89.3919L59.1404 89.3919L60.3739 82.6001L62.3356 82.6001L60.7157 91.8887L56.7922 91.8887L55.4844 82.6001ZM68.102 82.6001L66.7793 91.8887L62.8558 91.8887L61.2507 82.6001L63.1976 82.6001L64.446 89.3919L64.5798 89.3919L65.4863 82.6001L68.102 82.6001ZM73.4733 88.203L73.4733 89.7337L77.0995 89.7337L77.0995 91.8887L70.8576 91.8887L70.8576 82.6001L77.1441 82.6001L76.8172 84.755L73.4733 84.755L73.4733 86.2858L76.5645 86.2858L76.5645 88.203L73.4733 88.203ZM80.0504 82.6001L84.1077 82.6001C85.148 82.6001 85.896 82.7933 86.3518 83.1797C86.8175 83.5562 87.0503 84.1705 87.0503 85.0225C87.0503 85.4783 86.9611 85.8944 86.7828 86.2709C86.6144 86.6474 86.3716 86.9348 86.0546 87.1329L86.0546 87.2221C86.4806 87.3311 86.8274 87.5788 87.0949 87.9652C87.3723 88.3417 87.511 88.7776 87.511 89.273C87.511 90.1152 87.2633 90.7641 86.7679 91.2199C86.2725 91.6657 85.5542 91.8887 84.613 91.8887L80.0504 91.8887L80.0504 82.6001ZM82.6661 91.0713L81.5812 89.9864L84.0334 89.9864C84.3306 89.9864 84.5387 89.917 84.6576 89.7783C84.7765 89.6297 84.8359 89.377 84.8359 89.0204C84.8359 88.6835 84.7765 88.4457 84.6576 88.307C84.5486 88.1683 84.3455 88.0989 84.0482 88.0989L82.4283 88.0989L82.4283 86.2709L83.6767 86.2709C83.9739 86.2709 84.1721 86.2115 84.2712 86.0926C84.3801 85.9638 84.4346 85.726 84.4346 85.3792C84.4346 85.0324 84.3851 84.7996 84.286 84.6807C84.1869 84.5618 83.9888 84.5024 83.6915 84.5024L81.5812 84.5024L82.6661 83.4175L82.6661 91.0713Z" fill="white"/>
<path d="M97.8364 92.0967C97.2914 92.0967 96.7069 92.0571 96.0827 91.9778C95.4684 91.8986 94.864 91.7896 94.2695 91.6509L94.6113 89.5851C95.0176 89.6743 95.4585 89.7436 95.934 89.7932C96.4195 89.8427 96.8753 89.8675 97.3013 89.8675C97.985 89.8675 98.4804 89.8328 98.7875 89.7634L98.7875 88.307L96.2164 87.9206L96.2164 86.5384L98.7875 86.1074L98.7875 84.7104C98.5002 84.6411 98.0494 84.6064 97.4351 84.6064C97.009 84.6064 96.5582 84.6312 96.0827 84.6807C95.617 84.7303 95.181 84.7996 94.7748 84.8888L94.433 82.8379C95.0275 82.6892 95.6319 82.5753 96.2461 82.496C96.8703 82.4168 97.4499 82.3771 97.985 82.3771C99.2036 82.3771 100.11 82.5753 100.705 82.9716C101.299 83.358 101.596 83.9624 101.596 84.7847C101.596 85.3495 101.477 85.835 101.24 86.2412C101.012 86.6375 100.665 86.9546 100.199 87.1924L100.199 87.2667C100.675 87.4648 101.027 87.7472 101.255 88.1138C101.482 88.4804 101.596 88.9312 101.596 89.4662C101.596 90.0706 101.463 90.5709 101.195 90.9672C100.938 91.3537 100.531 91.641 99.9764 91.8292C99.4216 92.0076 98.7082 92.0967 97.8364 92.0967ZM104.122 90.5511C104.122 90.0359 104.217 89.6644 104.405 89.4365C104.593 89.2086 104.984 89.0947 105.579 89.0947C106.173 89.0947 106.565 89.2086 106.753 89.4365C106.941 89.6644 107.035 90.0359 107.035 90.5511C107.035 91.0663 106.941 91.4329 106.753 91.6509C106.565 91.8689 106.173 91.9778 105.579 91.9778C104.984 91.9778 104.593 91.8689 104.405 91.6509C104.217 91.4329 104.122 91.0663 104.122 90.5511ZM109.705 87.2518C109.705 86.3006 109.769 85.513 109.898 84.8888C110.037 84.2547 110.265 83.7543 110.582 83.3877C110.909 83.0212 111.345 82.7635 111.89 82.6149C112.444 82.4564 113.138 82.3771 113.97 82.3771C114.802 82.3771 115.491 82.4564 116.036 82.6149C116.581 82.7635 117.012 83.0212 117.329 83.3877C117.646 83.7444 117.874 84.2398 118.013 84.8739C118.151 85.4981 118.221 86.2907 118.221 87.2518C118.221 88.0147 118.176 88.6736 118.087 89.2284C118.008 89.7833 117.874 90.2489 117.686 90.6254C117.497 90.992 117.24 91.2843 116.913 91.5023C116.586 91.7202 116.18 91.8738 115.694 91.963C115.209 92.0621 114.634 92.1116 113.97 92.1116C113.296 92.1116 112.717 92.0621 112.231 91.963C111.756 91.8738 111.355 91.7202 111.028 91.5023C110.701 91.2744 110.438 90.9772 110.24 90.6106C110.052 90.2341 109.913 89.7733 109.824 89.2284C109.745 88.6736 109.705 88.0147 109.705 87.2518ZM112.514 84.6064L112.514 89.0947C112.514 89.4117 112.578 89.6247 112.707 89.7337C112.846 89.8328 113.128 89.8823 113.554 89.8823L115.412 89.8823L115.412 85.3941C115.412 85.077 115.333 84.869 115.174 84.7699C115.025 84.6609 114.723 84.6064 114.267 84.6064L112.514 84.6064Z" fill="#FF2D2D"/>
<defs>
<filter id="filter0_b_917_1064" x="31.4786" y="31.1776" width="113.974" height="113.974" filterUnits="userSpaceOnUse" color-interpolation-filters="sRGB">
<feFlood flood-opacity="0" result="BackgroundImageFix"/>
<feGaussianBlur in="BackgroundImage" stdDeviation="5.39291"/>
<feComposite in2="SourceAlpha" operator="in" result="effect1_backgroundBlur_917_1064"/>
<feBlend mode="normal" in="SourceGraphic" in2="effect1_backgroundBlur_917_1064" result="shape"/>
</filter>
<linearGradient id="paint0_linear_917_1064" x1="88.4655" y1="41.9637" x2="88.4655" y2="134.365" gradientUnits="userSpaceOnUse">
<stop stop-color="#FF0202"/>
<stop offset="1" stop-color="white"/>
</linearGradient>
</defs>
</svg>
