<svg width="134" height="44" viewBox="0 0 134 44" fill="none" xmlns="http://www.w3.org/2000/svg">
<g clip-path="url(#clip0_1237_2830)">
<path d="M45.0612 9.76785C45.4925 12.1996 47.5854 13.9625 50.0227 13.9508C51.525 13.9713 52.9521 13.2879 53.887 12.094H58.4027C57.627 13.942 56.032 15.262 54.657 16.2007C53.2792 17.1628 51.6408 17.6703 49.9648 17.6527C45.1973 17.6732 41.3184 13.7719 41.301 8.94065C41.301 8.91718 41.301 8.89372 41.301 8.87025C41.301 4.15052 44.9454 -0.000148063 49.9069 -0.000148063C52.2052 -0.0412147 54.4226 0.879852 56.032 2.54305C58.0351 4.63159 59.0685 6.81692 58.7414 9.72385L45.0641 9.76785H45.0612ZM54.7062 6.97825C53.9681 5.00999 52.0981 3.71638 50.0227 3.73398C47.9414 3.72225 46.0714 5.01292 45.3188 6.97825H54.7091H54.7062Z" fill="white"/>
<path d="M68.838 5.11867C68.8091 4.2416 68.2562 3.212 66.7336 3.212C65.4194 3.212 64.7913 4.05973 64.7913 4.87813C64.8202 5.93707 66.0157 6.512 67.5702 6.96667C70.1985 7.69413 72.9398 8.46267 72.9687 12.0355C73.0295 15.4557 70.2883 17.6528 66.8523 17.6528C64.3137 17.6528 60.8748 16.1187 60.5767 12.0912H64.2471C64.3976 13.8776 66.1634 14.4437 66.9102 14.4437C68.1346 14.4437 69.1796 13.6253 69.1507 12.5048C69.1507 11.0821 67.9262 10.6891 64.9071 9.6272C62.6956 8.932 61.063 7.7 61.034 5.3064C61.034 2.03867 63.5929 0 66.7626 0C68.9741 0 72.1814 1.1176 72.5085 5.11573H68.838V5.11867Z" fill="white"/>
<path d="M74.3438 8.7912C74.3438 4.53493 77.3976 0.00292969 83.0625 0.00292969C88.7274 0.00292969 91.7812 4.53493 91.7812 8.82346C91.7812 13.112 88.7274 17.6733 83.0625 17.6733C77.3976 17.6733 74.3438 13.1413 74.3438 8.82346V8.79413V8.7912ZM78.0142 8.83813C78.0229 11.6541 80.2807 13.9333 83.0596 13.9304C85.8356 13.9421 88.0963 11.6717 88.1079 8.8616V8.83813C88.1079 6.01333 85.8472 3.7224 83.0596 3.7224C80.272 3.7224 78.0113 6.01333 78.0113 8.83813H78.0142Z" fill="white"/>
<path d="M17.4404 0.46633H21.1109L23.8637 12.0941L27.5341 0.93273H31.2075L33.9603 12.0941L37.6307 0.46633L41.307 0.44873L35.7955 17.2098H32.1251L29.3723 5.1186L25.6989 17.2098H22.0285L17.4404 0.46633Z" fill="white"/>
<path d="M115.706 17.1893H112.035L109.222 5.1186L105.609 16.7258H101.939L99.125 5.1186L95.5153 17.1893L91.8391 17.2098L97.3477 0.44873H101.021L103.713 12.0941L107.444 0.44873H111.115L115.706 17.1893Z" fill="white"/>
<path d="M120.262 9.76785C120.693 12.1996 122.786 13.9625 125.223 13.9508C126.726 13.9713 128.153 13.2879 129.088 12.094H133.603C132.828 13.942 131.233 15.262 129.858 16.2007C128.48 17.1628 126.841 17.6703 125.165 17.6527C120.398 17.6732 116.519 13.7719 116.499 8.94065C116.499 8.91718 116.499 8.89372 116.499 8.87025C116.502 4.15052 120.149 -0.000148063 125.108 -0.000148063C127.406 -0.0412147 129.623 0.879852 131.233 2.54305C133.236 4.63159 134.269 6.81692 133.942 9.72385L120.265 9.76785H120.262ZM129.907 6.97825C129.169 5.00999 127.299 3.71638 125.22 3.73398C123.139 3.72225 121.269 5.01292 120.517 6.97825H129.907Z" fill="white"/>
<path d="M45.892 26.5112C45.8631 25.6342 45.3102 24.6046 43.7876 24.6046C42.4734 24.6046 41.8453 25.4523 41.8453 26.2707C41.8742 27.3296 43.0697 27.9046 44.6241 28.3592C47.2525 29.0867 49.9937 29.8552 50.0227 33.428C50.0835 36.8483 47.3422 39.0454 43.9063 39.0454C41.3676 39.0454 37.9317 37.5112 37.6306 33.4838H41.3011C41.4516 35.2702 43.2173 35.8363 43.9642 35.8363C45.1886 35.8363 46.2365 35.0179 46.2046 33.8974C46.2046 32.4747 44.9802 32.0816 41.961 31.0198C39.7495 30.3246 38.1169 29.0926 38.088 26.699C38.088 23.4283 40.6469 21.3896 43.8136 21.3896C46.0252 21.3896 49.2324 22.5072 49.5595 26.5054H45.8891L45.892 26.5112Z" fill="white"/>
<path d="M91.7842 21.859H95.4546V24.0648C96.1609 22.604 97.5996 21.4248 100.043 21.3955V25.332H99.73C97.0235 25.332 95.4546 26.5934 95.4546 29.427V38.5995H91.7842V21.856V21.859Z" fill="white"/>
<path d="M56.1711 44.0001H52.3154V21.8593H55.9859V24.3057C56.5735 23.4521 57.3435 22.7422 58.2408 22.2347C59.2858 21.6657 60.4581 21.3753 61.6449 21.3929C62.907 21.3753 64.1575 21.6539 65.2951 22.2113C66.2793 22.7099 67.1419 23.4257 67.8164 24.3057C68.1435 24.731 68.4329 25.1857 68.6761 25.6667C68.9164 26.1419 69.119 26.6377 69.2782 27.1451C69.5879 28.1307 69.7471 29.1603 69.75 30.1929C69.75 30.7678 69.695 31.3427 69.5908 31.9089C69.4866 32.4662 69.3303 33.0118 69.1277 33.5398C68.925 34.0619 68.679 34.5665 68.3866 35.0417C68.0972 35.5139 67.7672 35.9598 67.3967 36.3705C67.029 36.7782 66.6238 37.1507 66.1867 37.4822C65.7467 37.8137 65.2778 38.0982 64.7799 38.3299C63.7494 38.8139 62.6262 39.0633 61.4915 39.0603C60.2092 39.0867 58.95 38.7054 57.8935 37.9662C57.2016 37.4646 56.6169 36.8251 56.1711 36.0918V43.9971V44.0001ZM61.0342 25.1123C60.3597 25.1123 59.691 25.2473 59.0687 25.5142C58.4695 25.7723 57.9253 26.1449 57.465 26.6113C57.0048 27.0777 56.6372 27.6291 56.3824 28.2363C56.119 28.867 55.9859 29.5446 55.9859 30.2281C55.9859 30.9115 56.119 31.5891 56.3824 32.2198C56.6372 32.827 57.0019 33.3785 57.465 33.8449C57.9253 34.3113 58.4695 34.6838 59.0687 34.9419C59.691 35.2089 60.3597 35.3467 61.0342 35.3438C61.7086 35.3438 62.3773 35.2089 62.9997 34.9419C63.5988 34.6838 64.143 34.3142 64.6033 33.8449C65.0635 33.3785 65.4312 32.827 65.6859 32.2198C65.9493 31.5891 66.0825 30.9115 66.0825 30.2281C66.0825 29.5446 65.9493 28.867 65.6859 28.2363C65.4312 27.6291 65.0664 27.0777 64.6033 26.6113C64.143 26.1449 63.5988 25.7723 62.9997 25.5142C62.3773 25.2473 61.7086 25.1123 61.0342 25.1123Z" fill="white"/>
<path d="M26.5701 39.1832C25.3775 39.195 24.1936 38.9544 23.0994 38.4734C22.1152 38.0304 21.2324 37.3792 20.5174 36.5638C19.8082 35.7512 19.264 34.8096 18.9079 33.7859C18.5374 32.7211 18.3493 31.6035 18.3522 30.4742C18.3203 28.0806 19.1887 25.7662 20.7837 24.0003C21.1571 23.5955 21.5652 23.2318 22.0081 22.9091C22.4481 22.5894 22.9171 22.3136 23.412 22.0907C23.9099 21.8648 24.4281 21.6918 24.9578 21.5774C25.502 21.46 26.0578 21.3984 26.6135 21.3984C27.288 21.3984 27.9596 21.507 28.5993 21.727C29.1551 21.9206 29.679 22.1992 30.1508 22.5483C30.9179 23.1144 31.5519 23.8448 32.0121 24.6838L31.934 21.8619H35.7896V38.6024H32.1192V36.7427C31.8732 37.2003 31.5374 37.6051 31.135 37.9307C30.7327 38.2504 30.284 38.5027 29.8064 38.6816C28.7643 39.0424 27.6672 39.2155 26.5672 39.1862L26.5701 39.1832ZM27.0738 25.115C26.3993 25.115 25.7307 25.2499 25.1083 25.5168C24.5091 25.775 23.9649 26.1446 23.5047 26.6139C23.0444 27.0803 22.6768 27.6318 22.4221 28.239C22.1587 28.8696 22.0255 29.5472 22.0255 30.2307C22.0255 30.9142 22.1587 31.5918 22.4221 32.2224C22.6768 32.8296 23.0444 33.3811 23.5047 33.8475C23.9649 34.3139 24.5091 34.6864 25.1083 34.9446C25.7307 35.2115 26.3993 35.3494 27.0738 35.3464C27.7483 35.3464 28.4169 35.2115 29.0393 34.9446C29.6385 34.6864 30.1827 34.3168 30.6429 33.8475C31.1032 33.3811 31.4708 32.8296 31.7255 32.2224C31.9889 31.5918 32.1221 30.9142 32.1221 30.2307C32.1221 29.5472 31.9889 28.8696 31.7255 28.239C31.4708 27.6318 31.1032 27.0803 30.6429 26.6139C30.1827 26.1475 29.6385 25.775 29.0393 25.5168C28.4169 25.2499 27.7483 25.112 27.0738 25.115Z" fill="white"/>
<path d="M14.6846 30.9288C14.5573 30.9288 14.4559 31.0344 14.4559 31.1606C14.4559 31.2867 14.5601 31.3923 14.6846 31.3923C14.8091 31.3923 14.9133 31.2867 14.9133 31.1606C14.9133 31.0344 14.8091 30.9288 14.6846 30.9288ZM13.767 30.2307C13.5123 30.2307 13.3096 30.439 13.3096 30.6971C13.3096 30.9552 13.5152 31.1635 13.767 31.1635C14.0217 31.1635 14.2244 30.9552 14.2244 30.6971C14.2244 30.439 14.0188 30.2336 13.767 30.2336V30.2307ZM15.6022 30.2307C15.3475 30.2307 15.142 30.439 15.142 30.6942C15.142 30.9523 15.3475 31.1606 15.5993 31.1606C15.8541 31.1606 16.0567 30.9523 16.0567 30.6942C16.0567 30.439 15.8512 30.2307 15.5993 30.2278L15.6022 30.2307ZM16.5169 31.3131L17.0582 31.1664C17.3043 31.099 17.5532 31.2456 17.6198 31.495C17.6864 31.7443 17.5417 31.9995 17.2956 32.064L16.3925 32.3104C15.6717 35.7483 12.0215 39.0688 8.25845 39.0688C3.13489 39.0688 -0.00292969 34.7832 -0.00292969 30.0987C-0.00292969 25.4142 3.46199 21.3955 8.29029 21.3955C11.9173 21.3955 14.8757 23.6483 16.1377 26.9747H12.1518C11.1792 25.816 9.75789 25.1443 8.25556 25.1414C6.90954 25.1267 5.61852 25.6664 4.67485 26.6374C3.75435 27.6054 3.22752 28.8872 3.20147 30.2307C3.21015 33.0555 5.47089 35.3406 8.25845 35.3464C10.3397 35.3464 12.2241 33.9619 12.7191 32.0904L12.0997 31.9232C11.8536 31.8558 11.7089 31.6006 11.7755 31.3542C11.8421 31.1048 12.0939 30.9582 12.337 31.0256L12.8465 31.1635V31.1254C12.8668 30.1134 13.6831 29.3008 14.6817 29.3008C15.6949 29.3008 16.5169 30.1339 16.5169 31.1606V31.1958V31.3102H16.514L16.5169 31.3131Z" fill="white"/>
<path d="M75.3483 31.1609C75.7796 33.5927 77.8725 35.3556 80.3098 35.3439C81.8121 35.3644 83.2392 34.6809 84.1742 33.4871H88.6898C87.9141 35.3351 86.3191 36.6551 84.9441 37.5937C83.5663 38.5559 81.9279 39.0633 80.2519 39.0457C75.4844 39.0663 71.6055 35.1649 71.5881 30.3337C71.5881 30.3103 71.5881 30.2868 71.5881 30.2633C71.5881 25.5407 75.2325 21.3929 80.194 21.3929C82.4924 21.3519 84.7097 22.2729 86.3191 23.9361C88.3222 26.0247 89.3556 28.21 89.0285 31.1169L75.3483 31.1609ZM84.9933 28.3713C84.2552 26.4031 82.3853 25.1095 80.3098 25.1271C78.2285 25.1153 76.3586 26.406 75.6059 28.3713H84.9962H84.9933Z" fill="white"/>
<path d="M5.54325 17.7172C4.918 17.7172 4.29855 17.6233 3.69935 17.4444C3.05963 17.2596 2.45464 16.9604 1.91623 16.5644C1.35177 16.1478 0.89152 15.6081 0.570212 14.9804C0.205484 14.2412 0.0231198 13.4257 0.0346984 12.6014C0.0318038 12.1204 0.101276 11.6393 0.243115 11.1788C0.373375 10.7681 0.570212 10.3809 0.824943 10.0348C1.07967 9.69449 1.37782 9.38942 1.71361 9.13129C2.06386 8.86142 2.44306 8.62675 2.83963 8.43022C4.46933 7.61475 6.5477 7.23929 8.38292 6.91075H8.38582C9.39606 6.76115 10.3918 6.53529 11.3702 6.23902C12.2184 5.93689 12.6149 5.56435 12.6149 5.06569C12.6149 4.41742 12.1634 3.87182 11.3094 3.48755C10.3513 3.10329 9.32658 2.91849 8.29608 2.94489H8.22082C7.77215 2.94489 7.32347 2.98009 6.88059 3.05342C6.48402 3.11502 6.09903 3.23822 5.7372 3.41422C5.42457 3.56675 5.15537 3.79849 4.95274 4.08595C4.75011 4.39689 4.63433 4.75475 4.61985 5.12729H0.955203C0.995728 4.44969 1.1723 3.78675 1.47914 3.18249C1.80624 2.54889 2.26649 1.99449 2.82805 1.56329C3.50251 1.05289 4.26381 0.67742 5.07721 0.454487C6.07587 0.181687 7.10637 0.04382 8.13977 0.04382H8.29608C9.62184 0.0174199 10.9418 0.216887 12.2039 0.63342C13.1591 0.953153 14.0304 1.48702 14.7541 2.19689C15.3764 2.82462 15.8483 3.58729 16.1406 4.42915C16.4272 5.26222 16.569 6.13929 16.5604 7.02222V17.2508H12.8899V14.4524C12.5426 15.262 11.6713 16.0628 10.5018 16.6524C8.95317 17.3857 7.2569 17.7494 5.54615 17.7172H5.54325ZM2.3128 12.2054C2.28675 12.2054 2.2607 12.2054 2.23465 12.2113C1.98571 12.2582 1.82071 12.4988 1.86413 12.751C1.90176 12.9564 2.06965 13.1118 2.27517 13.1324L2.95542 13.194C2.98437 13.3436 3.01621 13.5196 3.04805 13.7102C3.08857 13.9009 3.15226 14.0828 3.2362 14.2558C3.43304 14.6665 3.73119 15.0185 4.09881 15.2825C4.48091 15.5494 4.918 15.7284 5.37826 15.8046C6.04693 15.9102 6.72717 15.8956 7.39295 15.7636C9.29764 15.4262 10.7218 14.5873 11.6307 13.2732C11.9318 12.8361 12.1692 12.358 12.3399 11.8564C12.4905 11.4164 12.5947 10.9617 12.6526 10.4982C12.7336 9.92035 12.7365 9.33369 12.6583 8.75582C12.7018 9.00515 12.5049 9.43049 12.1315 9.89102C11.8681 10.2108 11.57 10.507 11.2486 10.7681C10.8637 11.0849 10.4468 11.3636 10.0097 11.6012C9.52053 11.8681 9.00528 12.0793 8.46976 12.2348C7.88793 12.402 7.28874 12.4958 6.68665 12.5134L7.27716 12.0118C7.47689 11.8534 7.50873 11.5601 7.35242 11.3577C7.19611 11.1553 6.90664 11.123 6.70691 11.2814C6.70112 11.2873 6.69244 11.2932 6.68665 11.299L6.40876 11.5366C6.40007 11.4838 6.3885 11.4281 6.37113 11.3782C6.36244 11.346 6.35086 11.3108 6.33639 11.2374C6.33639 11.2228 6.3306 11.2052 6.32771 11.1905C6.12798 10.1844 5.16405 9.53315 4.17118 9.73555C3.54014 9.86462 3.022 10.3193 2.80779 10.9324C3.06252 10.9441 3.25936 11.1612 3.24778 11.4164C3.24489 11.5044 3.21594 11.5894 3.16673 11.6628C3.06831 11.8065 2.89753 11.8798 2.72964 11.8564V11.8798C2.7499 12.006 2.76727 12.1262 2.78753 12.2465L2.35622 12.2084C2.35622 12.2084 2.33017 12.2084 2.3157 12.2084L2.3128 12.2054ZM3.77172 11.9268C3.64435 11.9268 3.54304 11.8241 3.54304 11.695C3.54304 11.566 3.64435 11.4633 3.77172 11.4633C3.89908 11.4633 4.00039 11.566 4.00039 11.695C4.00039 11.8065 3.91934 11.9033 3.81224 11.9238C3.79777 11.9238 3.78619 11.9268 3.77172 11.9268ZM4.5938 11.5396C4.34197 11.5396 4.13644 11.3313 4.13644 11.0761C4.13644 10.8209 4.34197 10.6126 4.5938 10.6126C4.84564 10.6126 5.05116 10.8209 5.05116 11.0761C5.05116 11.302 4.89195 11.4926 4.67196 11.5337C4.64591 11.5396 4.61985 11.5396 4.59091 11.5396H4.5938Z" fill="white"/>
</g>
<defs>
<clipPath id="clip0_1237_2830">
<rect width="134" height="44" fill="white"/>
</clipPath>
</defs>
</svg>
