<svg width="256" height="28" viewBox="0 0 256 28" fill="none" xmlns="http://www.w3.org/2000/svg">
<g clip-path="url(#clip0_1237_2844)">
<path d="M46.3201 11.86C45.7801 11.86 45.3001 11.97 44.8801 12.18C44.4701 12.39 44.1201 12.69 43.8301 13.08C43.5501 13.47 43.3401 13.95 43.1901 14.51C43.0401 15.07 42.9701 15.69 42.9701 16.39C42.9701 17.33 43.0901 18.13 43.3201 18.8C43.5601 19.46 43.9201 19.97 44.4101 20.32C44.9001 20.67 45.5301 20.84 46.3101 20.84C46.8501 20.84 47.3901 20.78 47.9301 20.66C48.4801 20.54 49.0701 20.37 49.7001 20.14V22.5C49.1101 22.74 48.5301 22.92 47.9601 23.02C47.3901 23.13 46.7501 23.18 46.0401 23.18C44.6701 23.18 43.5401 22.9 42.6601 22.33C41.7801 21.76 41.1301 20.97 40.7101 19.95C40.2901 18.93 40.0701 17.73 40.0701 16.37C40.0701 15.36 40.2101 14.44 40.4801 13.61C40.7501 12.77 41.1501 12.05 41.6801 11.44C42.2101 10.83 42.8601 10.36 43.6301 10.02C44.4101 9.69 45.3001 9.52 46.3001 9.52C46.9601 9.52 47.6201 9.6 48.2801 9.77C48.9501 9.93 49.5801 10.16 50.1901 10.45L49.2801 12.74C48.7801 12.5 48.2801 12.3 47.7801 12.12C47.2801 11.94 46.7801 11.86 46.3001 11.86H46.3201ZM60.6801 23L59.7201 19.84H54.8701L53.9101 23H50.8701L55.5601 9.66H59.0101L63.7201 23H60.6801ZM59.0401 17.47L58.0801 14.38C58.0201 14.17 57.9401 13.91 57.8301 13.59C57.7301 13.26 57.6301 12.93 57.5301 12.6C57.4301 12.26 57.3501 11.97 57.2901 11.72C57.2301 11.97 57.1401 12.28 57.0401 12.65C56.9401 13.01 56.8401 13.36 56.7401 13.69C56.6401 14.02 56.5701 14.25 56.5301 14.39L55.5801 17.48H59.0401V17.47ZM73.2401 19.31C73.2401 20.1 73.0501 20.78 72.6701 21.36C72.2901 21.94 71.7301 22.39 71.0001 22.71C70.2701 23.03 69.3901 23.18 68.3501 23.18C67.8901 23.18 67.4401 23.15 67.0001 23.09C66.5601 23.03 66.1401 22.94 65.7401 22.83C65.3401 22.71 64.9601 22.56 64.5901 22.38V19.76C65.2201 20.04 65.8701 20.29 66.5501 20.51C67.2301 20.73 67.9001 20.85 68.5701 20.85C69.0301 20.85 69.4001 20.79 69.6801 20.67C69.9601 20.55 70.1701 20.38 70.3001 20.17C70.4301 19.96 70.4901 19.72 70.4901 19.44C70.4901 19.11 70.3801 18.82 70.1501 18.59C69.9301 18.35 69.6201 18.13 69.2201 17.93C68.8301 17.72 68.3901 17.5 67.9001 17.27C67.5901 17.12 67.2501 16.95 66.8901 16.74C66.5301 16.53 66.1801 16.27 65.8501 15.97C65.5201 15.67 65.2501 15.3 65.0401 14.87C64.8301 14.43 64.7301 13.91 64.7301 13.31C64.7301 12.52 64.9101 11.84 65.2801 11.27C65.6401 10.71 66.1601 10.28 66.8301 9.98C67.5101 9.68 68.3101 9.53 69.2301 9.53C69.9201 9.53 70.5801 9.61 71.2001 9.78C71.8301 9.94 72.4901 10.17 73.1701 10.47L72.2601 12.66C71.6501 12.41 71.1001 12.22 70.6101 12.09C70.1301 11.95 69.6301 11.88 69.1301 11.88C68.7801 11.88 68.4801 11.94 68.2301 12.05C67.9801 12.16 67.7901 12.32 67.6701 12.52C67.5401 12.72 67.4801 12.95 67.4801 13.22C67.4801 13.54 67.5701 13.8 67.7501 14.02C67.9401 14.23 68.2201 14.44 68.5901 14.64C68.9701 14.84 69.4301 15.07 69.9901 15.34C70.6701 15.66 71.2501 16 71.7301 16.35C72.2101 16.7 72.5901 17.1 72.8501 17.58C73.1101 18.05 73.2401 18.63 73.2401 19.33V19.31ZM79.8901 9.71C81.6101 9.71 82.8601 10.08 83.6401 10.82C84.4301 11.55 84.8201 12.57 84.8201 13.86C84.8201 14.44 84.7301 15 84.5601 15.53C84.3801 16.06 84.1001 16.53 83.7001 16.94C83.3101 17.35 82.7801 17.68 82.1201 17.92C81.4601 18.16 80.6401 18.27 79.6701 18.27H78.4601V23H75.6401V9.71H79.8901ZM79.7401 12.02H78.4601V15.97H79.3901C79.9201 15.97 80.3701 15.9 80.7601 15.76C81.1501 15.62 81.4501 15.4 81.6601 15.11C81.8701 14.81 81.9801 14.43 81.9801 13.96C81.9801 13.31 81.8001 12.82 81.4301 12.51C81.0701 12.19 80.5001 12.03 79.7401 12.03V12.02ZM94.9801 23H87.3301V9.71H94.9801V12.02H90.1401V14.94H94.6401V17.25H90.1401V20.68H94.9801V23.01V23ZM101.63 9.71C102.84 9.71 103.83 9.86 104.61 10.15C105.4 10.44 105.98 10.88 106.37 11.47C106.75 12.06 106.94 12.8 106.94 13.7C106.94 14.31 106.83 14.84 106.59 15.29C106.36 15.74 106.06 16.13 105.68 16.44C105.3 16.76 104.9 17.01 104.46 17.21L108.37 23H105.24L102.07 17.9H100.57V23H97.7501V9.71H101.62H101.63ZM101.43 12.02H100.58V15.61H101.49C102.42 15.61 103.09 15.46 103.49 15.15C103.9 14.83 104.1 14.37 104.1 13.77C104.1 13.17 103.88 12.69 103.45 12.42C103.02 12.15 102.35 12.02 101.44 12.02H101.43ZM110.05 9.71H114.19C115.96 9.71 117.3 9.96 118.21 10.46C119.12 10.96 119.57 11.83 119.57 13.08C119.57 13.58 119.49 14.04 119.32 14.44C119.16 14.85 118.93 15.18 118.63 15.44C118.33 15.7 117.96 15.87 117.52 15.95V16.04C117.96 16.13 118.36 16.29 118.72 16.51C119.08 16.73 119.36 17.05 119.58 17.47C119.8 17.89 119.91 18.45 119.91 19.14C119.91 19.95 119.71 20.64 119.32 21.21C118.93 21.79 118.36 22.23 117.63 22.54C116.9 22.84 116.04 22.99 115.03 22.99H110.06V9.71H110.05ZM112.87 14.97H114.51C115.33 14.97 115.89 14.84 116.21 14.59C116.53 14.33 116.68 13.95 116.68 13.44C116.68 12.93 116.49 12.57 116.12 12.35C115.75 12.13 115.16 12.01 114.36 12.01H112.88V14.96L112.87 14.97ZM112.87 17.21V20.67H114.71C115.56 20.67 116.15 20.51 116.48 20.18C116.81 19.85 116.98 19.41 116.98 18.86C116.98 18.53 116.91 18.24 116.76 18C116.61 17.75 116.37 17.56 116.02 17.42C115.68 17.28 115.21 17.21 114.61 17.21H112.87ZM122.56 23V9.71H125.38V20.67H130.77V23H122.56ZM145.15 16.34C145.15 17.36 145.02 18.3 144.77 19.14C144.52 19.98 144.13 20.7 143.61 21.3C143.1 21.91 142.44 22.37 141.65 22.7C140.86 23.02 139.92 23.18 138.83 23.18C137.74 23.18 136.81 23.02 136.01 22.7C135.22 22.37 134.56 21.91 134.04 21.3C133.53 20.69 133.14 19.97 132.89 19.13C132.64 18.29 132.51 17.35 132.51 16.32C132.51 14.94 132.73 13.75 133.18 12.73C133.64 11.71 134.33 10.91 135.27 10.35C136.21 9.79 137.4 9.5 138.85 9.5C140.3 9.5 141.48 9.78 142.4 10.35C143.33 10.91 144.02 11.71 144.47 12.73C144.93 13.75 145.15 14.96 145.15 16.34ZM135.45 16.34C135.45 17.27 135.57 18.07 135.8 18.74C136.04 19.41 136.4 19.92 136.9 20.29C137.4 20.65 138.04 20.83 138.83 20.83C139.62 20.83 140.28 20.65 140.78 20.29C141.28 19.93 141.64 19.41 141.86 18.74C142.09 18.07 142.21 17.27 142.21 16.34C142.21 14.95 141.95 13.85 141.43 13.05C140.91 12.25 140.05 11.85 138.86 11.85C138.07 11.85 137.42 12.03 136.91 12.4C136.41 12.76 136.05 13.27 135.81 13.95C135.58 14.62 135.46 15.42 135.46 16.35L135.45 16.34ZM153.55 11.87C153.01 11.87 152.53 11.98 152.11 12.19C151.7 12.4 151.35 12.7 151.07 13.09C150.79 13.48 150.58 13.96 150.43 14.52C150.28 15.08 150.21 15.7 150.21 16.4C150.21 17.34 150.33 18.14 150.56 18.81C150.8 19.47 151.16 19.98 151.65 20.33C152.14 20.68 152.77 20.85 153.55 20.85C154.09 20.85 154.63 20.79 155.17 20.67C155.71 20.55 156.31 20.38 156.94 20.15V22.51C156.35 22.75 155.77 22.93 155.2 23.03C154.63 23.14 153.99 23.19 153.28 23.19C151.91 23.19 150.78 22.91 149.9 22.34C149.02 21.77 148.37 20.98 147.95 19.96C147.53 18.94 147.31 17.74 147.31 16.38C147.31 15.37 147.45 14.45 147.72 13.62C147.99 12.78 148.39 12.06 148.92 11.45C149.45 10.84 150.1 10.37 150.87 10.03C151.65 9.7 152.54 9.53 153.54 9.53C154.2 9.53 154.86 9.61 155.52 9.78C156.19 9.94 156.82 10.17 157.43 10.46L156.52 12.75C156.02 12.51 155.52 12.31 155.02 12.13C154.52 11.95 154.02 11.87 153.54 11.87H153.55ZM170.47 23.01H167.27L163.79 17.41L162.6 18.26V23.01H159.78V9.71H162.6V15.79C162.79 15.53 162.97 15.27 163.15 15.01C163.33 14.75 163.52 14.49 163.7 14.23L167.3 9.71H170.43L165.79 15.59L170.46 23L170.47 23.01ZM177.79 11.87C177.25 11.87 176.77 11.98 176.35 12.19C175.94 12.4 175.59 12.7 175.3 13.09C175.02 13.48 174.81 13.96 174.66 14.52C174.52 15.08 174.44 15.7 174.44 16.4C174.44 17.34 174.55 18.14 174.79 18.81C175.03 19.47 175.39 19.98 175.88 20.33C176.37 20.68 177 20.85 177.78 20.85C178.32 20.85 178.86 20.79 179.4 20.67C179.94 20.55 180.54 20.38 181.17 20.15V22.51C180.58 22.75 180 22.93 179.43 23.03C178.86 23.14 178.22 23.19 177.51 23.19C176.14 23.19 175.01 22.91 174.13 22.34C173.25 21.77 172.6 20.98 172.17 19.96C171.75 18.94 171.53 17.74 171.53 16.38C171.53 15.37 171.67 14.45 171.94 13.62C172.21 12.78 172.61 12.06 173.14 11.45C173.67 10.84 174.32 10.37 175.09 10.03C175.87 9.7 176.76 9.53 177.76 9.53C178.42 9.53 179.08 9.61 179.74 9.78C180.41 9.94 181.04 10.17 181.65 10.46L180.74 12.75C180.24 12.51 179.74 12.31 179.24 12.13C178.74 11.95 178.24 11.87 177.76 11.87H177.79ZM194.91 23.01H192.1V17.27H186.84V23.01H184.02V9.71H186.84V14.92H192.1V9.71H194.91V23V23.01ZM206.41 23.01L205.45 19.85H200.6L199.64 23.01H196.6L201.29 9.67H204.73L209.44 23.01H206.4H206.41ZM204.77 17.48L203.81 14.39C203.75 14.18 203.67 13.92 203.57 13.6C203.47 13.27 203.37 12.94 203.27 12.61C203.17 12.27 203.09 11.98 203.03 11.73C202.97 11.98 202.88 12.29 202.78 12.66C202.68 13.02 202.58 13.37 202.48 13.7C202.38 14.03 202.31 14.26 202.27 14.4L201.31 17.49H204.77V17.48ZM211.12 23.01V9.71H213.94V23H211.12V23.01ZM229.07 23.01H225.49L219.71 12.96H219.63C219.65 13.38 219.68 13.8 219.69 14.22L219.74 15.49C219.76 15.91 219.78 16.33 219.8 16.75V23H217.28V9.71H220.83L226.6 19.66H226.66C226.65 19.25 226.63 18.84 226.62 18.43C226.6 18.02 226.58 17.62 226.57 17.21L226.53 15.99V9.7H229.07V22.99V23.01ZM231.81 21.71C231.81 21.14 231.96 20.74 232.27 20.51C232.58 20.28 232.96 20.16 233.41 20.16C233.86 20.16 234.21 20.28 234.52 20.51C234.84 20.74 234.99 21.14 234.99 21.71C234.99 22.28 234.83 22.65 234.52 22.89C234.21 23.13 233.84 23.25 233.41 23.25C232.98 23.25 232.59 23.13 232.27 22.89C231.96 22.65 231.81 22.25 231.81 21.71ZM237.73 23.01V9.71H240.55V23H237.73V23.01ZM255.96 16.35C255.96 17.37 255.83 18.31 255.58 19.15C255.33 19.99 254.94 20.71 254.42 21.31C253.91 21.92 253.25 22.38 252.46 22.71C251.67 23.03 250.73 23.19 249.64 23.19C248.55 23.19 247.62 23.03 246.82 22.71C246.03 22.38 245.37 21.92 244.85 21.31C244.34 20.7 243.95 19.98 243.7 19.14C243.45 18.3 243.32 17.36 243.32 16.33C243.32 14.95 243.54 13.76 243.99 12.74C244.44 11.72 245.14 10.92 246.08 10.36C247.02 9.8 248.21 9.51 249.66 9.51C251.11 9.51 252.29 9.79 253.21 10.36C254.14 10.92 254.83 11.72 255.28 12.74C255.73 13.76 255.96 14.97 255.96 16.35ZM246.26 16.35C246.26 17.28 246.38 18.08 246.61 18.75C246.85 19.42 247.21 19.93 247.71 20.3C248.21 20.66 248.85 20.84 249.64 20.84C250.43 20.84 251.09 20.66 251.58 20.3C252.08 19.94 252.44 19.42 252.66 18.75C252.89 18.08 253.01 17.28 253.01 16.35C253.01 14.96 252.75 13.86 252.23 13.06C251.71 12.26 250.85 11.86 249.66 11.86C248.87 11.86 248.22 12.04 247.72 12.41C247.22 12.77 246.86 13.28 246.62 13.96C246.39 14.63 246.27 15.43 246.27 16.36L246.26 16.35Z" fill="white"/>
<path d="M22.76 23.8902C23.98 23.8902 24.97 22.9002 24.97 21.6802C24.97 20.4602 23.98 19.4702 22.76 19.4702C21.54 19.4702 20.55 20.4602 20.55 21.6802C20.55 22.9002 21.54 23.8902 22.76 23.8902Z" fill="#FEFEFE"/>
<path d="M29.0801 18.3502C30.3001 18.3502 31.2901 17.3602 31.2901 16.1402C31.2901 14.9202 30.3001 13.9302 29.0801 13.9302C27.8601 13.9302 26.8701 14.9202 26.8701 16.1402C26.8701 17.3602 27.8601 18.3502 29.0801 18.3502Z" fill="#FEFEFE"/>
<path d="M23.6499 12.8199C24.8699 12.8199 25.8599 11.8299 25.8599 10.6099C25.8599 9.3899 24.8699 8.3999 23.6499 8.3999C22.4299 8.3999 21.4399 9.3899 21.4399 10.6099C21.4399 11.8299 22.4299 12.8199 23.6499 12.8199Z" fill="#FEFEFE"/>
<path d="M19.95 5.02986C21.17 5.02986 22.16 4.03986 22.16 2.81986C22.16 1.59986 21.17 0.609863 19.95 0.609863C18.73 0.609863 17.74 1.59986 17.74 2.81986C17.74 4.03986 18.73 5.02986 19.95 5.02986Z" fill="#FEFEFE"/>
<path d="M12.7701 8.75984C13.9901 8.75984 14.9801 7.76984 14.9801 6.54984C14.9801 5.32984 13.9901 4.33984 12.7701 4.33984C11.5501 4.33984 10.5601 5.32984 10.5601 6.54984C10.5601 7.76984 11.5501 8.75984 12.7701 8.75984Z" fill="#FEFEFE"/>
<path d="M4.65995 10.19C5.87995 10.19 6.86995 9.20002 6.86995 7.98002C6.86995 6.76002 5.87995 5.77002 4.65995 5.77002C3.43995 5.77002 2.44995 6.76002 2.44995 7.98002C2.44995 9.20002 3.43995 10.19 4.65995 10.19Z" fill="#FEFEFE"/>
<path d="M6.46 18.38C7.68 18.38 8.67 17.39 8.67 16.17C8.67 14.95 7.68 13.96 6.46 13.96C5.24 13.96 4.25 14.95 4.25 16.17C4.25 17.39 5.24 18.38 6.46 18.38Z" fill="#FEFEFE"/>
<path d="M18.2199 9.30012C19.0999 9.30012 19.8099 8.59012 19.8099 7.71012C19.8099 6.83012 19.0999 6.12012 18.2199 6.12012C17.3399 6.12012 16.6299 6.83012 16.6299 7.71012C16.6299 8.59012 17.3399 9.30012 18.2199 9.30012Z" fill="#FEFEFE"/>
<path d="M25.86 7.7298C26.74 7.7298 27.45 7.0198 27.45 6.1398C27.45 5.2598 26.74 4.5498 25.86 4.5498C24.98 4.5498 24.27 5.2598 24.27 6.1398C24.27 7.0198 24.98 7.7298 25.86 7.7298Z" fill="#FEFEFE"/>
<path d="M29.04 12.2298C29.92 12.2298 30.6299 11.5198 30.6299 10.6398C30.6299 9.7598 29.92 9.0498 29.04 9.0498C28.16 9.0498 27.45 9.7598 27.45 10.6398C27.45 11.5198 28.16 12.2298 29.04 12.2298Z" fill="#FEFEFE"/>
<path d="M24.2799 17.7698C25.1599 17.7698 25.8799 17.0598 25.8799 16.1798C25.8799 15.2998 25.1699 14.5898 24.2799 14.5898C23.3899 14.5898 22.6899 15.2998 22.6899 16.1798C22.6899 17.0598 23.3999 17.7698 24.2799 17.7698Z" fill="#FEFEFE"/>
<path d="M28.08 23.6102C28.96 23.6102 29.67 22.9002 29.67 22.0202C29.67 21.1402 28.96 20.4302 28.08 20.4302C27.2 20.4302 26.49 21.1402 26.49 22.0202C26.49 22.9002 27.2 23.6102 28.08 23.6102Z" fill="#FEFEFE"/>
<path d="M24.9899 27.4302C25.8699 27.4302 26.5799 26.7202 26.5799 25.8302C26.5799 24.9402 25.8699 24.2402 24.9899 24.2402C24.1099 24.2402 23.3899 24.9502 23.3899 25.8302C23.3899 26.7102 24.0999 27.4302 24.9899 27.4302Z" fill="#FEFEFE"/>
<path d="M13.9501 3.18977C14.8301 3.18977 15.5501 2.47977 15.5501 1.59977C15.5501 0.719766 14.8401 0.00976562 13.9501 0.00976562C13.0601 0.00976562 12.3601 0.719766 12.3601 1.59977C12.3601 2.47977 13.0701 3.18977 13.9501 3.18977Z" fill="#FEFEFE"/>
<path d="M8.64005 5.0799C9.52005 5.0799 10.23 4.3699 10.23 3.4899C10.23 2.6099 9.52005 1.8999 8.64005 1.8999C7.76005 1.8999 7.05005 2.6099 7.05005 3.4899C7.05005 4.3699 7.76005 5.0799 8.64005 5.0799Z" fill="#FEFEFE"/>
<path d="M8.66007 12.3802C9.54007 12.3802 10.2501 11.6702 10.2501 10.7902C10.2501 9.9102 9.54007 9.2002 8.66007 9.2002C7.78007 9.2002 7.07007 9.9102 7.07007 10.7902C7.07007 11.6702 7.78007 12.3802 8.66007 12.3802Z" fill="#FEFEFE"/>
<path d="M1.59 16.0701C2.47 16.0701 3.18 15.3601 3.18 14.4801C3.18 13.6001 2.47 12.8901 1.59 12.8901C0.71 12.8901 0 13.6001 0 14.4801C0 15.3601 0.71 16.0701 1.59 16.0701Z" fill="#FEFEFE"/>
<path d="M2.79996 22.0601C3.67996 22.0601 4.38996 21.3501 4.38996 20.4601C4.38996 19.5701 3.67996 18.8701 2.79996 18.8701C1.91996 18.8701 1.20996 19.5801 1.20996 20.4601C1.20996 21.3401 1.91996 22.0601 2.79996 22.0601Z" fill="#FEFEFE"/>
<path d="M9.31998 23.2901C10.2 23.2901 10.91 22.5801 10.91 21.6901C10.91 20.8001 10.2 20.1001 9.31998 20.1001C8.43998 20.1001 7.72998 20.8101 7.72998 21.6901C7.72998 22.5701 8.43998 23.2901 9.31998 23.2901Z" fill="#FEFEFE"/>
<path d="M5.50992 27.4901C6.38992 27.4901 7.09992 26.7801 7.09992 25.9001C7.09992 25.0201 6.38992 24.3101 5.50992 24.3101C4.62992 24.3101 3.91992 25.0201 3.91992 25.9001C3.91992 26.7801 4.62992 27.4901 5.50992 27.4901Z" fill="#FEFEFE"/>
</g>
<defs>
<clipPath id="clip0_1237_2844">
<rect width="255.97" height="27.49" fill="white"/>
</clipPath>
</defs>
</svg>
