<svg width="168" height="41" viewBox="0 0 168 41" fill="none" xmlns="http://www.w3.org/2000/svg">
<path d="M19.8524 18.4247H9.72363C7.31804 18.4247 5.67212 16.6775 5.67212 14.2212C5.67212 11.9929 7.31804 10.2457 9.72363 10.2457H19.8524C21.4885 10.2457 22.7769 11.1059 23.4374 12.3128C24.6301 12.3128 29.3992 12.3128 29.3992 12.3128C28.5759 7.9047 24.8462 5.05469 19.8524 5.05469H9.72363C4.05151 5.05469 0 8.75169 0 14.2212C0 19.7161 4.17812 23.3878 9.72363 23.3878H19.8524C24.7438 23.3878 28.4224 20.6535 29.3449 16.3989C29.3076 16.7187 29.4109 16.0943 29.3449 16.3989H23.2985C23.4783 16.1012 23.1942 16.7223 23.2985 16.3989C22.6052 17.5466 21.3805 18.4247 19.8524 18.4247Z" fill="white"/>
<path d="M54.5589 11.8916H41.1889C40.0494 11.8916 39.619 11.4865 39.619 10.9547C39.619 10.4229 40.1001 9.84054 42.2018 9.84054H52.3559C54.1791 9.84054 54.8628 10.4736 54.9641 11.2079H60.5602C60.5602 9.48603 59.674 5.05469 52.5078 5.05469H42.2018C35.9473 5.10533 33.9468 8.14396 33.9468 11.2332C33.9468 14.3732 36.1752 16.3989 40.5812 16.3989H53.5207C54.8121 16.3989 55.2426 16.8294 55.2426 17.3358C55.2426 18.0195 54.407 18.4247 52.4065 18.4247H42.2778C40.4799 18.4247 39.4164 17.9436 39.2645 17.0573H33.6683C33.6683 19.4376 34.8331 23.3878 41.9233 23.3878H52.4065C58.3572 23.2865 60.94 20.8809 60.94 17.2345C60.94 14.0946 58.7624 11.8916 54.5589 11.8916Z" fill="white"/>
<path d="M85.4127 5.35855H71.2317C68.1414 5.35855 65.6363 7.86369 65.6363 10.9539V20.3103L71.2071 23.3878V19.0324H85.4127C89.9454 19.0324 92.9333 15.9684 92.9333 12.1955C92.9333 8.42251 89.9454 5.35855 85.4127 5.35855ZM85.4127 14.1453H73.1655C72.0839 14.1453 71.2071 13.2685 71.2071 12.1869V10.2457H85.4127C86.4762 10.2457 87.3625 11.1066 87.3625 12.1955C87.3625 13.2843 86.4762 14.1453 85.4127 14.1453Z" fill="white"/>
<path d="M65.4355 22.2441L67.4748 23.3609C68.4908 23.9173 68.0957 25.4615 66.9373 25.4615H65.4355L65.4355 22.2441Z" fill="white"/>
<path fill-rule="evenodd" clip-rule="evenodd" d="M99.0468 5.35791H94.5117V23.0833H100.108V19.0318H112.136L114.541 23.0833H120.998L117.859 18.2974C120.315 17.1579 121.809 14.8536 121.809 12.1948C121.809 8.42187 118.821 5.35791 114.288 5.35791H109.323L100.545 6.85656L99.0468 5.35791ZM100.108 12.466C100.108 13.3931 100.859 14.1446 101.786 14.1446H114.288C115.352 14.1446 116.238 13.2837 116.238 12.1948C116.238 11.106 115.352 10.245 114.288 10.245H100.108V12.466Z" fill="white"/>
<path fill-rule="evenodd" clip-rule="evenodd" d="M120.631 0.998047L161.293 5.46853L167.999 23.1833H125.445L122.542 18.6215C124.998 17.4821 126.206 14.8535 126.206 12.1947C126.206 9.09483 124.189 5.89095 120.956 4.84643L120.631 0.998047ZM135.536 10.5469H143.321C145.106 10.5469 146.282 11.753 146.282 13.2383C146.282 14.7236 145.106 15.9297 143.321 15.9297H137.729V17.5247H135.536V10.5469ZM137.729 14.0059H143.321C143.74 14.0059 144.089 13.6669 144.089 13.2383C144.089 12.8097 143.74 12.4707 143.321 12.4707H137.729V14.0059ZM133.539 17.5247H131.346V15.4612H133.539V17.5247ZM150.271 15.6008V10.5469H148.078V17.5247H157.538V15.6008H150.271Z" fill="white"/>
<path d="M101.238 5.23816L99.9552 3.95519C99.6027 3.6027 99.8524 3 100.351 3H104.062C105.079 3 105.219 4.47074 104.22 4.66328L101.238 5.23816Z" fill="white"/>
<path d="M3.45156 35.9367C3.27326 36.0024 3.08557 36.0494 2.8885 36.0775C2.69143 36.1057 2.46151 36.1197 2.19875 36.1197C1.85153 36.1197 1.56296 36.0822 1.33304 36.0071C1.10781 35.932 0.92951 35.8077 0.798128 35.6341C0.666747 35.4605 0.572903 35.2259 0.516597 34.9303C0.46029 34.6347 0.432137 34.264 0.432137 33.8182C0.432137 33.3678 0.46029 32.9947 0.516597 32.6991C0.577595 32.3988 0.678477 32.1619 0.819243 31.9883C0.960009 31.8146 1.15004 31.6927 1.38934 31.6223C1.62865 31.5472 1.93364 31.5097 2.30432 31.5097C2.42163 31.5097 2.55066 31.5167 2.69143 31.5308C2.83219 31.5448 2.96592 31.5636 3.09261 31.5871C3.22399 31.6105 3.32722 31.6387 3.4023 31.6715L3.26857 32.5161C3.16534 32.488 3.05038 32.4645 2.92369 32.4457C2.80169 32.427 2.68204 32.4129 2.56474 32.4035C2.44743 32.3894 2.35124 32.3824 2.27617 32.3824C2.01341 32.3824 1.82806 32.4152 1.72014 32.4809C1.61222 32.5466 1.55826 32.685 1.55826 32.8962V35.1555C1.66618 35.1789 1.7788 35.1977 1.8961 35.2118C2.0181 35.2259 2.13775 35.2329 2.25505 35.2329C2.45213 35.2329 2.64685 35.2188 2.83923 35.1907C3.03161 35.1578 3.20522 35.1156 3.36007 35.064L3.45156 35.9367ZM6.63303 36.0142L7.85066 31.6152H9.46243L10.6801 36.0142H9.63135L8.68821 32.6076H8.62487L7.68174 36.0142H6.63303ZM7.36502 35.1696V34.3883H9.95511V35.1696H7.36502ZM14.1058 35.0429C14.3216 35.1039 14.5515 35.1531 14.7955 35.1907C15.0395 35.2235 15.2788 35.2399 15.5134 35.2399C15.6307 35.2399 15.7387 35.2376 15.8372 35.2329C15.9404 35.2282 16.0601 35.2165 16.1961 35.1977V34.3461L15.5416 34.2898C15.2507 34.2663 15.0067 34.2264 14.8096 34.1701C14.6125 34.1138 14.4553 34.0364 14.338 33.9379C14.2207 33.8393 14.1363 33.7126 14.0847 33.5578C14.0377 33.403 14.0143 33.2106 14.0143 32.9807C14.0143 32.6194 14.0635 32.3308 14.1621 32.1149C14.2606 31.8991 14.4225 31.7443 14.6477 31.6504C14.8776 31.5566 15.1803 31.5097 15.5557 31.5097C15.8231 31.5097 16.0812 31.5237 16.3299 31.5519C16.5833 31.58 16.8366 31.6223 17.09 31.6786L16.9563 32.5161C16.7311 32.4739 16.5246 32.4434 16.3369 32.4246C16.1539 32.4059 15.9568 32.3965 15.7457 32.3965C15.6096 32.3965 15.4994 32.3988 15.4149 32.4035C15.3351 32.4082 15.246 32.4176 15.1474 32.4317V33.2903L15.795 33.3396C16.1703 33.3678 16.4683 33.4335 16.6888 33.5367C16.914 33.6352 17.0759 33.7807 17.1745 33.9731C17.2777 34.1607 17.3293 34.4094 17.3293 34.7191C17.3293 35.0523 17.2707 35.3221 17.1534 35.5285C17.036 35.735 16.8484 35.8851 16.5903 35.979C16.3369 36.0728 16.0014 36.1197 15.5838 36.1197C15.2929 36.1197 15.0137 36.1033 14.7463 36.0705C14.4788 36.0376 14.216 35.9837 13.958 35.9086L14.1058 35.0429ZM22.0511 34.7543V36.0142H21.0024V31.6152H22.8676C23.2195 31.6152 23.501 31.6668 23.7122 31.7701C23.928 31.8686 24.0828 32.0328 24.1767 32.2628C24.2752 32.488 24.3245 32.7906 24.3245 33.1707C24.3245 33.7244 24.2166 34.1279 24.0007 34.3813C23.7849 34.63 23.4424 34.7543 22.9731 34.7543H22.0511ZM22.0511 33.9731H22.8394C22.9849 33.9731 23.0834 33.9519 23.135 33.9097C23.1913 33.8675 23.2195 33.7901 23.2195 33.6774V32.7765C23.2195 32.6639 23.1913 32.5865 23.135 32.5443C23.0834 32.5021 22.9849 32.4809 22.8394 32.4809H22.0511V33.9731ZM28.9387 34.2053V35.1485H30.7405V36.0142H27.89V31.6152H30.7476L30.6139 32.4809H28.9387V33.4241H30.4801V34.2053H28.9387ZM35.5308 34.5995V36.0142H34.4821V31.6152H36.3825C36.7344 31.6152 37.0159 31.6668 37.227 31.7701C37.4429 31.8686 37.5977 32.0328 37.6916 32.2628C37.7901 32.488 37.8394 32.7906 37.8394 33.1707C37.8394 33.6681 37.7315 34.0317 37.5156 34.2616C37.3045 34.4869 36.9619 34.5995 36.488 34.5995H35.5308ZM35.5308 33.8112H36.3543C36.4998 33.8112 36.5983 33.7901 36.6499 33.7478C36.7062 33.7056 36.7344 33.6282 36.7344 33.5156V32.7765C36.7344 32.6639 36.7062 32.5865 36.6499 32.5443C36.5983 32.5021 36.4998 32.4809 36.3543 32.4809H35.5308V33.8112ZM37.0441 33.9449L38.0294 36.0142H36.8892L36.115 34.3602L37.0441 33.9449ZM46.2512 36.0142V31.6152H47.2858L48.6231 33.7689C48.6888 33.8816 48.7333 33.9707 48.7568 34.0364C48.785 34.1021 48.799 34.1701 48.799 34.2405H48.8413V31.6152H49.89V36.0142H48.8624L47.5251 33.8604C47.4594 33.7478 47.4125 33.6587 47.3843 33.593C47.3609 33.5273 47.3468 33.4593 47.3421 33.3889H47.2999V36.0142H46.2512ZM54.9221 34.2053V35.1485H56.7239V36.0142H53.8734V31.6152H56.731L56.5972 32.4809H54.9221V33.4241H56.4635V34.2053H54.9221ZM62.1688 32.4809V36.0142H61.1201V32.4809H60.0432V31.6152H63.2456V32.4809H62.1688ZM66.4453 31.6152H67.494L67.9867 35.0218H68.05L68.7468 31.6152H69.5492L68.6975 36.0142H67.1069L66.4453 31.6152ZM72.1745 31.6152L71.5129 36.0142H69.9222L69.0706 31.6152H69.8729L70.5697 35.0218H70.6331L71.1258 31.6152H72.1745ZM75.6461 33.8182C75.6461 33.3584 75.6743 32.9807 75.7306 32.685C75.7916 32.3847 75.8948 32.1501 76.0403 31.9812C76.1858 31.8076 76.3828 31.6856 76.6315 31.6152C76.8849 31.5448 77.204 31.5097 77.5887 31.5097C77.9688 31.5097 78.2855 31.5448 78.5389 31.6152C78.7923 31.6856 78.9893 31.8076 79.1301 31.9812C79.2756 32.1501 79.3788 32.3847 79.4398 32.685C79.5008 32.9807 79.5313 33.3584 79.5313 33.8182C79.5313 34.278 79.5008 34.6558 79.4398 34.9514C79.3788 35.247 79.2756 35.4816 79.1301 35.6552C78.9893 35.8241 78.7923 35.9438 78.5389 36.0142C78.2855 36.0845 77.9688 36.1197 77.5887 36.1197C77.204 36.1197 76.8849 36.0845 76.6315 36.0142C76.3828 35.9438 76.1858 35.8241 76.0403 35.6552C75.8948 35.4816 75.7916 35.247 75.7306 34.9514C75.6743 34.6558 75.6461 34.278 75.6461 33.8182ZM76.7723 35.2259H77.821C78.0415 35.2259 78.194 35.193 78.2785 35.1273C78.3629 35.0616 78.4052 34.9467 78.4052 34.7825V32.4035H77.3424C77.1265 32.4035 76.9764 32.4364 76.8919 32.5021C76.8122 32.5677 76.7723 32.6827 76.7723 32.8469V35.2259ZM84.3697 34.5995V36.0142H83.321V31.6152H85.2213C85.5732 31.6152 85.8547 31.6668 86.0659 31.7701C86.2817 31.8686 86.4366 32.0328 86.5304 32.2628C86.629 32.488 86.6782 32.7906 86.6782 33.1707C86.6782 33.6681 86.5703 34.0317 86.3545 34.2616C86.1433 34.4869 85.8008 34.5995 85.3269 34.5995H84.3697ZM84.3697 33.8112H85.1932C85.3386 33.8112 85.4371 33.7901 85.4888 33.7478C85.5451 33.7056 85.5732 33.6282 85.5732 33.5156V32.7765C85.5732 32.6639 85.5451 32.5865 85.4888 32.5443C85.4371 32.5021 85.3386 32.4809 85.1932 32.4809H84.3697V33.8112ZM85.8829 33.9449L86.8683 36.0142H85.7281L84.9538 34.3602L85.8829 33.9449ZM92.9533 36.0142L92.4184 34.881C92.3527 34.7496 92.2964 34.6229 92.2495 34.5009C92.2072 34.3742 92.1861 34.2569 92.1861 34.149H91.4471V33.3607H92.1861C92.1861 33.2528 92.2072 33.1378 92.2495 33.0158C92.2964 32.8892 92.3527 32.7601 92.4184 32.6287L92.9181 31.6152H94.0442L93.0026 33.7549L94.0794 36.0142H92.9533ZM90.511 36.0142V31.6152H91.5597V36.0142H90.511ZM104.993 35.9367C104.814 36.0024 104.627 36.0494 104.43 36.0775C104.232 36.1057 104.003 36.1197 103.74 36.1197C103.393 36.1197 103.104 36.0822 102.874 36.0071C102.649 35.932 102.471 35.8077 102.339 35.6341C102.208 35.4605 102.114 35.2259 102.058 34.9303C102.001 34.6347 101.973 34.264 101.973 33.8182C101.973 33.3678 102.001 32.9947 102.058 32.6991C102.119 32.3988 102.22 32.1619 102.36 31.9883C102.501 31.8146 102.691 31.6927 102.93 31.6223C103.17 31.5472 103.475 31.5097 103.845 31.5097C103.963 31.5097 104.092 31.5167 104.232 31.5308C104.373 31.5448 104.507 31.5636 104.634 31.5871C104.765 31.6105 104.868 31.6387 104.943 31.6715L104.81 32.5161C104.706 32.488 104.591 32.4645 104.465 32.4457C104.343 32.427 104.223 32.4129 104.106 32.4035C103.988 32.3894 103.892 32.3824 103.817 32.3824C103.554 32.3824 103.369 32.4152 103.261 32.4809C103.153 32.5466 103.099 32.685 103.099 32.8962V35.1555C103.207 35.1789 103.32 35.1977 103.437 35.2118C103.559 35.2259 103.679 35.2329 103.796 35.2329C103.993 35.2329 104.188 35.2188 104.38 35.1907C104.573 35.1578 104.746 35.1156 104.901 35.064L104.993 35.9367ZM108.442 33.8182C108.442 33.3584 108.47 32.9807 108.526 32.685C108.587 32.3847 108.69 32.1501 108.836 31.9812C108.981 31.8076 109.178 31.6856 109.427 31.6152C109.68 31.5448 109.999 31.5097 110.384 31.5097C110.764 31.5097 111.081 31.5448 111.334 31.6152C111.588 31.6856 111.785 31.8076 111.926 31.9812C112.071 32.1501 112.174 32.3847 112.235 32.685C112.296 32.9807 112.327 33.3584 112.327 33.8182C112.327 34.278 112.296 34.6558 112.235 34.9514C112.174 35.247 112.071 35.4816 111.926 35.6552C111.785 35.8241 111.588 35.9438 111.334 36.0142C111.081 36.0845 110.764 36.1197 110.384 36.1197C109.999 36.1197 109.68 36.0845 109.427 36.0142C109.178 35.9438 108.981 35.8241 108.836 35.6552C108.69 35.4816 108.587 35.247 108.526 34.9514C108.47 34.6558 108.442 34.278 108.442 33.8182ZM109.568 35.2259H110.616C110.837 35.2259 110.989 35.193 111.074 35.1273C111.158 35.0616 111.201 34.9467 111.201 34.7825V32.4035H110.138C109.922 32.4035 109.772 32.4364 109.687 32.5021C109.608 32.5677 109.568 32.6827 109.568 32.8469V35.2259ZM116.011 36.0142L116.292 31.6152H117.658L118.425 34.3954H118.474L119.241 31.6152H120.6L120.881 36.0142H119.84L119.671 33.1988H119.628L118.861 36.0142H118.038L117.271 33.1988H117.228L117.052 36.0142H116.011ZM124.617 36.0142L124.898 31.6152H126.264L127.031 34.3954H127.08L127.847 31.6152H129.206L129.487 36.0142H128.446L128.277 33.1988H128.234L127.467 36.0142H126.644L125.877 33.1988H125.834L125.658 36.0142H124.617ZM135.074 36.1197C134.708 36.1197 134.407 36.0963 134.173 36.0494C133.938 36.0024 133.753 35.9203 133.617 35.803C133.485 35.6857 133.392 35.5238 133.335 35.3174C133.284 35.1109 133.258 34.8482 133.258 34.5291V31.6152H134.307V35.2259H135.102C135.304 35.2259 135.456 35.2165 135.559 35.1977C135.663 35.1743 135.735 35.1367 135.778 35.0851C135.82 35.0288 135.841 34.9514 135.841 34.8528V31.6152H136.89V34.5291C136.89 34.8435 136.862 35.1062 136.805 35.3174C136.749 35.5238 136.653 35.6857 136.517 35.803C136.385 35.9203 136.202 36.0024 135.968 36.0494C135.733 36.0963 135.435 36.1197 135.074 36.1197ZM140.794 36.0142V31.6152H141.829L143.166 33.7689C143.232 33.8816 143.276 33.9707 143.3 34.0364C143.328 34.1021 143.342 34.1701 143.342 34.2405H143.384V31.6152H144.433V36.0142H143.405L142.068 33.8604C142.002 33.7478 141.955 33.6587 141.927 33.593C141.904 33.5273 141.89 33.4593 141.885 33.3889H141.843V36.0142H140.794ZM148.416 31.6152H149.465V36.0142H148.416V31.6152ZM155.117 32.4809V36.0142H154.068V32.4809H152.991V31.6152H156.194V32.4809H155.117ZM160.907 33.9379L161.829 31.6152H162.927L161.625 34.5502V36.0142H160.576V34.5502L159.274 31.6152H160.365L161.287 33.9379H160.907Z" fill="white"/>
</svg>
