<svg width="249" height="81" viewBox="0 0 249 81" fill="none" xmlns="http://www.w3.org/2000/svg">
<g clip-path="url(#clip0_1602_4551)">
<path d="M105.082 26.7798C104.061 25.1232 102.627 23.838 100.784 22.924C98.9419 22.0101 96.8198 21.5566 94.4181 21.5566H84.3705V43.581H94.4181C96.8198 43.581 98.9419 43.124 100.784 42.2136C102.627 41.2997 104.061 40.018 105.082 38.3579C106.104 36.7013 106.613 34.7698 106.613 32.567C106.613 30.3642 106.1 28.4364 105.082 26.7762V26.7798ZM99.4581 37.5581C98.1425 38.7863 96.3789 39.4003 94.1672 39.4003H89.4929V25.7444H94.1672C96.3789 25.7444 98.1425 26.3585 99.4581 27.5867C100.774 28.8148 101.433 30.4749 101.433 32.5742C101.433 34.6734 100.774 36.3336 99.4581 37.5617V37.5581Z" fill="white"/>
<path d="M126.328 39.618C127.128 38.297 127.529 36.7975 127.529 35.1196C127.529 33.4416 127.128 31.9421 126.328 30.6212C125.529 29.3002 124.421 28.2684 123.012 27.5222C121.6 26.7797 120.001 26.4048 118.209 26.4048C116.417 26.4048 114.814 26.7761 113.391 27.5222C111.968 28.2684 110.857 29.3002 110.058 30.6212C109.258 31.9421 108.857 33.4416 108.857 35.1196C108.857 36.7975 109.258 38.297 110.058 39.618C110.857 40.9389 111.968 41.9743 113.391 42.7169C114.814 43.4631 116.42 43.8344 118.209 43.8344C119.998 43.8344 121.6 43.4631 123.012 42.7169C124.425 41.9743 125.529 40.9389 126.328 39.618ZM121.32 38.5326C120.51 39.3824 119.471 39.8072 118.209 39.8072C116.947 39.8072 115.904 39.3824 115.083 38.5326C114.262 37.683 113.85 36.5441 113.85 35.1196C113.85 33.6951 114.262 32.5562 115.083 31.7065C115.904 30.8568 116.947 30.4319 118.209 30.4319C119.471 30.4319 120.51 30.8568 121.32 31.7065C122.131 32.5562 122.536 33.6951 122.536 35.1196C122.536 36.5441 122.131 37.683 121.32 38.5326Z" fill="white"/>
<path d="M176.147 35.5912C176.147 34.0167 176.548 32.8386 177.348 32.0531C178.147 31.2677 179.255 30.875 180.663 30.875C180.853 30.875 181.223 30.8964 181.767 30.9392V26.4087C180.463 26.4087 179.308 26.6193 178.308 27.037C177.308 27.4583 176.512 28.076 175.925 28.8935V26.6586H171.218V43.5883H176.147V35.5947V35.5912Z" fill="white"/>
<path d="M185.295 34.9913C184.105 35.8946 183.51 37.1299 183.51 38.7043C183.51 39.6897 183.76 40.5715 184.269 41.3462C184.775 42.121 185.506 42.7315 186.467 43.1706C187.424 43.6097 188.557 43.8311 189.861 43.8311C192.389 43.8311 194.116 43.0456 195.041 41.4712V43.5776H199.655V33.9167C199.655 31.3998 198.948 29.5183 197.54 28.2687C196.127 27.0227 194.106 26.3979 191.474 26.3979C190.105 26.3979 188.772 26.5765 187.478 26.9335C186.184 27.2905 185.072 27.7939 184.144 28.4437L185.915 31.8746C186.524 31.3926 187.266 31.0106 188.141 30.725C189.015 30.4429 189.904 30.3001 190.811 30.3001C192.116 30.3001 193.095 30.5893 193.751 31.1641C194.403 31.7425 194.729 32.5636 194.729 33.6347H190.811C188.327 33.6347 186.488 34.0845 185.298 34.9878L185.295 34.9913ZM194.726 36.5015V38.2331C194.453 38.9899 193.987 39.5612 193.335 39.9467C192.682 40.3359 191.933 40.5287 191.091 40.5287C190.249 40.5287 189.55 40.3466 189.055 39.9789C188.56 39.6111 188.313 39.1149 188.313 38.483C188.313 37.162 189.324 36.5015 191.345 36.5015H194.726Z" fill="white"/>
<path d="M212.48 30.4287C214.143 30.4287 215.42 31.2034 216.301 32.7564L220.123 30.7107C219.513 29.3255 218.538 28.2616 217.201 27.5154C215.864 26.7728 214.301 26.3979 212.509 26.3979C210.717 26.3979 209.071 26.7692 207.627 27.5154C206.182 28.2616 205.056 29.2934 204.246 30.6143C203.436 31.9353 203.031 33.4348 203.031 35.1127C203.031 36.7907 203.436 38.2902 204.246 39.6111C205.056 40.9321 206.186 41.9675 207.627 42.7101C209.068 43.4562 210.695 43.8275 212.509 43.8275C214.323 43.8275 215.864 43.4491 217.201 42.6958C218.538 41.9389 219.513 40.8928 220.123 39.5505L216.301 37.4726C215.437 39.0256 214.165 39.8004 212.48 39.8004C211.197 39.8004 210.132 39.3827 209.29 38.5401C208.448 37.7011 208.025 36.5586 208.025 35.1092C208.025 33.6597 208.444 32.5172 209.29 31.6782C210.132 30.8392 211.197 30.418 212.48 30.418V30.4287Z" fill="white"/>
<path d="M227.768 20.2358H222.84V43.5812H227.768V20.2358Z" fill="white"/>
<path d="M249 35.1804C249 33.4168 248.616 31.8709 247.846 30.5392C247.075 29.2075 246.018 28.1865 244.67 27.4724C243.322 26.7584 241.816 26.4014 240.153 26.4014C238.49 26.4014 236.906 26.7727 235.526 27.5188C234.145 28.265 233.063 29.3003 232.271 30.6356C231.482 31.9673 231.084 33.4632 231.084 35.1197C231.084 36.7763 231.486 38.2972 232.285 39.6181C233.084 40.9391 234.224 41.9744 235.698 42.717C237.171 43.4632 238.866 43.8345 240.784 43.8345C243.86 43.8345 246.197 42.9205 247.799 41.0962L245.175 38.265C244.584 38.8327 243.949 39.2468 243.265 39.5075C242.58 39.7717 241.795 39.9002 240.91 39.9002C239.626 39.9002 238.551 39.5967 237.687 38.9862C236.823 38.3793 236.275 37.551 236.045 36.5014H248.903C248.968 35.6838 248.996 35.2411 248.996 35.1804H249ZM235.984 33.6381C236.153 32.5492 236.615 31.6888 237.375 31.0569C238.135 30.4285 239.071 30.1143 240.185 30.1143C241.3 30.1143 242.207 30.4357 242.967 31.0747C243.727 31.7138 244.189 32.5706 244.358 33.6381H235.984Z" fill="white"/>
<path d="M113.528 53.8166C113.126 53.1418 112.563 52.617 111.839 52.2386C111.115 51.8601 110.28 51.6709 109.337 51.6709H105.695V60.5785H109.337C110.28 60.5785 111.115 60.3893 111.839 60.0144C112.563 59.6359 113.126 59.1111 113.528 58.4364C113.925 57.7616 114.126 56.9905 114.126 56.1265C114.126 55.2625 113.925 54.4913 113.528 53.8166ZM112.71 58.0151C112.384 58.5613 111.929 58.9897 111.341 59.3004C110.753 59.611 110.068 59.7645 109.283 59.7645H106.642V52.4849H109.283C110.068 52.4849 110.753 52.642 111.341 52.9526C111.929 53.2596 112.384 53.688 112.71 54.2379C113.033 54.7841 113.194 55.4124 113.194 56.1265C113.194 56.8405 113.033 57.4689 112.71 58.0151Z" fill="white"/>
<path d="M121.772 55.4768C121.478 54.9591 121.073 54.5556 120.553 54.2665C120.034 53.9809 119.449 53.8345 118.804 53.8345C118.159 53.8345 117.571 53.9809 117.051 54.2665C116.531 54.5556 116.123 54.9591 115.825 55.4768C115.528 55.9944 115.381 56.5799 115.381 57.2333C115.381 57.8866 115.528 58.4721 115.825 58.9898C116.123 59.5075 116.531 59.9109 117.051 60.2037C117.571 60.4964 118.155 60.6428 118.804 60.6428C119.453 60.6428 120.034 60.4964 120.553 60.2037C121.073 59.9109 121.478 59.5075 121.772 58.9898C122.066 58.4721 122.213 57.8866 122.213 57.2333C122.213 56.5799 122.066 55.9944 121.772 55.4768ZM120.976 58.5935C120.761 58.9934 120.467 59.3004 120.087 59.5182C119.707 59.7324 119.281 59.8431 118.804 59.8431C118.327 59.8431 117.897 59.7324 117.521 59.5182C117.141 59.3004 116.843 58.9934 116.625 58.5935C116.406 58.1972 116.298 57.7438 116.298 57.2333C116.298 56.7227 116.406 56.2693 116.625 55.873C116.843 55.4732 117.141 55.1661 117.521 54.9484C117.897 54.7342 118.327 54.6235 118.804 54.6235C119.281 54.6235 119.707 54.7342 120.087 54.9484C120.467 55.1661 120.761 55.4732 120.976 55.873C121.188 56.2693 121.295 56.7227 121.295 57.2333C121.295 57.7438 121.188 58.1972 120.976 58.5935Z" fill="white"/>
<path d="M126.83 59.7754C126.654 59.8361 126.475 59.8647 126.285 59.8647C125.909 59.8647 125.622 59.7612 125.421 59.5541C125.22 59.347 125.12 59.0436 125.12 58.6437V54.6487H127.163V53.8847H125.12V52.4209H124.213V53.8847H123.012V54.6487H124.213V58.6937C124.213 59.3113 124.382 59.7933 124.726 60.1325C125.066 60.4716 125.55 60.643 126.181 60.643C126.454 60.643 126.715 60.6037 126.966 60.5216C127.217 60.4395 127.429 60.3253 127.597 60.1717L127.278 59.522C127.149 59.6326 126.998 59.7183 126.823 59.7754H126.83Z" fill="white"/>
<path d="M137.43 53.8026C137.021 53.1135 136.462 52.5708 135.752 52.1817C135.039 51.7926 134.239 51.5962 133.354 51.5962C132.469 51.5962 131.666 51.7925 130.949 52.1888C130.228 52.5816 129.665 53.1242 129.26 53.8097C128.855 54.4987 128.655 55.2699 128.655 56.1267C128.655 56.9836 128.855 57.7547 129.26 58.4438C129.665 59.1292 130.228 59.6683 130.949 60.0646C131.666 60.4574 132.469 60.6573 133.354 60.6573C134.239 60.6573 135.039 60.4609 135.752 60.0718C136.462 59.6791 137.021 59.14 137.43 58.4473C137.838 57.7583 138.043 56.9836 138.043 56.1267C138.043 55.2699 137.838 54.4952 137.43 53.8026ZM136.612 58.0154C136.29 58.5794 135.842 59.0221 135.272 59.3399C134.702 59.6576 134.064 59.8147 133.354 59.8147C132.644 59.8147 132.006 59.6576 131.433 59.3399C130.859 59.0221 130.407 58.5794 130.078 58.0154C129.751 57.4513 129.587 56.8229 129.587 56.1267C129.587 55.4306 129.751 54.8022 130.078 54.2381C130.407 53.674 130.859 53.2313 131.433 52.9136C132.006 52.5958 132.648 52.4352 133.354 52.4352C134.06 52.4352 134.702 52.5958 135.272 52.9136C135.842 53.2313 136.29 53.674 136.612 54.2381C136.939 54.8022 137.1 55.4306 137.1 56.1267C137.1 56.8229 136.939 57.4513 136.612 58.0154Z" fill="white"/>
<path d="M140.842 55.1947V53.8845H139.975V60.5785H140.882V57.169C140.882 56.3871 141.082 55.7838 141.484 55.3482C141.885 54.9162 142.437 54.6985 143.143 54.6985L143.362 54.7127V53.8345C142.742 53.8345 142.219 53.9487 141.796 54.1772C141.373 54.4057 141.057 54.7449 140.842 55.1947Z" fill="white"/>
<path d="M149.352 54.4914C148.882 54.0523 148.208 53.8345 147.334 53.8345C146.803 53.8345 146.301 53.913 145.825 54.0701C145.348 54.2272 144.939 54.4521 144.599 54.7377L145.007 55.4125C145.287 55.1662 145.624 54.9734 146.015 54.8341C146.409 54.6949 146.818 54.6235 147.244 54.6235C147.864 54.6235 148.338 54.7734 148.66 55.0769C148.986 55.3768 149.148 55.8159 149.148 56.3943V56.8013H147.011C146.111 56.8013 145.452 56.9727 145.04 57.3225C144.627 57.6688 144.42 58.1294 144.42 58.697C144.42 59.2647 144.642 59.7538 145.083 60.1073C145.527 60.4643 146.122 60.6428 146.871 60.6428C147.416 60.6428 147.889 60.5464 148.284 60.35C148.682 60.1572 148.979 59.8859 149.183 59.536V60.5785H150.055V56.43C150.055 55.5731 149.818 54.9269 149.352 54.4914ZM149.148 58.5685C148.968 59.0112 148.696 59.3468 148.33 59.5824C147.961 59.8145 147.524 59.9323 147.011 59.9323C146.499 59.9323 146.058 59.8181 145.76 59.5932C145.463 59.3682 145.312 59.0612 145.312 58.6721C145.312 57.8723 145.889 57.476 147.04 57.476H149.148V58.5685Z" fill="white"/>
<path d="M154.019 54.9486C154.406 54.7308 154.844 54.6237 155.327 54.6237C155.729 54.6237 156.098 54.7058 156.439 54.8736C156.779 55.0378 157.059 55.2877 157.281 55.6197L157.959 55.1628C157.693 54.7308 157.335 54.4023 156.88 54.1774C156.424 53.9525 155.905 53.8418 155.327 53.8418C154.664 53.8418 154.069 53.9846 153.546 54.2738C153.023 54.563 152.61 54.9664 152.313 55.4841C152.015 56.0018 151.865 56.5873 151.865 57.2406C151.865 57.8939 152.015 58.483 152.313 59.0043C152.61 59.5255 153.023 59.9325 153.546 60.2181C154.069 60.5073 154.664 60.6501 155.327 60.6501C155.897 60.6501 156.414 60.5394 156.872 60.3145C157.331 60.0896 157.693 59.7611 157.959 59.3291L157.281 58.8722C157.059 59.2042 156.779 59.4505 156.439 59.6112C156.098 59.7718 155.729 59.854 155.327 59.854C154.844 59.854 154.406 59.7469 154.019 59.5291C153.632 59.3113 153.331 59.0078 153.112 58.6115C152.894 58.2153 152.786 57.7618 152.786 57.2442C152.786 56.7265 152.894 56.2802 153.112 55.8839C153.331 55.4841 153.632 55.177 154.019 54.9628V54.9486Z" fill="white"/>
<path d="M160.539 51.1357H159.633V60.5788H160.539V51.1357Z" fill="white"/>
<path d="M168.938 57.2333C168.938 56.5728 168.798 55.9837 168.515 55.4696C168.236 54.9591 167.845 54.5556 167.354 54.2665C166.859 53.9809 166.3 53.8345 165.68 53.8345C165.06 53.8345 164.497 53.9809 163.999 54.2665C163.5 54.5556 163.11 54.9591 162.823 55.4768C162.54 55.9944 162.396 56.5799 162.396 57.2333C162.396 57.8866 162.543 58.4721 162.844 58.9898C163.142 59.5075 163.558 59.9109 164.088 60.2037C164.622 60.4964 165.232 60.6428 165.924 60.6428C166.458 60.6428 166.949 60.55 167.397 60.3643C167.845 60.1787 168.218 59.9038 168.515 59.5503L168.006 58.9648C167.748 59.2504 167.447 59.4718 167.096 59.6182C166.748 59.7681 166.364 59.8431 165.949 59.8431C165.207 59.8431 164.594 59.6289 164.106 59.2004C163.622 58.772 163.353 58.2079 163.303 57.5117H168.924L168.938 57.2333ZM163.303 56.837C163.361 56.1765 163.611 55.641 164.049 55.2304C164.49 54.8163 165.031 54.6128 165.68 54.6128C166.329 54.6128 166.881 54.8163 167.322 55.2304C167.759 55.641 168.01 56.1765 168.067 56.837H163.303Z" fill="white"/>
<path d="M180.868 58.8969L175.107 51.6709H174.326V60.5785H175.272V53.3489L181.022 60.5785H181.8V51.6709H180.868V58.8969Z" fill="white"/>
<path d="M190.388 57.2333C190.388 56.5728 190.249 55.9837 189.965 55.4696C189.686 54.9591 189.299 54.5556 188.804 54.2665C188.309 53.9809 187.75 53.8345 187.13 53.8345C186.51 53.8345 185.947 53.9809 185.449 54.2665C184.951 54.5556 184.56 54.9591 184.273 55.4768C183.99 55.9944 183.846 56.5799 183.846 57.2333C183.846 57.8866 183.997 58.4721 184.295 58.9898C184.592 59.5075 185.008 59.9109 185.538 60.2037C186.073 60.4964 186.682 60.6428 187.374 60.6428C187.911 60.6428 188.403 60.55 188.847 60.3643C189.295 60.1787 189.668 59.9038 189.965 59.5503L189.456 58.9648C189.198 59.2504 188.897 59.4718 188.549 59.6182C188.198 59.7681 187.815 59.8431 187.399 59.8431C186.657 59.8431 186.044 59.6289 185.56 59.2004C185.072 58.772 184.804 58.2079 184.753 57.5117H190.374L190.388 57.2333ZM184.753 56.837C184.814 56.1765 185.062 55.641 185.503 55.2304C185.94 54.8163 186.481 54.6128 187.13 54.6128C187.779 54.6128 188.334 54.8163 188.772 55.2304C189.209 55.641 189.46 56.1765 189.521 56.837H184.753Z" fill="white"/>
<path d="M195.005 59.7754C194.83 59.8361 194.65 59.8647 194.46 59.8647C194.084 59.8647 193.797 59.7612 193.597 59.5541C193.396 59.347 193.295 59.0436 193.295 58.6437V54.6487H195.339V53.8847H193.295V52.4209H192.389V53.8847H191.188V54.6487H192.389V58.6937C192.389 59.3113 192.561 59.7933 192.901 60.1325C193.242 60.4716 193.726 60.643 194.357 60.643C194.629 60.643 194.891 60.6037 195.142 60.5216C195.392 60.4395 195.604 60.3253 195.772 60.1717L195.453 59.522C195.324 59.6326 195.174 59.7183 194.998 59.7754H195.005Z" fill="white"/>
<path d="M204.196 59.572L202.053 53.8848H201.271L199.113 59.572L197.006 53.8848H196.134L198.665 60.5788H199.522L201.644 55.0951L203.762 60.5788H204.619L207.161 53.8848H206.333L204.196 59.572Z" fill="white"/>
<path d="M214.057 55.4768C213.763 54.9591 213.355 54.5556 212.835 54.2665C212.315 53.9809 211.735 53.8345 211.086 53.8345C210.437 53.8345 209.856 53.9809 209.337 54.2665C208.817 54.5556 208.408 54.9591 208.111 55.4768C207.809 55.9944 207.663 56.5799 207.663 57.2333C207.663 57.8866 207.809 58.4721 208.111 58.9898C208.408 59.5075 208.817 59.9109 209.337 60.2037C209.856 60.4964 210.437 60.6428 211.086 60.6428C211.735 60.6428 212.315 60.4964 212.835 60.2037C213.355 59.9109 213.763 59.5075 214.057 58.9898C214.351 58.4721 214.498 57.8866 214.498 57.2333C214.498 56.5799 214.351 55.9944 214.057 55.4768ZM213.258 58.5935C213.043 58.9934 212.749 59.3004 212.369 59.5182C211.989 59.7324 211.563 59.8431 211.086 59.8431C210.609 59.8431 210.179 59.7324 209.802 59.5182C209.423 59.3004 209.125 58.9934 208.906 58.5935C208.691 58.1972 208.58 57.7438 208.58 57.2333C208.58 56.7227 208.691 56.2693 208.906 55.873C209.125 55.4732 209.423 55.1661 209.802 54.9484C210.179 54.7342 210.609 54.6235 211.086 54.6235C211.563 54.6235 211.989 54.7342 212.369 54.9484C212.749 55.1661 213.043 55.4732 213.258 55.873C213.47 56.2693 213.577 56.7227 213.577 57.2333C213.577 57.7438 213.47 58.1972 213.258 58.5935Z" fill="white"/>
<path d="M217.215 55.1947V53.8845H216.348V60.5785H217.255V57.169C217.255 56.3871 217.456 55.7838 217.857 55.3482C218.259 54.9162 218.811 54.6985 219.517 54.6985L219.735 54.7127V53.8345C219.115 53.8345 218.592 53.9487 218.169 54.1772C217.746 54.4057 217.431 54.7449 217.215 55.1947Z" fill="white"/>
<path d="M227.414 53.8848H226.288L222.277 57.5371V51.1357H221.37V60.5788H222.277V58.6688L223.861 57.2193L226.568 60.5788H227.679L224.539 56.6195L227.414 53.8848Z" fill="white"/>
<path d="M40.4808 21.6781C39.6993 21.3961 39.3409 21.4353 39.409 22.3957C39.4771 23.3882 39.4699 24.3914 39.409 25.3875C39.3695 26.0801 39.6061 26.3943 40.2729 26.6478C45.1551 28.4971 48.2199 32.0316 49.6035 37.0013C50.2954 39.4897 50.2344 42.0174 49.5462 44.5201C48.331 48.9613 45.6318 52.2495 41.4594 54.1274C39.8104 54.87 38.9394 55.6126 39.4269 57.1299C39.4269 57.8832 39.4269 58.3295 39.4269 58.7757C39.4269 59.6873 39.8511 60.0003 40.6994 59.7147C50.1627 56.5123 55.8909 46.7586 53.9086 36.9941C52.3673 29.3933 47.7897 24.3308 40.4808 21.6817V21.6781Z" fill="white"/>
<path d="M29.4653 18.1154C28.6803 18.094 28.0064 18.7223 27.9813 19.5006C27.9562 20.2718 28.5979 20.9537 29.3757 20.9787C30.1607 21.0072 30.8275 20.3789 30.849 19.5863C30.8741 18.8009 30.2468 18.1332 29.4653 18.1118V18.1154Z" fill="white"/>
<path d="M19.6686 25.8087C18.8478 25.7873 18.2312 26.3692 18.2061 27.1868C18.181 27.9651 18.8191 28.6398 19.6005 28.6648C20.3461 28.6862 21.0595 28.0079 21.0846 27.2546C21.1096 26.4727 20.4823 25.8301 19.6722 25.8087H19.6686Z" fill="white"/>
<path d="M29.2969 60.0183C28.4939 60.0612 27.8989 60.7359 27.9455 61.5463C27.9885 62.3139 28.6014 62.8816 29.3793 62.8709C30.1858 62.8602 30.8346 62.1961 30.806 61.4107C30.7773 60.6217 30.0783 59.979 29.2969 60.0183Z" fill="white"/>
<path d="M16.8977 52.6886C16.0733 52.6458 15.4603 53.2599 15.4532 54.0917C15.446 54.9021 16.0805 55.5519 16.8727 55.5483C17.672 55.5448 18.2957 54.895 18.2599 54.0667C18.224 53.2134 17.7545 52.735 16.8977 52.6886Z" fill="white"/>
<path d="M24.895 45.9555C24.1099 45.984 23.4575 46.2518 23.3966 47.1729C23.3392 48.0583 23.9594 48.7545 24.7874 48.7688C25.5545 48.7831 26.2571 48.1012 26.2643 47.3443C26.2678 46.5874 25.6477 45.9269 24.8985 45.9555H24.895Z" fill="white"/>
<path d="M70.7813 52.9243V51.9818C70.7921 51.5998 70.8064 51.2142 70.8243 50.8322C70.8064 50.7394 70.7921 50.643 70.7813 50.5501V48.5187C70.7849 48.4616 70.7921 48.4045 70.7956 48.3473C70.7885 48.3366 70.7849 48.3295 70.7813 48.3188V46.2874C70.7885 44.081 70.7992 41.8782 70.8064 39.6718C70.7956 39.6576 70.7885 39.6433 70.7813 39.629V38.8864C70.7813 38.8864 70.7921 38.8614 70.7992 38.8507C70.7921 38.7436 70.7849 38.6329 70.7813 38.5258V35.7375C70.7921 35.6018 70.8064 35.4697 70.8243 35.3341C70.8136 34.7593 70.7956 34.1881 70.7813 33.6133V25.7732C70.7921 24.1309 70.8064 22.485 70.8172 20.8428C70.8494 20.7999 70.8494 20.7535 70.8172 20.7107C70.81 20.55 70.8028 20.3858 70.7956 20.2251C70.7526 20.168 70.7096 20.1109 70.6666 20.0538C70.4838 19.9609 70.2938 19.8788 70.1146 19.7789C58.8124 13.2811 47.5066 6.78701 36.2115 0.271452C35.6882 -0.0320119 35.2974 -0.124836 34.7239 0.21076C26.9955 4.68775 19.2492 9.14332 11.5029 13.5882C7.82515 15.6982 4.12943 17.7796 0.444475 19.8753C0.311845 19.9895 0.179215 20.1073 0.0465856 20.2216C0.103939 22.5029 0.168462 24.7842 0.0107397 27.0656C0.0394165 27.3012 0.0931853 27.5368 0.0931853 27.776C0.0931853 34.8842 0.0931853 41.9925 0.0896007 49.0971C0.0896007 49.3327 0.0322473 49.5683 0.00357056 49.804C0.179215 53.4634 0.103939 57.1193 0.0465856 60.7787C0.179215 60.8929 0.31543 61.0072 0.44806 61.125C0.785011 61.2964 1.12913 61.4499 1.45891 61.6391C12.5245 67.9976 23.5866 74.356 34.6415 80.7359C35.172 81.043 35.5663 81.1144 36.1327 80.7859C40.9934 77.9583 45.8684 75.1593 50.7434 72.3639C57.3857 68.5545 64.0279 64.7523 70.6738 60.95C70.7168 60.8929 70.7598 60.8358 70.8064 60.7787C70.7562 58.1617 70.7096 55.5448 70.767 52.9279H70.7921L70.7813 52.9243ZM56.8659 44.6629C54.9052 55.7769 45.3271 63.6312 34.2543 63.7241C33.8744 63.7241 33.4944 63.7062 33.1144 63.6741C32.3509 63.6098 31.7021 63.6991 30.9995 64.1811C29.4904 65.22 27.4579 64.6202 26.5367 63.0207C25.6621 61.5034 26.2213 59.5327 27.7841 58.6366C29.261 57.7904 31.297 58.2796 32.0892 59.8254C32.4907 60.6037 32.9495 60.8001 33.7597 60.7965C36.4911 60.7751 36.4911 60.8037 36.5055 58.1296C36.515 56.4183 35.6655 55.5627 33.9568 55.5627C29.4976 55.5627 25.0419 55.5698 20.5827 55.5627C20.0809 55.5627 19.7296 55.6483 19.3675 56.1018C18.1452 57.6298 15.9908 57.7298 14.6072 56.4088C13.2988 55.1557 13.306 53.0671 14.6215 51.7854C15.9658 50.4787 18.0592 50.5609 19.303 52.0496C19.7081 52.5352 20.0988 52.6744 20.6902 52.6708C25.4936 52.6494 30.3005 52.5816 35.1003 52.6815C40.5632 52.7958 45.6641 48.6794 46.7646 43.4526C48.2199 36.5444 44.1406 30.0288 37.2188 28.8328C34.6379 28.3865 31.9781 28.7186 29.3542 28.715C29.3327 28.9935 29.3076 29.2755 29.2861 29.554C29.3076 30.3358 29.39 31.1213 29.3363 31.896C29.2861 32.6457 29.494 32.9064 30.2898 32.8814C31.6591 32.8385 33.032 32.8742 34.4049 32.8957H34.43C34.4515 32.8957 34.4837 32.8957 34.5268 32.8957C34.4837 32.8957 34.4479 32.8957 34.43 32.8957C34.5662 32.8957 34.706 32.8992 34.8422 32.9028C35.2688 32.9207 35.9713 32.9742 36.7922 33.1527C36.9571 33.1884 37.1256 33.2277 37.2976 33.2741C37.7852 33.4026 38.3013 33.5776 38.8139 33.8061C38.986 33.931 39.1581 34.0595 39.3552 34.1345C39.4376 34.1809 39.5237 34.2238 39.6061 34.2702L39.6276 34.2595C40.1044 34.5272 40.5345 34.845 40.9217 35.202C40.6815 34.9699 40.427 34.7629 40.1653 34.5772C40.427 34.7629 40.6815 34.9699 40.9217 35.202C40.9432 35.2234 40.9647 35.2413 40.9862 35.2627C41.0077 35.2805 41.0256 35.302 41.0471 35.3198C44.0725 38.2473 44.1442 43.6312 40.8536 46.8015C39.1831 48.4116 37.1829 49.0471 34.9354 49.0721C32.7596 49.0971 30.5837 49.0828 28.4079 49.0792C27.9168 49.0792 27.5153 49.1399 27.1174 49.5398C25.9775 50.6894 24.5759 50.8715 23.2353 50.1574C21.9448 49.4684 21.3319 48.2759 21.5792 46.9443C21.8767 45.3734 23.0274 44.156 24.558 44.0739C25.6979 44.0132 26.7267 44.5094 27.397 45.4841C27.7089 45.9375 28.0458 46.0553 28.5763 46.0874C30.9565 46.2338 33.3438 46.1981 35.7097 46.0839C38.943 45.9268 41.3733 42.4494 40.0578 39.1899C39.8176 38.5972 39.5058 38.0903 39.1365 37.6226C38.9107 37.2691 38.6383 36.9764 38.3336 36.7407C38.3193 36.7265 38.3085 36.7122 38.2942 36.7015C38.287 36.7015 38.2798 36.7015 38.2762 36.7015C36.6524 35.4769 34.2794 35.7375 34.2758 35.7375H27.3181C26.6371 35.8839 26.2643 35.709 26.4722 34.9342C26.4722 33.0063 26.4722 31.0784 26.4722 29.1506C26.4471 29.0863 26.4435 28.997 26.3969 28.9613C25.7373 28.4151 22.6689 28.6364 22.1062 29.2648C20.8193 30.7071 18.7295 30.8357 17.4103 29.5576C16.059 28.2509 16.0303 26.2623 17.3386 24.9413C18.6506 23.6204 20.7619 23.6703 22.0309 25.1234C22.4395 25.5911 22.8302 25.7625 23.4325 25.7589C27.44 25.7339 31.4512 25.7303 35.4588 25.7589C36.233 25.766 36.5879 25.6054 36.5162 24.745C36.4373 23.7882 36.4338 22.8135 36.5198 21.8567C36.6058 20.9106 36.2115 20.625 35.344 20.7C34.9677 20.7321 34.5841 20.7 34.2041 20.6821C33.2327 20.6393 32.4477 20.7071 31.7487 21.6818C30.7056 23.1348 28.5656 23.1384 27.2393 21.9388C25.9202 20.7428 25.8234 18.7149 27.0242 17.3976C28.2322 16.0766 30.3041 15.9338 31.5587 17.2119C32.1 17.7653 32.6413 17.8046 33.3044 17.7938C43.8108 17.5832 52.7293 23.7632 56.0343 33.574C57.2531 37.1941 57.5147 40.9035 56.848 44.6736L56.8659 44.6629Z" fill="white"/>
<path d="M139.455 39.7969C139.147 39.8861 138.817 39.929 138.458 39.929C137.784 39.929 137.261 39.7362 136.896 39.347C136.526 38.9579 136.343 38.4081 136.343 37.694V30.8036H140.577V27.0264H136.343V22.9028H131.415V27.0264H128.794V30.8036H131.415V37.7583C131.415 39.7505 131.967 41.2606 133.074 42.2888C134.178 43.3171 135.745 43.8312 137.767 43.8312C138.544 43.8312 139.286 43.7419 139.993 43.5634C140.043 43.5491 140.089 43.5348 140.14 43.5206C139.616 42.7851 139.308 41.889 139.308 40.9215C139.308 40.5323 139.362 40.1575 139.455 39.7969Z" fill="white"/>
<path d="M166.135 26.7333C165.081 25.0017 163.64 23.6451 161.808 22.6597C159.977 21.6743 157.912 21.1816 155.618 21.1816C153.324 21.1816 151.252 21.6743 149.409 22.6597C147.567 23.6451 146.122 25.0053 145.083 26.7333C144.04 28.4648 143.52 30.4105 143.52 32.5705C143.52 33.9414 143.731 35.2231 144.151 36.4227C146.509 36.5798 148.384 38.5362 148.384 40.9247C148.384 41.2246 148.352 41.5173 148.298 41.7994C148.653 42.0421 149.022 42.2706 149.413 42.4813C151.255 43.4666 153.324 43.9593 155.621 43.9593C157.919 43.9593 159.98 43.4666 161.812 42.4813C163.644 41.4959 165.088 40.1357 166.139 38.4077C167.192 36.6762 167.719 34.7304 167.719 32.5705C167.719 30.4105 167.192 28.4648 166.139 26.7333H166.135ZM161.633 36.2192C161.034 37.2902 160.206 38.1221 159.152 38.7219C158.098 39.3181 156.919 39.618 155.614 39.618C154.309 39.618 153.13 39.3181 152.076 38.7219C151.022 38.1257 150.198 37.2902 149.596 36.2192C148.997 35.1481 148.696 33.9343 148.696 32.5705C148.696 31.2067 148.997 29.9892 149.596 28.9218C150.194 27.8507 151.022 27.0189 152.076 26.4191C153.13 25.8229 154.309 25.523 155.614 25.523C156.919 25.523 158.098 25.8229 159.152 26.4191C160.206 27.0153 161.031 27.8507 161.633 28.9218C162.231 29.9928 162.533 31.2067 162.533 32.5705C162.533 33.9343 162.231 35.1517 161.633 36.2192Z" fill="white"/>
<path d="M143.842 43.9381C145.513 43.9381 146.868 42.589 146.868 40.9248C146.868 39.2607 145.513 37.9116 143.842 37.9116C142.172 37.9116 140.817 39.2607 140.817 40.9248C140.817 42.589 142.172 43.9381 143.842 43.9381Z" fill="white"/>
</g>
<defs>
<clipPath id="clip0_1602_4551">
<rect width="249" height="81" fill="white"/>
</clipPath>
</defs>
</svg>
