<svg width="153" height="48" viewBox="0 0 153 48" fill="none" xmlns="http://www.w3.org/2000/svg">
<path fill-rule="evenodd" clip-rule="evenodd" d="M31.4659 4.73134C31.2506 4.05466 30.1127 3.56255 28.7285 3.56255C26.9327 3.59081 25.2142 4.29812 23.9187 5.54217C22.6234 6.78622 21.8472 8.47468 21.7463 10.2679C25.2437 10.2263 28.6039 8.90187 31.1892 6.54613C31.3954 6.29712 31.5302 5.9967 31.5789 5.67706C31.6276 5.35741 31.5886 5.03052 31.4659 4.73134ZM13.0993 7.24047C12.2511 6.43787 11.1333 5.98171 9.96572 5.96171H9.93508C9.55509 5.91135 9.16854 5.96481 8.81653 6.11645C8.46451 6.26808 8.16011 6.51224 7.93568 6.82294C7.72547 7.43021 7.8345 7.71823 7.89915 7.88903C7.91964 7.94316 7.93568 7.98551 7.93568 8.02252C8.39706 8.72997 10.3655 9.86806 14.5487 10.2987C14.4644 9.13402 13.9473 8.04307 13.0993 7.24047ZM24.4362 1.01381C25.7763 0.406733 27.2267 0.0807766 28.6978 0.0560841L28.6053 0.0252955C29.874 -0.090095 31.1472 0.191192 32.2491 0.830303C33.351 1.46942 34.2273 2.43484 34.757 3.5933C36.7871 9.71426 28.544 13.9282 18.1476 13.9282C7.75125 13.9282 2.76825 10.514 4.67528 5.53109C5.13511 4.5443 5.88498 3.72117 6.82476 3.1716C7.76453 2.62202 8.84957 2.37214 9.93508 2.45525C11.0957 2.47504 12.2395 2.73525 13.2945 3.21947C14.3495 3.70368 15.2926 4.40139 16.0643 5.2685C16.836 6.1356 17.4196 7.15326 17.7782 8.25729C17.9617 8.82253 18.0843 9.40413 18.1448 9.99218C18.214 9.09389 18.3959 8.20562 18.6879 7.34856C19.1623 5.95592 19.9172 4.67527 20.9058 3.58574C21.8944 2.4962 23.096 1.62089 24.4362 1.01381ZM14.3644 17.6807H2.06112C1.53903 17.6807 1.03823 17.8881 0.669062 18.2572C0.299889 18.6265 0.0925287 19.1271 0.0925287 19.6492V25.5548C0.0925287 26.0769 0.299889 26.5777 0.669062 26.9468C1.03823 27.316 1.53903 27.5234 2.06112 27.5234H16.3638V19.6492C16.3639 19.3881 16.3118 19.1296 16.211 18.8888C16.1101 18.6479 15.9625 18.4295 15.7764 18.2463C15.5903 18.0631 15.3696 17.9187 15.1272 17.8217C14.8848 17.7245 14.6255 17.6767 14.3644 17.6807ZM0 33.1827V42.9947C0 43.5168 0.20736 44.0175 0.576534 44.3867C0.945708 44.7559 1.4465 44.9632 1.96859 44.9632H14.272C14.7887 44.9552 15.2816 44.7442 15.6441 44.3759C16.0067 44.0076 16.2098 43.5115 16.2098 42.9947V31.245H1.90701C1.40094 31.2607 0.920419 31.4708 0.56527 31.8318C0.210121 32.1926 0.00766582 32.6764 0 33.1827ZM22.0537 17.6807H34.3571C34.6182 17.6767 34.8774 17.7245 35.1198 17.8217C35.3622 17.9187 35.5829 18.0631 35.769 18.2463C35.9551 18.4295 36.1028 18.6479 36.2036 18.8888C36.3044 19.1296 36.3564 19.3881 36.3564 19.6492V25.5548C36.3564 26.0717 36.1533 26.5678 35.7907 26.9361C35.4282 27.3044 34.9353 27.5153 34.4187 27.5234H20.0853V19.6492C20.0853 19.1271 20.2926 18.6265 20.6618 18.2572C21.0309 17.8881 21.5316 17.6807 22.0537 17.6807ZM34.3573 31.245H20.0239V42.9947C20.0239 43.5168 20.2312 44.0175 20.6004 44.3867C20.9696 44.7559 21.4704 44.9632 21.9925 44.9632H34.2959C34.8127 44.9552 35.3053 44.7442 35.6679 44.3759C36.0304 44.0076 36.2338 43.5115 36.2337 42.9947V33.1827C36.234 32.6792 36.0381 32.1955 35.688 31.8338C35.3378 31.4721 34.8605 31.2609 34.3573 31.245Z" fill="white"/>
<mask id="mask0_1237_2866" style="mask-type:alpha" maskUnits="userSpaceOnUse" x="0" y="0" width="37" height="45">
<path fill-rule="evenodd" clip-rule="evenodd" d="M31.4659 4.73134C31.2506 4.05466 30.1127 3.56255 28.7285 3.56255C26.9327 3.59081 25.2142 4.29812 23.9187 5.54217C22.6234 6.78622 21.8472 8.47468 21.7463 10.2679C25.2437 10.2263 28.6039 8.90187 31.1892 6.54613C31.3954 6.29712 31.5302 5.9967 31.5789 5.67706C31.6276 5.35741 31.5886 5.03052 31.4659 4.73134ZM13.0993 7.24047C12.2511 6.43787 11.1333 5.98171 9.96572 5.96171H9.93508C9.55509 5.91135 9.16854 5.96481 8.81653 6.11645C8.46451 6.26808 8.16011 6.51224 7.93568 6.82294C7.72547 7.43021 7.8345 7.71823 7.89915 7.88903C7.91964 7.94316 7.93568 7.98551 7.93568 8.02252C8.39706 8.72997 10.3655 9.86806 14.5487 10.2987C14.4644 9.13402 13.9473 8.04307 13.0993 7.24047ZM24.4362 1.01381C25.7763 0.406733 27.2267 0.0807766 28.6978 0.0560841L28.6053 0.0252955C29.874 -0.090095 31.1472 0.191192 32.2491 0.830303C33.351 1.46942 34.2273 2.43484 34.757 3.5933C36.7871 9.71426 28.544 13.9282 18.1476 13.9282C7.75125 13.9282 2.76825 10.514 4.67528 5.53109C5.13511 4.5443 5.88498 3.72117 6.82476 3.1716C7.76453 2.62202 8.84957 2.37214 9.93508 2.45525C11.0957 2.47504 12.2395 2.73525 13.2945 3.21947C14.3495 3.70368 15.2926 4.40139 16.0643 5.2685C16.836 6.1356 17.4196 7.15326 17.7782 8.25729C17.9617 8.82253 18.0843 9.40413 18.1448 9.99218C18.214 9.09389 18.3959 8.20562 18.6879 7.34856C19.1623 5.95592 19.9172 4.67527 20.9058 3.58574C21.8944 2.4962 23.096 1.62089 24.4362 1.01381ZM14.3644 17.6807H2.06112C1.53903 17.6807 1.03823 17.8881 0.669062 18.2572C0.299889 18.6265 0.0925287 19.1271 0.0925287 19.6492V25.5548C0.0925287 26.0769 0.299889 26.5777 0.669062 26.9468C1.03823 27.316 1.53903 27.5234 2.06112 27.5234H16.3638V19.6492C16.3639 19.3881 16.3118 19.1296 16.211 18.8888C16.1101 18.6479 15.9625 18.4295 15.7764 18.2463C15.5903 18.0631 15.3696 17.9187 15.1272 17.8217C14.8848 17.7245 14.6255 17.6767 14.3644 17.6807ZM0 33.1827V42.9947C0 43.5168 0.20736 44.0175 0.576534 44.3867C0.945708 44.7559 1.4465 44.9632 1.96859 44.9632H14.272C14.7887 44.9552 15.2816 44.7442 15.6441 44.3759C16.0067 44.0076 16.2098 43.5115 16.2098 42.9947V31.245H1.90701C1.40094 31.2607 0.920419 31.4708 0.56527 31.8318C0.210121 32.1926 0.00766582 32.6764 0 33.1827ZM22.0537 17.6807H34.3571C34.6182 17.6767 34.8774 17.7245 35.1198 17.8217C35.3622 17.9187 35.5829 18.0631 35.769 18.2463C35.9551 18.4295 36.1028 18.6479 36.2036 18.8888C36.3044 19.1296 36.3564 19.3881 36.3564 19.6492V25.5548C36.3564 26.0717 36.1533 26.5678 35.7907 26.9361C35.4282 27.3044 34.9353 27.5153 34.4187 27.5234H20.0853V19.6492C20.0853 19.1271 20.2926 18.6265 20.6618 18.2572C21.0309 17.8881 21.5316 17.6807 22.0537 17.6807ZM34.3573 31.245H20.0239V42.9947C20.0239 43.5168 20.2312 44.0175 20.6004 44.3867C20.9696 44.7559 21.4704 44.9632 21.9925 44.9632H34.2959C34.8127 44.9552 35.3053 44.7442 35.6679 44.3759C36.0304 44.0076 36.2338 43.5115 36.2337 42.9947V33.1827C36.234 32.6792 36.0381 32.1955 35.688 31.8338C35.3378 31.4721 34.8605 31.2609 34.3573 31.245Z" fill="#4754F6"/>
</mask>
<g mask="url(#mask0_1237_2866)">
</g>
<path d="M28.7282 3.56255C30.1124 3.56255 31.2504 4.05466 31.4657 4.73134C31.5883 5.03052 31.6274 5.35741 31.5787 5.67706C31.5299 5.9967 31.3952 6.29712 31.1889 6.54613C28.6036 8.90187 25.2434 10.2263 21.7461 10.2679C21.8469 8.47468 22.6231 6.78622 23.9185 5.54217C25.2139 4.29812 26.9325 3.59081 28.7282 3.56255ZM9.96546 5.96171C11.133 5.98171 12.2509 6.43787 13.099 7.24047C13.9471 8.04307 14.4642 9.13402 14.5484 10.2987C10.3653 9.86806 8.3968 8.72997 7.93542 8.02252C7.93542 7.86873 7.65859 7.62267 7.93542 6.82294C8.15985 6.51223 8.46425 6.26808 8.81627 6.11645C9.16828 5.96481 9.55483 5.91135 9.93482 5.96171H9.96546ZM28.6975 0.0560841C27.2264 0.0807766 25.776 0.406733 24.4359 1.01381C23.0957 1.62089 21.8942 2.4962 20.9056 3.58574C19.9169 4.67527 19.1621 5.95592 18.6876 7.34856C18.2132 8.74119 18.0294 10.2163 18.1474 11.6828C18.2623 10.5277 18.1364 9.36131 17.7779 8.25729C17.4194 7.15326 16.8358 6.1356 16.0641 5.2685C15.2923 4.40139 14.3492 3.70368 13.2942 3.21947C12.2393 2.73525 11.0954 2.47504 9.93482 2.45525C8.84931 2.37214 7.76427 2.62202 6.8245 3.1716C5.88472 3.72117 5.13485 4.5443 4.67502 5.53109C2.76799 10.514 7.75099 13.9282 18.1474 13.9282C28.5437 13.9282 36.7869 9.71426 34.7568 3.5933C34.227 2.43484 33.3508 1.46942 32.2489 0.830303C31.1469 0.191192 29.8737 -0.090095 28.6051 0.0252955L28.6975 0.0560841Z" fill="white"/>
<path d="M63.9808 21.5892H57.765V18.3237H73.8059V21.5892H67.59V38.604H63.9808V21.5892ZM85.8773 38.604H82.6118V36.3984H82.5545C82.2299 37.0858 81.7334 37.6874 81.065 38.203C80.3966 38.6995 79.4896 38.9477 78.3438 38.9477C77.4272 38.9477 76.6442 38.8045 75.9949 38.5181C75.3648 38.2125 74.8492 37.8115 74.4481 37.315C74.0471 36.7994 73.7607 36.217 73.5888 35.5677C73.4169 34.9184 73.331 34.2405 73.331 33.5339V24.8547H76.7683V31.8153C76.7683 32.1972 76.7874 32.6269 76.8256 33.1043C76.8638 33.5626 76.9593 34.0018 77.1121 34.4219C77.2839 34.8229 77.5322 35.1667 77.8568 35.4531C78.2006 35.7205 78.678 35.8541 79.289 35.8541C79.8619 35.8541 80.3393 35.7587 80.7213 35.5677C81.1223 35.3767 81.4469 35.1189 81.6952 34.7943C81.9625 34.4697 82.1535 34.0973 82.2681 33.6772C82.3826 33.257 82.4399 32.8178 82.4399 32.3595V24.8547H85.8773V38.604ZM89.7792 16.9488H93.2165V26.602H93.3025C93.4743 26.3728 93.6939 26.1437 93.9613 25.9145C94.2286 25.6663 94.5533 25.4371 94.9352 25.227C95.3171 25.017 95.7563 24.8451 96.2528 24.7114C96.7493 24.5778 97.3222 24.5109 97.9715 24.5109C98.9454 24.5109 99.8429 24.7019 100.664 25.0838C101.485 25.4466 102.182 25.9527 102.755 26.602C103.347 27.2512 103.805 28.0151 104.13 28.8935C104.455 29.772 104.617 30.7172 104.617 31.7293C104.617 32.7414 104.464 33.6867 104.159 34.5651C103.853 35.4436 103.404 36.2074 102.812 36.8567C102.22 37.506 101.504 38.0216 100.664 38.4035C99.8238 38.7663 98.8786 38.9477 97.8283 38.9477C96.8544 38.9477 95.9473 38.7568 95.1071 38.3748C94.2668 37.9929 93.5984 37.3818 93.1019 36.5416H93.0447V38.604H89.7792V16.9488ZM101.18 31.7293C101.18 31.1946 101.084 30.679 100.893 30.1825C100.721 29.686 100.454 29.2468 100.091 28.8649C99.7475 28.483 99.3273 28.1774 98.8308 27.9483C98.3343 27.7191 97.771 27.6045 97.1408 27.6045C96.5106 27.6045 95.9473 27.7191 95.4508 27.9483C94.9543 28.1774 94.5246 28.483 94.1618 28.8649C93.8181 29.2468 93.5507 29.686 93.3597 30.1825C93.1879 30.679 93.1019 31.1946 93.1019 31.7293C93.1019 32.264 93.1879 32.7796 93.3597 33.2761C93.5507 33.7726 93.8181 34.2119 94.1618 34.5938C94.5246 34.9757 94.9543 35.2812 95.4508 35.5104C95.9473 35.7396 96.5106 35.8541 97.1408 35.8541C97.771 35.8541 98.3343 35.7396 98.8308 35.5104C99.3273 35.2812 99.7475 34.9757 100.091 34.5938C100.454 34.2119 100.721 33.7726 100.893 33.2761C101.084 32.7796 101.18 32.264 101.18 31.7293ZM107.822 16.9488H111.259V26.602H111.345C111.517 26.3728 111.737 26.1437 112.004 25.9145C112.271 25.6663 112.596 25.4371 112.978 25.227C113.36 25.017 113.799 24.8451 114.295 24.7114C114.792 24.5778 115.365 24.5109 116.014 24.5109C116.988 24.5109 117.886 24.7019 118.707 25.0838C119.528 25.4466 120.225 25.9527 120.798 26.602C121.39 27.2512 121.848 28.0151 122.173 28.8935C122.497 29.772 122.66 30.7172 122.66 31.7293C122.66 32.7414 122.507 33.6867 122.201 34.5651C121.896 35.4436 121.447 36.2074 120.855 36.8567C120.263 37.506 119.547 38.0216 118.707 38.4035C117.866 38.7663 116.921 38.9477 115.871 38.9477C114.897 38.9477 113.99 38.7568 113.15 38.3748C112.309 37.9929 111.641 37.3818 111.145 36.5416H111.087V38.604H107.822V16.9488ZM119.222 31.7293C119.222 31.1946 119.127 30.679 118.936 30.1825C118.764 29.686 118.497 29.2468 118.134 28.8649C117.79 28.483 117.37 28.1774 116.873 27.9483C116.377 27.7191 115.814 27.6045 115.183 27.6045C114.553 27.6045 113.99 27.7191 113.493 27.9483C112.997 28.1774 112.567 28.483 112.204 28.8649C111.861 29.2468 111.593 29.686 111.402 30.1825C111.231 30.679 111.145 31.1946 111.145 31.7293C111.145 32.264 111.231 32.7796 111.402 33.2761C111.593 33.7726 111.861 34.2119 112.204 34.5938C112.567 34.9757 112.997 35.2812 113.493 35.5104C113.99 35.7396 114.553 35.8541 115.183 35.8541C115.814 35.8541 116.377 35.7396 116.873 35.5104C117.37 35.2812 117.79 34.9757 118.134 34.5938C118.497 34.2119 118.764 33.7726 118.936 33.2761C119.127 32.7796 119.222 32.264 119.222 31.7293ZM125.922 16.9488H129.359V38.604H125.922V16.9488ZM131.443 24.8547H135.225L139.063 34.3933H139.12L142.558 24.8547H146.138L139.636 41.5544C139.388 42.2037 139.111 42.767 138.805 43.2444C138.519 43.7409 138.175 44.1515 137.774 44.4761C137.373 44.8199 136.895 45.0681 136.342 45.2209C135.807 45.3927 135.158 45.4787 134.394 45.4787C133.496 45.4787 132.618 45.3641 131.759 45.1349L132.188 42.0413C132.456 42.1368 132.732 42.2132 133.019 42.2705C133.324 42.3469 133.63 42.3851 133.936 42.3851C134.356 42.3851 134.709 42.3469 134.995 42.2705C135.282 42.1941 135.521 42.07 135.711 41.8981C135.922 41.7453 136.093 41.5353 136.227 41.2679C136.361 41.0197 136.504 40.7141 136.657 40.3513L137.316 38.7186L131.443 24.8547Z" fill="white"/>
</svg>
