<svg width="20" height="20" viewBox="0 0 20 20" fill="none" xmlns="http://www.w3.org/2000/svg">
<path d="M16.6063 3.74342C15.4187 3.16789 14.1453 2.74387 12.8138 2.50102C12.7895 2.49633 12.7653 2.50804 12.7528 2.53147C12.589 2.83914 12.4076 3.24051 12.2806 3.55599C10.8485 3.32954 9.4237 3.32954 8.02095 3.55599C7.89389 3.2335 7.70588 2.83914 7.54137 2.53147C7.52888 2.50883 7.50466 2.49711 7.48041 2.50102C6.14965 2.7431 4.87617 3.16712 3.68788 3.74342C3.67759 3.7481 3.66877 3.75592 3.66292 3.76606C1.24741 7.57759 0.585698 11.2954 0.910311 14.9672C0.91178 14.9852 0.921327 15.0023 0.934547 15.0133C2.52823 16.2494 4.07199 16.9998 5.58708 17.4973C5.61133 17.5051 5.63702 17.4957 5.65245 17.4746C6.01085 16.9577 6.33033 16.4126 6.60425 15.8394C6.62041 15.8059 6.60498 15.766 6.57194 15.7528C6.0652 15.5497 5.58267 15.3022 5.11852 15.0211C5.08181 14.9984 5.07887 14.943 5.11264 14.9164C5.21032 14.8391 5.30802 14.7587 5.40129 14.6775C5.41816 14.6626 5.44167 14.6595 5.46151 14.6689C8.5108 16.1393 11.812 16.1393 14.8253 14.6689C14.8452 14.6587 14.8687 14.6619 14.8863 14.6767C14.9796 14.7579 15.0772 14.8391 15.1757 14.9164C15.2094 14.943 15.2072 14.9984 15.1705 15.0211C14.7064 15.3076 14.2238 15.5497 13.7164 15.752C13.6833 15.7653 13.6686 15.8059 13.6848 15.8394C13.9646 16.4118 14.2841 16.9569 14.6358 17.4738C14.6505 17.4957 14.677 17.5051 14.7012 17.4973C16.2237 16.9998 17.7674 16.2494 19.3611 15.0133C19.3751 15.0023 19.3839 14.9859 19.3853 14.968C19.7738 10.723 18.7346 7.03566 16.6305 3.76684C16.6254 3.75592 16.6166 3.7481 16.6063 3.74342ZM7.05961 12.7315C6.14156 12.7315 5.38512 11.8413 5.38512 10.748C5.38512 9.65476 6.12689 8.76456 7.05961 8.76456C7.99964 8.76456 8.74877 9.66258 8.73407 10.748C8.73407 11.8413 7.9923 12.7315 7.05961 12.7315ZM13.2507 12.7315C12.3327 12.7315 11.5763 11.8413 11.5763 10.748C11.5763 9.65476 12.318 8.76456 13.2507 8.76456C14.1908 8.76456 14.9399 9.66258 14.9252 10.748C14.9252 11.8413 14.1908 12.7315 13.2507 12.7315Z" fill="white"/>
</svg>
