<svg width="20" height="20" viewBox="0 0 20 20" fill="none" xmlns="http://www.w3.org/2000/svg">
<g clip-path="url(#clip0_693_854)">
<path d="M11.2812 9.85625C11.2812 12.9985 8.75578 15.5458 5.6407 15.5458C2.52561 15.5458 0 12.9979 0 9.85625C0 6.71457 2.52542 4.1665 5.6407 4.1665C8.75598 4.1665 11.2812 6.71399 11.2812 9.85625Z" fill="white"/>
<path d="M17.4689 9.85646C17.4689 12.8142 16.2062 15.2129 14.6486 15.2129C13.091 15.2129 11.8282 12.8142 11.8282 9.85646C11.8282 6.8987 13.0908 4.5 14.6484 4.5C16.206 4.5 17.4688 6.89793 17.4688 9.85646" fill="white"/>
<path d="M20 9.85616C20 12.5056 19.5559 14.6547 19.008 14.6547C18.4601 14.6547 18.0163 12.5062 18.0163 9.85616C18.0163 7.20615 18.4603 5.05762 19.008 5.05762C19.5557 5.05762 20 7.20596 20 9.85616Z" fill="white"/>
</g>
<defs>
<clipPath id="clip0_693_854">
<rect width="20" height="20" fill="white"/>
</clipPath>
</defs>
</svg>
