<svg width="20" height="20" viewBox="0 0 20 20" fill="none" xmlns="http://www.w3.org/2000/svg">
<path fill-rule="evenodd" clip-rule="evenodd" d="M20 10C20 15.5228 15.5228 20 10 20C4.47715 20 0 15.5228 0 10C0 4.47715 4.47715 0 10 0C15.5228 0 20 4.47715 20 10ZM10.3583 7.38243C9.38569 7.78699 7.44176 8.62432 4.52656 9.89442C4.05318 10.0827 3.8052 10.2668 3.78262 10.4469C3.74447 10.7512 4.12558 10.8711 4.64455 11.0343C4.71514 11.0565 4.78828 11.0795 4.86327 11.1038C5.37385 11.2698 6.06067 11.464 6.41772 11.4717C6.7416 11.4787 7.10309 11.3452 7.50218 11.0711C10.2259 9.23249 11.632 8.30316 11.7202 8.28313C11.7825 8.26899 11.8688 8.25122 11.9273 8.30319C11.9858 8.35516 11.98 8.45359 11.9738 8.47999C11.9361 8.64094 10.4401 10.0317 9.66592 10.7515C9.42458 10.9758 9.25338 11.135 9.21838 11.1714C9.13999 11.2528 9.06009 11.3298 8.9833 11.4038C8.50896 11.8611 8.15324 12.204 9.003 12.764C9.41135 13.0331 9.73812 13.2556 10.0641 13.4776C10.4201 13.7201 10.7752 13.9619 11.2347 14.263C11.3517 14.3398 11.4635 14.4195 11.5724 14.4971C11.9867 14.7925 12.3589 15.0578 12.8188 15.0155C13.086 14.9909 13.362 14.7397 13.5022 13.9903C13.8335 12.2193 14.4847 8.38204 14.6352 6.8008C14.6484 6.66226 14.6318 6.48496 14.6184 6.40713C14.6051 6.3293 14.5773 6.21841 14.4761 6.13632C14.3563 6.0391 14.1713 6.0186 14.0886 6.02006C13.7125 6.02668 13.1354 6.22734 10.3583 7.38243Z" fill="white"/>
</svg>
